<svg xmlns="http://www.w3.org/2000/svg" xmlns:xlink="http://www.w3.org/1999/xlink" width="22" zoomAndPan="magnify" viewBox="0 0 16.5 16.5" height="22" preserveAspectRatio="xMidYMid meet" version="1.0"><defs><filter x="0%" y="0%" width="100%" height="100%" id="7e4095801f"><feColorMatrix values="0 0 0 0 1 0 0 0 0 1 0 0 0 0 1 0 0 0 1 0" color-interpolation-filters="sRGB"/></filter><mask id="f7e1d10741"><g filter="url(#7e4095801f)"><rect x="-1.65" width="19.8" fill="#000000" y="-1.65" height="19.8" fill-opacity="0.7029"/></g></mask><clipPath id="bb0ca5eeb9"><path d="M 0.328125 0.4375 L 15.285156 0.4375 L 15.285156 15.390625 L 0.328125 15.390625 Z M 0.328125 0.4375 " clip-rule="nonzero"/></clipPath><clipPath id="4958dcb713"><rect x="0" width="16" y="0" height="16"/></clipPath><mask id="69ea427f7c"><g filter="url(#7e4095801f)"><rect x="-1.65" width="19.8" fill="#000000" y="-1.65" height="19.8" fill-opacity="0.7029"/></g></mask><clipPath id="a4b72ba4c2"><path d="M 0.328125 0.328125 L 15.285156 0.328125 L 15.285156 15.285156 L 0.328125 15.285156 Z M 0.328125 0.328125 " clip-rule="nonzero"/></clipPath><clipPath id="06501365e9"><rect x="0" width="16" y="0" height="16"/></clipPath></defs><g mask="url(#f7e1d10741)"><g transform="matrix(1, 0, 0, 1, 0, 0.000000000000003429)"><g clip-path="url(#4958dcb713)"><g clip-path="url(#bb0ca5eeb9)"><path fill="#000000" d="M 7.972656 15.722656 C 12.1875 15.722656 15.617188 12.292969 15.617188 8.078125 C 15.617188 3.863281 12.1875 0.4375 7.972656 0.4375 C 3.757812 0.4375 0.328125 3.863281 0.328125 8.078125 C 0.328125 12.292969 3.757812 15.722656 7.972656 15.722656 Z M 7.972656 1.453125 C 11.625 1.453125 14.597656 4.425781 14.597656 8.078125 C 14.597656 11.730469 11.625 14.703125 7.972656 14.703125 C 4.320312 14.703125 1.347656 11.730469 1.347656 8.078125 C 1.347656 4.425781 4.320312 1.453125 7.972656 1.453125 Z M 7.972656 1.453125 " fill-opacity="1" fill-rule="nonzero"/></g><path fill="#000000" d="M 5.308594 8.589844 L 7.464844 8.589844 L 7.464844 10.746094 C 7.464844 11.027344 7.691406 11.253906 7.972656 11.253906 C 8.253906 11.253906 8.484375 11.027344 8.484375 10.746094 L 8.484375 8.589844 L 10.640625 8.589844 C 10.921875 8.589844 11.148438 8.359375 11.148438 8.078125 C 11.148438 7.796875 10.921875 7.570312 10.640625 7.570312 L 8.484375 7.570312 L 8.484375 5.414062 C 8.484375 5.132812 8.253906 4.902344 7.972656 4.902344 C 7.691406 4.902344 7.464844 5.132812 7.464844 5.414062 L 7.464844 7.570312 L 5.308594 7.570312 C 5.027344 7.570312 4.796875 7.796875 4.796875 8.078125 C 4.796875 8.359375 5.027344 8.589844 5.308594 8.589844 Z M 5.308594 8.589844 " fill-opacity="1" fill-rule="nonzero"/></g></g></g><g mask="url(#69ea427f7c)"><g transform="matrix(1, 0, 0, 1, 0, 0.000000000000003429)"><g clip-path="url(#06501365e9)"><g clip-path="url(#a4b72ba4c2)"><path fill="#000000" d="M 7.972656 15.617188 C 12.1875 15.617188 15.617188 12.1875 15.617188 7.972656 C 15.617188 3.757812 12.1875 0.328125 7.972656 0.328125 C 3.757812 0.328125 0.328125 3.757812 0.328125 7.972656 C 0.328125 12.1875 3.757812 15.617188 7.972656 15.617188 Z M 7.972656 1.347656 C 11.625 1.347656 14.597656 4.320312 14.597656 7.972656 C 14.597656 11.625 11.625 14.597656 7.972656 14.597656 C 4.320312 14.597656 1.347656 11.625 1.347656 7.972656 C 1.347656 4.320312 4.320312 1.347656 7.972656 1.347656 Z M 7.972656 1.347656 " fill-opacity="1" fill-rule="nonzero"/></g><path fill="#000000" d="M 5.308594 8.484375 L 7.464844 8.484375 L 7.464844 10.640625 C 7.464844 10.921875 7.691406 11.148438 7.972656 11.148438 C 8.253906 11.148438 8.484375 10.921875 8.484375 10.640625 L 8.484375 8.484375 L 10.640625 8.484375 C 10.921875 8.484375 11.148438 8.253906 11.148438 7.972656 C 11.148438 7.691406 10.921875 7.464844 10.640625 7.464844 L 8.484375 7.464844 L 8.484375 5.308594 C 8.484375 5.027344 8.253906 4.796875 7.972656 4.796875 C 7.691406 4.796875 7.464844 5.027344 7.464844 5.308594 L 7.464844 7.464844 L 5.308594 7.464844 C 5.027344 7.464844 4.796875 7.691406 4.796875 7.972656 C 4.796875 8.253906 5.027344 8.484375 5.308594 8.484375 Z M 5.308594 8.484375 " fill-opacity="1" fill-rule="nonzero"/></g></g></g></svg>