<svg xmlns="http://www.w3.org/2000/svg" xmlns:xlink="http://www.w3.org/1999/xlink" width="20" zoomAndPan="magnify" viewBox="0 0 14.88 15" height="20" preserveAspectRatio="xMidYMid meet" version="1.0"><defs><filter x="0%" y="0%" width="100%" height="100%" id="7bbcc85542"><feColorMatrix values="0 0 0 0 1 0 0 0 0 1 0 0 0 0 1 0 0 0 1 0" color-interpolation-filters="sRGB"/></filter><clipPath id="6a2a4d81b1"><path d="M 0.410156 0 L 13 0 L 13 13 L 0.410156 13 Z M 0.410156 0 " clip-rule="nonzero"/></clipPath><mask id="d27f4bce29"><g filter="url(#7bbcc85542)"><rect x="-1.488" width="17.856" fill="#000000" y="-1.5" height="18" fill-opacity="0.82"/></g></mask><clipPath id="58b7e981e1"><path d="M 0.410156 0 L 6.660156 0 L 6.660156 6.328125 L 0.410156 6.328125 Z M 0.410156 0 " clip-rule="nonzero"/></clipPath><clipPath id="e0fe803bb8"><path d="M 3.511719 0 C 4.335938 0 5.125 0.328125 5.707031 0.910156 C 6.289062 1.492188 6.617188 2.28125 6.617188 3.105469 L 6.617188 3.167969 C 6.617188 3.992188 6.289062 4.78125 5.707031 5.363281 C 5.125 5.945312 4.335938 6.273438 3.511719 6.273438 C 2.6875 6.273438 1.898438 5.945312 1.316406 5.363281 C 0.734375 4.78125 0.410156 3.992188 0.410156 3.167969 L 0.410156 3.105469 C 0.410156 2.28125 0.734375 1.492188 1.316406 0.910156 C 1.898438 0.328125 2.6875 0 3.511719 0 Z M 3.511719 0 " clip-rule="nonzero"/></clipPath><clipPath id="1f84962ac4"><rect x="0" width="13" y="0" height="13"/></clipPath><clipPath id="2f42b0b0e9"><path d="M 4 0 L 14.359375 0 L 14.359375 10 L 4 10 Z M 4 0 " clip-rule="nonzero"/></clipPath><mask id="b05bfbc693"><g filter="url(#7bbcc85542)"><rect x="-1.488" width="17.856" fill="#000000" y="-1.5" height="18" fill-opacity="0.82"/></g></mask><clipPath id="49377948ce"><path d="M 3.789062 0 L 9.996094 0 L 9.996094 6.207031 L 3.789062 6.207031 Z M 3.789062 0 " clip-rule="nonzero"/></clipPath><clipPath id="96d272de31"><path d="M 6.894531 0 L 7.878906 2.117188 L 9.996094 3.105469 L 7.878906 4.089844 L 6.894531 6.207031 L 5.90625 4.089844 L 3.789062 3.105469 L 5.90625 2.117188 Z M 6.894531 0 " clip-rule="nonzero"/></clipPath><clipPath id="70c1844cff"><rect x="0" width="11" y="0" height="10"/></clipPath><clipPath id="be15916e43"><path d="M 0.410156 1 L 13 1 L 13 14.0625 L 0.410156 14.0625 Z M 0.410156 1 " clip-rule="nonzero"/></clipPath><mask id="8985d43280"><g filter="url(#7bbcc85542)"><rect x="-1.488" width="17.856" fill="#000000" y="-1.5" height="18" fill-opacity="0.82"/></g></mask><clipPath id="64d7577276"><path d="M 0.410156 6.316406 L 6.660156 6.316406 L 6.660156 12.644531 L 0.410156 12.644531 Z M 0.410156 6.316406 " clip-rule="nonzero"/></clipPath><clipPath id="a0e92287eb"><path d="M 3.511719 6.316406 C 4.335938 6.316406 5.125 6.644531 5.707031 7.226562 C 6.289062 7.808594 6.617188 8.597656 6.617188 9.421875 L 6.617188 9.484375 C 6.617188 10.308594 6.289062 11.097656 5.707031 11.679688 C 5.125 12.261719 4.335938 12.589844 3.511719 12.589844 C 2.6875 12.589844 1.898438 12.261719 1.316406 11.679688 C 0.734375 11.097656 0.410156 10.308594 0.410156 9.484375 L 0.410156 9.421875 C 0.410156 8.597656 0.734375 7.808594 1.316406 7.226562 C 1.898438 6.644531 2.6875 6.316406 3.511719 6.316406 Z M 3.511719 6.316406 " clip-rule="nonzero"/></clipPath><clipPath id="d6074cc095"><rect x="0" width="13" y="0" height="14"/></clipPath><clipPath id="63382529d9"><path d="M 1 1 L 14.359375 1 L 14.359375 14.0625 L 1 14.0625 Z M 1 1 " clip-rule="nonzero"/></clipPath><mask id="286ff42266"><g filter="url(#7bbcc85542)"><rect x="-1.488" width="17.856" fill="#000000" y="-1.5" height="18" fill-opacity="0.82"/></g></mask><clipPath id="5e3fe9e2fc"><path d="M 6.789062 6.316406 L 13 6.316406 L 13 12.644531 L 6.789062 12.644531 Z M 6.789062 6.316406 " clip-rule="nonzero"/></clipPath><clipPath id="7ae087105a"><path d="M 9.894531 6.316406 C 8.179688 6.316406 6.789062 7.722656 6.789062 9.453125 C 6.789062 11.183594 8.179688 12.589844 9.894531 12.589844 C 11.605469 12.589844 12.996094 11.183594 12.996094 9.453125 C 12.996094 7.722656 11.605469 6.316406 9.894531 6.316406 Z M 9.894531 6.316406 " clip-rule="nonzero"/></clipPath><clipPath id="f5cba574a7"><rect x="0" width="14" y="0" height="14"/></clipPath></defs><g clip-path="url(#6a2a4d81b1)"><g mask="url(#d27f4bce29)"><g transform="matrix(1, 0, 0, 1, -0.000000000000000056, 0)"><g clip-path="url(#1f84962ac4)"><g clip-path="url(#58b7e981e1)"><g clip-path="url(#e0fe803bb8)"><path stroke-linecap="butt" transform="matrix(0.703125, 0, 0, 0.703125, 0.40875, 0.00103417)" fill="none" stroke-linejoin="miter" d="M 4.413111 -0.00147082 C 5.585334 -0.00147082 6.707556 0.465196 7.535334 1.292974 C 8.363111 2.120751 8.829778 3.242974 8.829778 4.415196 L 8.829778 4.504085 C 8.829778 5.676307 8.363111 6.798529 7.535334 7.626307 C 6.707556 8.454085 5.585334 8.920752 4.413111 8.920752 C 3.240889 8.920752 2.118667 8.454085 1.290889 7.626307 C 0.463111 6.798529 0.002 5.676307 0.002 4.504085 L 0.002 4.415196 C 0.002 3.242974 0.463111 2.120751 1.290889 1.292974 C 2.118667 0.465196 3.240889 -0.00147082 4.413111 -0.00147082 Z M 4.413111 -0.00147082 " stroke="#000000" stroke-width="4" stroke-opacity="1" stroke-miterlimit="4"/></g></g></g></g></g></g><g clip-path="url(#2f42b0b0e9)"><g mask="url(#b05bfbc693)"><g transform="matrix(1, 0, 0, 1, 4, 0)"><g clip-path="url(#70c1844cff)"><g clip-path="url(#49377948ce)"><g clip-path="url(#96d272de31)"><path stroke-linecap="butt" transform="matrix(0.703125, 0, 0, 0.703125, 3.789388, 0.000000000000104292)" fill="none" stroke-linejoin="miter" d="M 4.416204 -0.000000000000148326 L 5.816204 3.011111 L 8.827315 4.416667 L 5.816204 5.816667 L 4.416204 8.827778 L 3.010648 5.816667 L -0.000463086 4.416667 L 3.010648 3.011111 Z M 4.416204 -0.000000000000148326 " stroke="#000000" stroke-width="2" stroke-opacity="1" stroke-miterlimit="4"/></g></g></g></g></g></g><g clip-path="url(#be15916e43)"><g mask="url(#8985d43280)"><g transform="matrix(1, 0, 0, 1, -0.000000000000000056, 1)"><g clip-path="url(#d6074cc095)"><g clip-path="url(#64d7577276)"><g clip-path="url(#a0e92287eb)"><path stroke-linecap="butt" transform="matrix(0.703125, 0, 0, 0.703125, 0.40875, 6.317779)" fill="none" stroke-linejoin="miter" d="M 4.413111 -0.00195249 C 5.585334 -0.00195249 6.707556 0.464714 7.535334 1.292492 C 8.363111 2.12027 8.829778 3.242492 8.829778 4.414714 L 8.829778 4.503603 C 8.829778 5.675826 8.363111 6.798048 7.535334 7.625826 C 6.707556 8.453603 5.585334 8.92027 4.413111 8.92027 C 3.240889 8.92027 2.118667 8.453603 1.290889 7.625826 C 0.463111 6.798048 0.002 5.675826 0.002 4.503603 L 0.002 4.414714 C 0.002 3.242492 0.463111 2.12027 1.290889 1.292492 C 2.118667 0.464714 3.240889 -0.00195249 4.413111 -0.00195249 Z M 4.413111 -0.00195249 " stroke="#000000" stroke-width="4" stroke-opacity="1" stroke-miterlimit="4"/></g></g></g></g></g></g><g clip-path="url(#63382529d9)"><g mask="url(#286ff42266)"><g transform="matrix(1, 0, 0, 1, 1, 1)"><g clip-path="url(#f5cba574a7)"><g clip-path="url(#5e3fe9e2fc)"><g clip-path="url(#7ae087105a)"><path stroke-linecap="butt" transform="matrix(0.703125, 0, 0, 0.703125, 6.789388, 6.317779)" fill="none" stroke-linejoin="miter" d="M 4.416204 -0.00195249 C 1.977315 -0.00195249 -0.000462958 1.998048 -0.000462958 4.459159 C -0.000462958 6.92027 1.977315 8.92027 4.416204 8.92027 C 6.849537 8.92027 8.827315 6.92027 8.827315 4.459159 C 8.827315 1.998048 6.849537 -0.00195249 4.416204 -0.00195249 Z M 4.416204 -0.00195249 " stroke="#000000" stroke-width="4" stroke-opacity="1" stroke-miterlimit="4"/></g></g></g></g></g></g></svg>