<svg xmlns="http://www.w3.org/2000/svg" xmlns:xlink="http://www.w3.org/1999/xlink" width="124" zoomAndPan="magnify" viewBox="0 0 93 86.999996" height="116" preserveAspectRatio="xMidYMid meet" version="1.0"><defs><clipPath id="6276f1c6a6"><path d="M 0 0 L 92.25 0 L 92.25 86 L 0 86 Z M 0 0 " clip-rule="nonzero"/></clipPath></defs><g clip-path="url(#6276f1c6a6)"><path fill="#141212" d="M 45.578125 11.25 C 45.210938 9.6875 45 7.90625 45.71875 6.410156 C 45.804688 6.230469 46.078125 6.28125 46.0625 6.492188 C 45.960938 8.097656 45.574219 9.609375 45.683594 11.234375 C 45.6875 11.300781 45.59375 11.320312 45.578125 11.25 Z M 41.183594 11.449219 C 41.316406 10.589844 41.570312 9.683594 42.082031 8.96875 C 42.125 8.910156 42.226562 8.960938 42.195312 9.027344 C 41.796875 9.824219 41.425781 10.570312 41.246094 11.453125 C 41.238281 11.492188 41.175781 11.488281 41.183594 11.449219 Z M 38.695312 12.667969 C 38.96875 11.539062 39.175781 10.332031 39.773438 9.324219 C 39.839844 9.214844 40.019531 9.289062 40.003906 9.410156 C 39.851562 10.570312 39.269531 11.648438 38.792969 12.703125 C 38.765625 12.765625 38.679688 12.730469 38.695312 12.667969 Z M 16.382812 22.1875 C 16.402344 22.09375 16.425781 22.003906 16.449219 21.910156 C 16.519531 21.617188 16.894531 21.421875 17.179688 21.457031 C 18.742188 21.671875 20.179688 22.925781 21.539062 23.675781 C 23.390625 24.703125 25.207031 25.78125 26.941406 26.996094 C 26.953125 27.003906 26.941406 27.019531 26.929688 27.011719 C 25.1875 25.851562 23.363281 24.695312 21.398438 23.941406 C 20.277344 23.507812 19.074219 23.058594 17.882812 22.898438 C 17.371094 22.828125 17.058594 22.910156 16.613281 22.699219 C 16.398438 22.601562 16.328125 22.410156 16.382812 22.1875 Z M 14.195312 24.464844 C 13.800781 24.328125 13.386719 24.320312 12.996094 24.207031 C 12.921875 24.183594 12.9375 24.074219 13.007812 24.0625 C 13.886719 23.921875 14.933594 24.578125 15.535156 25.148438 C 15.578125 25.1875 15.511719 25.261719 15.464844 25.222656 C 15.09375 24.898438 14.667969 24.625 14.195312 24.464844 Z M 12.84375 48.421875 C 12.609375 48.367188 12.371094 48.328125 12.132812 48.285156 C 12.375 48.3125 12.617188 48.332031 12.855469 48.332031 C 12.914062 48.332031 12.902344 48.433594 12.84375 48.421875 Z M 9.8125 47.695312 C 10.210938 47.84375 10.636719 47.976562 11.066406 48.082031 C 10.628906 48.007812 10.191406 47.933594 9.761719 47.828125 C 8.871094 47.621094 7.699219 47.53125 7.027344 46.878906 C 6.882812 46.734375 7.039062 46.476562 7.230469 46.5 C 8.148438 46.628906 8.933594 47.371094 9.8125 47.695312 Z M 8.394531 45.761719 C 7.621094 45.609375 6.867188 45.320312 6.171875 44.953125 C 5.605469 44.65625 4.980469 44.195312 4.632812 43.648438 C 4.421875 43.316406 4.949219 43.027344 5.195312 43.292969 C 5.445312 43.5625 5.636719 43.875 5.84375 44.175781 C 6.011719 44.414062 6.398438 44.6875 6.625 44.867188 C 7.160156 45.285156 7.75 45.542969 8.402344 45.71875 C 8.425781 45.726562 8.417969 45.765625 8.394531 45.761719 Z M 76.105469 67.71875 C 75.148438 66.449219 74.378906 65.542969 74.121094 64.332031 C 74.960938 65.191406 75.855469 66.019531 76.105469 67.71875 Z M 75.605469 71.613281 C 74.578125 70.523438 74.386719 70.132812 73.921875 68.144531 C 75.085938 69.136719 75.4375 70.308594 75.605469 71.613281 Z M 75.003906 77.527344 C 74.308594 75.59375 73.707031 73.660156 73.054688 71.742188 C 74.207031 73.5 75.308594 75.273438 75.003906 77.527344 Z M 70.554688 33.699219 C 71.375 33.164062 72.289062 33.042969 73.476562 32.996094 C 72.53125 34.109375 71.570312 34.023438 70.554688 33.699219 Z M 71.34375 35.667969 C 72.550781 34.667969 73.695312 34.847656 74.898438 34.28125 C 73.53125 35.539062 73.496094 35.554688 71.34375 35.667969 Z M 76.003906 39.296875 C 76.921875 38.457031 76.921875 38.457031 79.578125 38.027344 C 78.625 39.09375 77.355469 38.917969 76.003906 39.296875 Z M 75.773438 36.890625 C 76.511719 35.535156 77.921875 35.890625 79.011719 35.394531 C 78.242188 36.597656 76.855469 36.402344 75.773438 36.890625 Z M 73.941406 51.953125 C 75.640625 51.894531 77.011719 51.496094 78.65625 50.9375 C 76.621094 52.59375 75.59375 52.828125 73.941406 51.953125 Z M 76.605469 47.792969 C 77.832031 47.578125 79.050781 47.34375 80.277344 47.117188 C 79.238281 47.964844 78.039062 48.335938 76.828125 48.675781 C 76.472656 48.777344 76.074219 48.703125 76.03125 48.234375 C 76 47.882812 76.3125 47.84375 76.605469 47.792969 Z M 22.285156 66.921875 C 22.253906 66.921875 22.226562 66.925781 22.199219 66.925781 C 22.203125 66.910156 22.214844 66.898438 22.222656 66.882812 C 22.222656 66.882812 22.289062 66.925781 22.285156 66.921875 Z M 21.269531 67.773438 C 21.238281 67.039062 21.6875 66.941406 22.199219 66.925781 C 22.019531 67.320312 21.667969 67.53125 21.269531 67.773438 Z M 14.980469 70.808594 C 14.992188 70.800781 15.003906 70.796875 15.015625 70.792969 C 15.023438 70.808594 15.023438 70.828125 15.035156 70.847656 C 15.035156 70.847656 14.984375 70.808594 14.980469 70.808594 Z M 15.800781 69.980469 C 15.703125 70.160156 15.632812 70.367188 15.496094 70.507812 C 15.371094 70.636719 15.183594 70.703125 15.015625 70.792969 C 14.941406 70.601562 15 70.433594 15.152344 70.300781 C 15.335938 70.140625 15.464844 69.84375 15.800781 69.980469 Z M 26.578125 75.085938 C 26.554688 75.105469 26.53125 75.125 26.507812 75.144531 C 26.507812 75.113281 26.515625 75.085938 26.515625 75.054688 L 26.546875 75.070312 C 26.53125 75.0625 26.519531 75.054688 26.519531 75.058594 C 26.554688 75.058594 26.578125 75.050781 26.609375 75.050781 C 26.597656 75.0625 26.585938 75.074219 26.578125 75.085938 Z M 26.609375 75.050781 C 27.183594 74.539062 27.472656 73.617188 28.488281 73.734375 C 27.714844 73.945312 27.554688 75.074219 26.609375 75.050781 Z M 28.523438 73.734375 C 28.511719 73.730469 28.503906 73.734375 28.488281 73.734375 C 28.5 73.730469 28.503906 73.726562 28.515625 73.722656 C 28.507812 73.71875 28.527344 73.734375 28.523438 73.734375 Z M 24.210938 65.253906 C 24.175781 65.261719 24.144531 65.269531 24.113281 65.277344 C 24.125 65.257812 24.140625 65.242188 24.152344 65.222656 C 24.144531 65.21875 24.214844 65.257812 24.210938 65.253906 Z M 22.300781 66.839844 C 22.390625 65.734375 23.210938 65.460938 24.113281 65.277344 C 23.660156 65.972656 23.027344 66.460938 22.300781 66.839844 Z M 22.289062 66.925781 L 22.222656 66.882812 C 22.25 66.867188 22.273438 66.851562 22.300781 66.839844 C 22.296875 66.867188 22.289062 66.894531 22.289062 66.925781 Z M 12.550781 72.894531 C 12.625 72.871094 12.6875 72.832031 12.761719 72.808594 C 12.710938 72.84375 12.664062 72.886719 12.613281 72.917969 C 12.613281 72.917969 12.542969 72.890625 12.550781 72.894531 Z M 14.984375 70.808594 L 15.035156 70.847656 C 15 70.851562 14.972656 70.867188 14.941406 70.875 C 14.953125 70.851562 14.96875 70.832031 14.984375 70.808594 Z M 14.941406 70.875 C 14.445312 71.785156 13.742188 72.457031 12.761719 72.808594 C 13.539062 72.222656 13.878906 71.128906 14.941406 70.875 Z M 11.324219 68.183594 C 10.804688 68.804688 10.289062 69.421875 9.488281 70.375 C 9.636719 68.878906 10.648438 68.636719 11.324219 68.183594 Z M 18.105469 60.453125 C 19.113281 59.613281 20.117188 58.773438 21.707031 58.367188 C 20.660156 59.695312 19.320312 59.96875 18.105469 60.453125 Z M 21.875 79.273438 C 23.417969 77.898438 24.964844 76.523438 26.507812 75.144531 C 26.484375 76.082031 25.699219 76.476562 25.125 77.03125 C 24.171875 77.957031 23.125 78.746094 21.875 79.273438 Z M 14.023438 68.832031 C 12.6875 70.164062 11.125 71.242188 9.777344 72.597656 C 10.796875 70.914062 12.285156 69.726562 14.023438 68.832031 Z M 21.492188 68.589844 C 21.082031 69.921875 19.925781 70.640625 18.976562 71.53125 C 19.179688 69.992188 20.332031 69.292969 21.492188 68.589844 Z M 14.101562 63.351562 C 12.421875 64.59375 10.742188 65.832031 9.042969 67.085938 C 9.652344 65.875 11.058594 64.796875 14.101562 63.351562 Z M 6.875 42.371094 C 6.882812 42.34375 6.882812 42.324219 6.886719 42.300781 C 6.894531 42.304688 6.902344 42.308594 6.914062 42.316406 C 6.914062 42.316406 6.871094 42.378906 6.875 42.371094 Z M 6.886719 42.300781 C 6.511719 42.035156 5.980469 41.910156 5.996094 41.136719 C 6.5 41.453125 7.007812 41.621094 6.886719 42.300781 Z M 10.972656 25.597656 C 10.972656 25.625 10.984375 25.644531 10.984375 25.671875 C 10.964844 25.667969 10.953125 25.660156 10.933594 25.65625 C 10.933594 25.65625 10.976562 25.59375 10.972656 25.597656 Z M 11.800781 26.378906 C 11.339844 26.316406 11.003906 26.136719 10.984375 25.671875 C 11.425781 25.738281 11.554688 26.113281 11.800781 26.378906 Z M 17.535156 50.074219 C 17.535156 50.074219 17.542969 50.082031 17.542969 50.082031 C 17.503906 50.085938 17.464844 50.09375 17.425781 50.101562 C 17.460938 50.089844 17.5 50.089844 17.535156 50.074219 Z M 15.070312 49.964844 C 15.824219 49.75 16.507812 50.1875 17.183594 50.144531 C 16.507812 50.304688 15.820312 50.6875 15.070312 49.964844 Z M 14.738281 46.320312 C 14.796875 46.320312 14.847656 46.335938 14.90625 46.332031 C 14.90625 46.332031 14.863281 46.390625 14.859375 46.394531 C 14.820312 46.367188 14.78125 46.34375 14.738281 46.320312 Z M 13.304688 45.472656 C 13.78125 45.757812 14.257812 46.039062 14.738281 46.320312 C 14.140625 46.300781 13.679688 45.972656 13.304688 45.472656 Z M 18.09375 25.171875 C 19.195312 25.3125 19.710938 25.777344 20.316406 26.171875 C 19.46875 26.453125 19.46875 26.453125 18.09375 25.171875 Z M 18.070312 33.515625 C 16.933594 33.089844 16.121094 32.085938 14.980469 31.738281 C 16.496094 31.570312 17.359375 32.417969 18.070312 33.515625 Z M 18.804688 30.839844 C 17.617188 30.640625 17.617188 30.640625 15.652344 28.859375 C 17.148438 29.035156 17.847656 29.988281 18.804688 30.839844 Z M 16.726562 26.640625 C 18.28125 26.84375 19.183594 27.59375 20.292969 28.589844 C 19.171875 28.882812 18.824219 28.230469 18.394531 27.859375 C 17.9375 27.464844 17.207031 27.464844 16.726562 26.640625 Z M 4.46875 37.242188 C 5.679688 38.074219 6.726562 39.082031 7.609375 40.261719 C 6.144531 39.695312 5.394531 38.375 4.46875 37.242188 Z M 3.90625 32.824219 C 5.382812 34.050781 6.316406 35.78125 7.820312 36.980469 C 5.949219 36.117188 4.773438 34.609375 3.90625 32.824219 Z M 43.527344 18.03125 C 42.886719 16.871094 42.886719 16.871094 43.253906 14.097656 C 43.671875 15.421875 43.492188 16.675781 43.527344 18.03125 Z M 40.148438 14.035156 C 40.355469 15.140625 40.558594 16.222656 40.804688 17.539062 C 39.746094 16.199219 39.746094 16.199219 40.148438 14.035156 Z M 37.652344 15.007812 C 37.769531 16.015625 38.320312 16.996094 37.976562 18.269531 C 36.539062 17.105469 37.421875 16.035156 37.652344 15.007812 Z M 55.625 17.523438 C 55.253906 16.199219 55.074219 14.867188 55.402344 13.113281 C 55.796875 14.828125 56.152344 16.148438 55.625 17.523438 Z M 57.621094 17.378906 C 57.445312 15.710938 56.867188 14.054688 57.226562 12.328125 C 57.75 13.964844 58.121094 15.617188 57.621094 17.378906 Z M 49.496094 15.28125 C 49.480469 15.171875 49.757812 14.964844 49.933594 14.917969 C 50.140625 14.859375 50.453125 15.042969 50.40625 15.21875 C 50.066406 16.488281 50.824219 17.828125 50.226562 19.316406 C 49.007812 17.960938 49.636719 16.550781 49.496094 15.28125 Z M 59.628906 49.917969 C 62.515625 49.480469 65.355469 48.21875 68.328125 49.300781 C 65.464844 50.15625 62.566406 50.367188 59.628906 49.917969 Z M 89.242188 44.679688 C 87.109375 49.515625 83.53125 52.636719 78.191406 53.515625 C 76.191406 53.84375 74.390625 54.773438 72.480469 55.371094 C 68.136719 56.726562 64.253906 56.082031 59.546875 53.242188 C 63.847656 52.800781 67.832031 53.09375 72.078125 51.703125 C 67.640625 52.359375 63.667969 52.371094 59.683594 51.789062 C 63.746094 50.9375 67.722656 49.695312 71.925781 49.726562 C 71.292969 49.242188 70.316406 49.113281 69.746094 48.375 C 69.902344 47.710938 70.519531 47.851562 70.953125 47.769531 C 72.578125 47.457031 74.164062 47.03125 75.6875 46.390625 C 76.242188 46.15625 76.972656 45.984375 76.828125 45.097656 C 74.578125 45.835938 72.632812 47.320312 70.125 47.492188 C 67.722656 47.660156 65.328125 47.617188 62.582031 47.847656 C 63.386719 46.503906 64.335938 46.03125 65.402344 46.234375 C 67.101562 46.558594 68.480469 46.070312 69.796875 45.09375 C 71.234375 44.027344 72.636719 42.914062 74.660156 43.367188 C 75.058594 43.457031 75.597656 43.074219 76.03125 42.839844 C 76.46875 42.605469 76.824219 42.179688 77.277344 42.015625 C 79.398438 41.257812 81.589844 40.703125 83.472656 39.359375 C 83.789062 39.132812 84.191406 39.195312 84.597656 39.277344 C 85.488281 38.9375 86.410156 38.675781 87.351562 38.488281 C 87.359375 38.488281 87.363281 38.488281 87.371094 38.488281 C 87.277344 38.253906 87.105469 38.117188 86.742188 38.199219 C 84.890625 38.609375 82.875 38.386719 81.285156 39.78125 C 80.703125 40.292969 79.941406 40.5625 79.105469 40.574219 C 78.453125 40.582031 77.875 40.867188 77.3125 41.226562 C 76.003906 42.058594 74.769531 43.027344 72.984375 42.679688 C 72.253906 42.539062 71.539062 43.199219 70.859375 43.609375 C 67.8125 45.441406 64.40625 45.734375 60.964844 45.839844 C 60.863281 45.84375 60.753906 45.675781 60.449219 45.425781 C 63.996094 44.277344 67.574219 43.585938 70.816406 41.980469 C 68.042969 42.320312 65.535156 43.976562 62.351562 43.558594 C 64.933594 40.542969 68.859375 41.402344 71.550781 39.460938 C 68.464844 40.234375 65.335938 41.023438 62.207031 41.808594 C 64.984375 39.097656 68.949219 39.339844 72.492188 37.4375 C 67.902344 38.734375 63.453125 39.074219 59.542969 41.34375 C 60.03125 40.257812 60.03125 40.257812 63.402344 38.523438 C 64.882812 37.757812 66.5 37.269531 68.230469 36.105469 C 65.15625 37.285156 62.457031 38.316406 59.757812 39.347656 C 61.347656 37.421875 63.832031 37.148438 65.804688 35.871094 C 65.355469 35.59375 65 35.882812 64.691406 36.070312 C 64.304688 36.304688 63.941406 36.46875 63.488281 36.328125 C 64.554688 34.394531 66.632812 33.195312 71.40625 31.652344 C 68.921875 32.085938 66.574219 32.984375 64.402344 34.207031 C 62.246094 35.421875 60.46875 37.253906 57.898438 38.660156 C 59.761719 33.75 63.019531 31.742188 67.625 30.570312 C 73.308594 29.125 78.34375 30.285156 83.457031 32.320312 C 85.019531 32.941406 86.304688 33.980469 87.492188 35.105469 C 89.644531 37.144531 90.453125 41.929688 89.242188 44.679688 Z M 75.414062 59.808594 C 76.390625 61.453125 77.582031 62.949219 77.957031 64.945312 C 78.199219 66.238281 78.285156 67.523438 78.160156 68.769531 C 77.785156 72.492188 77.804688 76.355469 75.265625 79.503906 C 74.925781 79.929688 74.785156 80.570312 73.9375 80.667969 C 73 78.363281 72.054688 76.027344 71.109375 73.691406 C 71.203125 75.847656 72.019531 77.773438 72.679688 79.742188 C 73.25 81.441406 73.160156 81.753906 71.746094 82.882812 C 69.925781 77.421875 66.777344 72.730469 63.585938 68.046875 C 63.5 68.824219 63.851562 69.441406 64.261719 70.054688 C 66.554688 73.511719 68.515625 77.144531 70.023438 81.011719 C 70.097656 81.207031 70.265625 81.371094 70.34375 81.566406 C 70.527344 82.015625 70.433594 82.449219 70.027344 82.695312 C 69.660156 82.910156 69.34375 82.628906 69.113281 82.355469 C 68.136719 81.214844 67.1875 80.054688 66.210938 78.914062 C 65.632812 78.242188 65.28125 77.386719 64.132812 76.523438 C 65.472656 78.652344 66.546875 80.367188 67.625 82.082031 C 64.429688 81.074219 61.90625 79.011719 59.03125 77.5625 C 59.710938 78.734375 61.261719 78.992188 61.871094 80.484375 C 59.972656 80.144531 58.164062 79.921875 56.582031 78.945312 C 54.398438 77.601562 52.164062 76.355469 50.222656 74.621094 C 48.675781 73.238281 47.585938 71.65625 46.886719 69.742188 C 46.546875 68.804688 46.113281 67.898438 45.726562 66.976562 C 45.183594 65.691406 45.1875 65.691406 46.324219 64.117188 C 46.617188 64.628906 46.917969 65.074219 47.136719 65.558594 C 48.160156 67.800781 49.851562 69.492188 51.640625 71.113281 C 51.695312 71.164062 51.859375 71.097656 51.984375 71.070312 C 51.109375 69.632812 50.210938 68.207031 49.367188 66.75 C 48.90625 65.957031 48.753906 65.070312 48.789062 64.15625 C 50.179688 64.929688 50.636719 66.496094 51.679688 67.585938 C 53.621094 69.613281 55.378906 71.816406 57.476562 74.253906 C 55.488281 69.828125 52.859375 66.144531 51.90625 61.695312 C 53.078125 62.550781 54.019531 63.542969 54.824219 64.683594 C 55.523438 65.667969 56.253906 66.628906 57.03125 67.554688 C 57.421875 68.019531 57.835938 68.554688 58.574219 68.484375 C 57.074219 66.660156 56.003906 64.582031 54.941406 62.496094 C 54.820312 62.25 54.597656 61.976562 54.871094 61.730469 C 55.195312 61.429688 55.546875 61.558594 55.800781 61.84375 C 56.515625 62.640625 57.246094 63.414062 57.828125 64.324219 C 58.667969 65.644531 59.390625 67.042969 60.4375 68.226562 C 60.820312 68.65625 60.589844 69.632812 61.8125 69.285156 C 62.289062 69.148438 62.167969 70.726562 63.320312 71.035156 C 61.605469 66.542969 58.761719 62.828125 56.5625 58.738281 C 59.628906 60.261719 61.292969 63.28125 63.925781 65.214844 C 63.777344 64.984375 63.636719 64.746094 63.472656 64.527344 C 63.296875 64.296875 63.109375 63.992188 63.316406 63.800781 C 63.441406 63.683594 63.824219 63.835938 64.089844 63.867188 C 62.992188 62.183594 61.621094 60.726562 60.226562 59.300781 C 58.976562 58.023438 58.058594 56.523438 56.8125 54.683594 C 59.492188 55.695312 61.257812 57.339844 63 58.878906 C 64.800781 60.464844 66.277344 62.421875 68 64.164062 C 67.28125 62.960938 67.382812 61.332031 66.3125 60.414062 C 65.214844 59.476562 64.566406 58.265625 63.34375 57.023438 C 65.101562 56.96875 66.519531 57.445312 67.949219 57.242188 C 68.585938 57.152344 69.238281 57.195312 69.875 57.113281 C 72.414062 56.796875 74.113281 57.617188 75.414062 59.808594 Z M 67.957031 84.609375 C 66.371094 85.0625 64.777344 84.699219 63.277344 84.355469 C 58.636719 83.308594 54.328125 81.472656 50.625 78.402344 C 49.679688 77.617188 49.675781 77.625 49.15625 75.792969 C 51.792969 77.65625 54.082031 79.414062 56.671875 80.816406 C 59.667969 82.433594 62.792969 83.0625 66.085938 83.328125 C 66.726562 83.378906 67.371094 83.425781 68.007812 83.527344 C 68.277344 83.566406 68.558594 83.707031 68.535156 84.078125 C 68.515625 84.4375 68.21875 84.535156 67.957031 84.609375 Z M 45.523438 54.25 C 45.921875 54.207031 46.050781 54.472656 46.164062 54.722656 C 46.820312 56.125 47.464844 57.53125 48.113281 58.9375 C 48.332031 59.402344 48.214844 59.742188 47.761719 59.976562 C 47.324219 60.199219 47.140625 59.9375 46.957031 59.597656 C 46.15625 58.101562 45.589844 56.523438 45.214844 54.875 C 45.160156 54.625 45.175781 54.304688 45.523438 54.25 Z M 48.75 64.066406 C 48.152344 63.800781 48.101562 63.289062 48.15625 62.675781 C 48.921875 62.9375 48.761719 63.53125 48.75 64.066406 Z M 52.929688 67.875 C 50.980469 66.25 49.707031 64.238281 49.390625 61.683594 C 51.027344 63.488281 51.972656 65.683594 52.929688 67.875 Z M 51.730469 58.742188 C 50.199219 59.527344 49.472656 58.6875 48.941406 57.746094 C 47.894531 55.894531 46.941406 53.984375 45.980469 52.082031 C 45.515625 51.15625 45.125 50.195312 44.832031 49.175781 C 47.976562 51.777344 49.277344 55.621094 51.730469 58.742188 Z M 43.808594 48.132812 C 43.675781 48.003906 43.578125 47.949219 43.582031 47.90625 C 43.746094 46.070312 43.0625 44.46875 42.191406 42.921875 C 41.0625 40.917969 41.027344 38.558594 40.097656 36.484375 C 39.992188 36.253906 40.074219 35.9375 40.070312 35.679688 C 40.703125 35.46875 40.921875 35.863281 41.039062 36.269531 C 41.792969 38.882812 43.246094 41.175781 44.4375 43.585938 C 44.835938 44.398438 45.1875 45.160156 44.550781 45.949219 C 44.035156 46.585938 44.792969 47.566406 43.808594 48.132812 Z M 43.511719 51.523438 C 43.105469 50.835938 43.039062 50.214844 43.609375 49.402344 C 44.46875 50.269531 44.871094 50.941406 43.511719 51.523438 Z M 42.382812 67.648438 C 42.269531 66.292969 42.867188 65.699219 43.496094 64.753906 C 43.839844 66.101562 43.285156 66.757812 42.382812 67.648438 Z M 41.683594 63.640625 C 42.199219 62.378906 41.527344 61.1875 41.375 59.980469 C 41.261719 59.0625 41.054688 58.25 42.082031 57.828125 C 42.945312 57.476562 42.289062 56.664062 42.917969 55.871094 C 43.414062 58.613281 43.535156 61.003906 42.339844 63.320312 C 42.25 63.492188 41.929688 63.550781 41.683594 63.640625 Z M 40.640625 67.34375 C 39.949219 69.15625 38.671875 70.585938 37.179688 71.816406 C 37.707031 71.023438 37.597656 70.082031 37.828125 69.214844 C 37.261719 70.078125 36.613281 70.902344 36.699219 72.011719 C 36.859375 71.945312 37.019531 71.882812 37.179688 71.820312 C 37.019531 71.882812 36.859375 71.945312 36.699219 72.011719 C 35.753906 72.394531 35.464844 73.355469 34.886719 74.0625 C 33.941406 75.226562 33.019531 76.410156 30.875 76.527344 C 32.425781 74.425781 33.457031 72.371094 35.027344 70.648438 C 36.304688 69.246094 37.539062 67.804688 38.792969 66.382812 C 38.707031 67.089844 38.589844 67.792969 38.417969 68.472656 C 38.398438 68.550781 38.496094 68.589844 38.535156 68.519531 C 39.105469 67.4375 39.636719 66.382812 39.996094 65.210938 C 40.152344 64.703125 40.320312 64.164062 40.386719 63.628906 C 40.710938 63.308594 41.140625 63.445312 41.597656 63.6875 C 41.285156 64.910156 41.085938 66.171875 40.640625 67.34375 Z M 38.902344 75.171875 C 33.769531 80.398438 27.441406 83.035156 20.238281 83.761719 C 19.042969 83.878906 17.816406 84.070312 16.621094 83.6875 C 16.347656 83.597656 16.046875 83.53125 16.101562 83.152344 C 16.148438 82.824219 16.425781 82.667969 16.707031 82.660156 C 17.992188 82.625 19.230469 82.390625 20.492188 82.167969 C 23.0625 81.71875 24.910156 79.894531 27.289062 79.132812 C 28.652344 78.691406 30.070312 78.539062 31.425781 78.019531 C 34.539062 76.824219 36.894531 74.707031 39.082031 72.328125 C 39.550781 71.8125 39.871094 71.136719 40.894531 71.105469 C 40.785156 72.863281 39.984375 74.066406 38.902344 75.171875 Z M 14.582031 80.484375 C 13.988281 81.09375 13.328125 81.652344 12.640625 82.15625 C 12.222656 82.457031 11.6875 82.503906 11.234375 82.152344 C 10.660156 81.707031 11.089844 81.238281 11.273438 80.820312 C 11.65625 79.953125 12.308594 79.300781 13.054688 78.71875 C 14.347656 77.710938 15.609375 76.664062 16.878906 75.628906 C 17.289062 75.296875 17.675781 74.863281 17.242188 74.375 C 16.824219 73.910156 16.21875 74.113281 15.960938 74.570312 C 14.558594 77.054688 11.539062 78 10.257812 80.59375 C 9.910156 81.292969 9.445312 80.96875 9.105469 80.523438 C 8.492188 79.726562 8.605469 78.921875 9.175781 78.164062 C 10.203125 76.796875 10.964844 75.238281 12.148438 73.976562 C 12.414062 73.691406 12.765625 73.417969 12.570312 72.957031 C 10.800781 74.386719 9.914062 76.578125 8.210938 78.160156 C 7.042969 76.933594 6.640625 75.445312 6.378906 74.027344 C 5.699219 70.394531 5.09375 66.734375 5.417969 62.996094 C 5.492188 62.109375 5.601562 61.257812 6.089844 60.554688 C 8.507812 57.097656 11.375 54.351562 16.050781 54.59375 C 17.253906 54.652344 18.441406 54.601562 19.65625 54.820312 C 20.996094 55.058594 22.367188 54.683594 23.628906 54.113281 C 24.078125 53.914062 24.488281 53.582031 25.117188 53.828125 C 23.945312 54.914062 22.402344 55.066406 21.082031 55.683594 C 19.597656 56.378906 17.988281 56.804688 16.59375 57.707031 C 16.355469 57.859375 16.0625 58.109375 15.832031 58.070312 C 13.113281 57.636719 11.902344 60.136719 9.835938 60.957031 C 14.019531 59.535156 17.933594 57.480469 22.125 56.101562 C 22.871094 55.859375 23.632812 55.660156 24.375 55.40625 C 25.042969 55.175781 25.058594 56.601562 25.914062 55.957031 C 26.421875 55.574219 27.039062 55.332031 28.09375 55.539062 C 25.253906 57.726562 22.234375 59.289062 19.578125 62.035156 C 22.851562 60.59375 24.9375 57.734375 28.429688 57.605469 C 26.617188 59.640625 23.925781 60.679688 22.371094 63.003906 C 24.472656 61.4375 26.828125 60.328125 29.164062 59.140625 C 28.242188 60.949219 26.519531 62.019531 25.3125 63.542969 C 24.902344 64.0625 24.183594 64.382812 24.21875 65.183594 C 25.535156 64.59375 26.28125 63.316406 27.425781 62.53125 C 28.601562 61.726562 29.542969 60.464844 31.382812 60.414062 C 30.796875 61.828125 30.371094 63.007812 28.75 63.3125 C 27.945312 63.464844 27.21875 64.027344 26.25 64.503906 C 26.835938 64.910156 27.453125 64.335938 27.777344 64.699219 C 28.105469 65.324219 27.128906 65.492188 27.488281 66.195312 C 28.867188 64.960938 30.207031 63.746094 31.570312 62.558594 C 31.914062 62.257812 32.324219 61.660156 32.8125 62.1875 C 33.277344 62.691406 32.667969 63.121094 32.363281 63.421875 C 31.148438 64.617188 29.902344 65.785156 28.84375 67.128906 C 28.558594 67.492188 28.09375 67.828125 28.429688 68.398438 L 34.941406 61.9375 C 35.175781 63.339844 34.542969 64.363281 33.875 65.210938 C 32.347656 67.164062 31.078125 69.351562 29.167969 70.96875 C 28.1875 71.796875 28.332031 72.703125 28.519531 73.699219 C 29.863281 71.65625 31.046875 69.5 32.808594 67.757812 C 33.210938 67.359375 33.429688 66.558594 34.332031 67.042969 C 34.71875 67.25 34.96875 66.773438 35.117188 66.488281 C 35.804688 65.164062 37.003906 64.648438 38.65625 64.25 C 38.324219 65.480469 37.8125 66.453125 37.132812 67.273438 C 34.8125 70.078125 32.648438 72.996094 30.5 75.929688 C 29.980469 76.640625 29.457031 77.535156 28.191406 77.320312 C 28.390625 75.855469 30.035156 75.367188 30.429688 73.71875 C 26.363281 78.332031 22.09375 82.070312 15.3125 81.578125 C 17.105469 79.207031 19.601562 78.082031 21.296875 76.0625 C 19.027344 77.5 16.507812 78.527344 14.582031 80.484375 Z M 4.917969 46.585938 C 2.300781 43.707031 1.28125 40.203125 1.773438 36.328125 C 1.941406 34.988281 2.203125 33.667969 2.636719 32.367188 C 3.109375 30.949219 3.226562 29.449219 3.054688 27.929688 C 2.917969 26.726562 3.167969 26.550781 4.371094 26.917969 C 6.238281 27.488281 7.734375 28.597656 8.992188 30.03125 C 9.480469 30.296875 9.96875 30.566406 10.460938 30.828125 C 10.253906 30.578125 10.042969 30.332031 9.835938 30.085938 C 8.625 29.054688 7.339844 28.105469 6.09375 27.117188 C 5.878906 26.949219 5.851562 26.714844 5.9375 26.539062 C 5.789062 26.480469 5.65625 26.40625 5.5 26.359375 C 4.757812 26.132812 4.160156 25.785156 4.417969 24.84375 C 4.746094 23.625 5.484375 23.050781 6.546875 23.222656 C 7.796875 23.425781 8.773438 24.171875 9.742188 24.90625 C 10.109375 25.179688 10.347656 25.65625 10.894531 25.601562 C 9.863281 23.898438 8.027344 23.210938 6.300781 22.203125 C 7.496094 20.796875 8.792969 21.632812 10.027344 21.636719 C 11.398438 21.640625 12.726562 21.632812 14.097656 22.238281 C 13.90625 21.550781 13.144531 21.597656 12.863281 20.964844 C 13.921875 20.320312 15.140625 20.378906 16.277344 20.367188 C 22.433594 20.316406 27.292969 23.035156 31.273438 27.535156 C 31.96875 29.957031 34.082031 31.648438 34.699219 34.160156 C 32.613281 32.683594 30.773438 30.964844 28.777344 28.980469 C 29.320312 30.863281 30.875 31.558594 31.800781 32.757812 C 32.191406 33.261719 33.394531 33.574219 32.820312 34.289062 C 32.238281 35.011719 31.589844 34.074219 31.085938 33.636719 C 29.039062 31.855469 27 30.066406 24.984375 28.253906 C 24.410156 27.738281 23.777344 27.367188 23.046875 27.101562 C 25.796875 29.269531 28.15625 31.8125 30.523438 34.347656 C 30.816406 34.660156 31.09375 34.988281 31.34375 35.335938 C 31.546875 35.613281 31.433594 35.878906 31.175781 36.0625 C 30.953125 36.222656 30.71875 36.082031 30.609375 35.929688 C 28.667969 33.253906 25.257812 32.410156 23.132812 29.949219 C 23.84375 31.074219 24.707031 32.03125 25.722656 32.867188 C 26.386719 33.40625 26.980469 34.03125 27.589844 34.632812 C 28.042969 35.085938 27.859375 35.574219 27.542969 35.980469 C 27.171875 36.460938 26.761719 36.136719 26.429688 35.890625 C 25.453125 35.171875 24.503906 34.421875 23.453125 33.765625 C 24.515625 36.035156 26.863281 37.140625 28.484375 38.945312 C 26.824219 38.871094 25.472656 38.097656 24.179688 37.28125 C 22.910156 36.480469 21.753906 35.507812 20.558594 34.59375 C 20.234375 34.347656 19.972656 33.835938 19.5 34.234375 C 18.910156 34.730469 19.453125 35.125 19.742188 35.492188 C 20.757812 36.777344 21.683594 38.144531 23.027344 39.144531 C 23.40625 39.425781 24.042969 39.753906 23.609375 40.300781 C 23.222656 40.785156 22.703125 40.273438 22.273438 40.085938 C 20.800781 39.449219 19.703125 38.285156 18.445312 37.351562 C 17.472656 36.628906 16.53125 35.863281 15.542969 35.164062 C 15.238281 34.945312 14.84375 34.738281 14.175781 34.902344 C 15.714844 36.925781 18.152344 37.40625 19.730469 38.988281 C 21.371094 40.636719 23.429688 41.648438 25.488281 42.828125 C 23.992188 43.136719 23.992188 43.136719 19.667969 40.546875 C 21.078125 42.113281 22.871094 43.253906 24.464844 44.679688 C 20.570312 44.171875 16.855469 43.242188 13.5 41.160156 C 17.019531 44.4375 21.886719 44.71875 26.242188 46.75 C 24.703125 47.734375 23.628906 46.667969 22.488281 46.429688 C 21.246094 46.171875 20.117188 45.578125 18.890625 45.226562 C 20.0625 46.144531 21.234375 47.0625 22.460938 48.019531 C 21.132812 48.484375 19.933594 47.960938 18.726562 47.613281 C 17.476562 47.261719 16.34375 46.546875 15.023438 46.410156 C 17.828125 48.398438 21.007812 49.226562 24.574219 49.28125 C 23.039062 50.507812 22.035156 50.222656 17.535156 50.074219 L 17.542969 50.082031 C 20.425781 51.652344 23.398438 50.988281 26.480469 50.40625 C 26.507812 51.285156 26.167969 51.847656 25.386719 52.25 C 23.894531 53.011719 22.308594 53.433594 20.65625 53.484375 C 19.695312 53.515625 18.71875 53.542969 17.988281 52.515625 C 17.453125 51.757812 16.410156 51.695312 15.449219 51.644531 C 11.242188 51.421875 7.703125 49.652344 4.917969 46.585938 Z M 39.167969 31.691406 C 38.992188 31.039062 39.121094 30.5625 39.679688 30.40625 C 40.480469 30.179688 40.796875 30.761719 41 31.390625 C 41.167969 31.90625 41.097656 32.4375 40.503906 32.566406 C 39.765625 32.730469 39.355469 32.246094 39.167969 31.691406 Z M 37.238281 40.523438 C 37.199219 39.992188 37.589844 39.796875 38.039062 39.761719 C 38.589844 39.71875 39.050781 39.90625 39.046875 40.535156 C 39.046875 41.003906 38.710938 41.273438 38.242188 41.347656 C 37.664062 41.363281 37.28125 41.105469 37.238281 40.523438 Z M 40.871094 46.378906 C 37.558594 45.210938 34.214844 44.308594 30.808594 42.449219 C 32.742188 42.003906 33.957031 43.355469 35.585938 43.179688 C 35.03125 41.378906 33.324219 40.835938 32.195312 39.75 C 31.097656 38.691406 29.578125 38.070312 28.71875 36.609375 C 29.320312 36.300781 29.597656 36.667969 29.867188 36.925781 C 30.765625 37.800781 31.894531 38.347656 33.039062 38.675781 C 34.878906 39.199219 36.148438 40.320312 37.222656 41.804688 C 38.144531 43.085938 39.289062 44.171875 40.492188 45.191406 C 40.761719 45.414062 41.09375 45.601562 40.871094 46.378906 Z M 30.8125 45.703125 C 29.820312 45.363281 28.777344 45.179688 27.75 44.742188 C 29.148438 44.261719 30.554688 43.554688 32.011719 44.253906 C 33.675781 45.054688 35.421875 45.621094 37.574219 46.414062 C 34.078125 47.542969 29.417969 48.382812 28.097656 48.09375 C 29.066406 47.480469 30.132812 47.515625 30.910156 46.917969 C 31.539062 46.433594 31.558594 45.953125 30.8125 45.703125 Z M 31.859375 53.082031 C 31.472656 53.382812 31.214844 53.804688 30.613281 53.785156 C 29.9375 53.757812 29.226562 54.675781 28.632812 54.023438 C 27.96875 53.296875 28.578125 52.585938 29.121094 51.988281 C 29.34375 51.742188 29.378906 51.363281 29.160156 51.222656 C 27.9375 50.453125 28.933594 49.941406 29.394531 49.503906 C 30.507812 48.445312 32.058594 48.332031 33.4375 49.207031 C 34.417969 49.828125 34.921875 49.582031 35.761719 48.765625 C 37.082031 47.476562 38.855469 46.859375 40.796875 47.117188 C 40.894531 47.128906 40.96875 47.328125 41.113281 47.515625 C 37.496094 48.527344 34.71875 50.871094 31.859375 53.082031 Z M 37.433594 52.777344 C 36.34375 53.015625 35.46875 54.28125 34.515625 55.105469 C 34.085938 55.480469 33.730469 55.941406 33.277344 56.277344 C 32.875 56.570312 32.511719 57.21875 31.847656 56.585938 C 31.265625 56.03125 31.28125 55.417969 31.652344 54.847656 C 32.160156 54.070312 32.796875 53.339844 33.644531 52.949219 C 35.429688 52.128906 37.261719 51.414062 39.398438 50.519531 C 38.796875 51.632812 38.792969 52.484375 37.433594 52.777344 Z M 38.097656 57.011719 C 38.179688 58.617188 37.625 60.066406 37 61.503906 C 36.117188 59.707031 37.640625 58.488281 38.097656 57.011719 Z M 37.472656 55.171875 C 37.425781 55.992188 37.210938 56.683594 36.558594 57.199219 C 36.585938 58.136719 36.269531 58.886719 35.222656 59.589844 C 35.304688 58.390625 35.804688 57.722656 36.4375 57.117188 C 36.105469 56.167969 35.914062 55.285156 37.472656 55.171875 Z M 41.144531 56.441406 C 41.152344 57.035156 40.816406 57.359375 40.253906 57.414062 C 39.863281 57.453125 39.554688 57.214844 39.527344 56.808594 C 39.492188 56.285156 39.878906 56.078125 40.324219 55.976562 C 40.722656 55.886719 41.015625 56.015625 41.144531 56.441406 Z M 40.382812 55.207031 C 39.941406 54.722656 39.476562 55.03125 38.867188 55.140625 C 39.152344 53.207031 40.410156 51.894531 40.429688 50.152344 C 40.433594 49.753906 41 49.320312 41.5625 49.359375 C 42.121094 49.394531 42.238281 49.894531 42.207031 50.300781 C 42.078125 51.78125 41.9375 53.265625 41.683594 54.730469 C 41.566406 55.410156 41.121094 56.011719 40.382812 55.207031 Z M 44.824219 38.863281 C 44.839844 39.332031 44.542969 39.636719 44.066406 39.757812 C 43.367188 39.613281 43.253906 39.050781 43.242188 38.480469 C 43.238281 38.074219 43.296875 37.492188 43.8125 37.519531 C 44.566406 37.554688 44.808594 38.199219 44.824219 38.863281 Z M 52.570312 35.636719 C 53.113281 37.351562 52.578125 38.769531 51.269531 40.28125 C 50.511719 38.199219 51.691406 36.960938 52.570312 35.636719 Z M 48.449219 36.972656 C 48.539062 37.765625 47.828125 38.65625 47.464844 39.5 C 46.957031 40.6875 46.433594 41.875 45.808594 43.304688 C 45.125 41.925781 45.75 40.910156 45.863281 39.902344 C 46.15625 37.285156 46.734375 34.71875 47.515625 32.195312 C 47.664062 31.71875 47.679688 31.144531 48.394531 31.25 C 49.09375 31.351562 49.109375 31.917969 48.972656 32.402344 C 48.554688 33.902344 48.265625 35.363281 48.449219 36.972656 Z M 56.265625 43.765625 C 53.589844 43.875 51.035156 44.578125 48.515625 45.394531 C 46.929688 45.90625 46.710938 46.804688 47.703125 48.492188 C 46.59375 48.265625 45.800781 47.769531 45.136719 46.835938 C 46.582031 45.589844 47.480469 43.894531 48.613281 42.367188 C 49.742188 40.84375 50.300781 40.667969 51.710938 41.929688 C 52.605469 42.730469 53.101562 42.5 53.875 41.941406 C 54.964844 41.15625 54.996094 41.195312 56.484375 40.980469 C 56.46875 42.019531 54.910156 41.789062 55.257812 42.640625 C 55.605469 43.492188 56.535156 42.847656 57.199219 42.925781 C 57.742188 42.988281 58.335938 42.839844 58.96875 43.289062 C 58.050781 43.796875 57.144531 43.730469 56.265625 43.765625 Z M 56.1875 48.738281 C 55.984375 48.230469 56.332031 47.949219 56.773438 47.8125 C 57.28125 47.65625 57.578125 47.914062 57.71875 48.324219 C 57.839844 48.800781 57.648438 49.085938 57.261719 49.183594 C 56.820312 49.292969 56.371094 49.199219 56.1875 48.738281 Z M 53.886719 50.074219 C 55.371094 49.667969 56.148438 50.136719 57.171875 50.503906 C 55.933594 51.148438 55.105469 50.636719 53.886719 50.074219 Z M 54.363281 55.597656 C 53.78125 55.6875 53.417969 55.328125 53.355469 54.78125 C 53.316406 54.421875 53.550781 54.117188 53.949219 54.035156 C 54.519531 53.917969 54.871094 54.183594 55.054688 54.578125 C 55.09375 55.210938 54.820312 55.527344 54.363281 55.597656 Z M 53.675781 56.667969 C 54.3125 56.792969 54.703125 57.121094 54.550781 57.976562 C 54.355469 57.960938 54.273438 57.976562 54.214844 57.949219 C 53.761719 57.730469 53.269531 57.515625 53.207031 56.949219 C 53.183594 56.746094 53.457031 56.625 53.675781 56.667969 Z M 48.800781 46.949219 C 48.8125 46.484375 49.234375 46.46875 49.550781 46.351562 C 50.152344 46.136719 50.746094 45.914062 51.351562 45.71875 C 51.964844 45.527344 52.5 45.355469 53.023438 46.078125 C 53.652344 46.945312 54.933594 46.410156 55.730469 47.042969 C 55.191406 48.773438 55.191406 48.785156 53.605469 48.542969 C 52.207031 48.332031 50.773438 48.269531 49.453125 47.699219 C 49.128906 47.5625 48.789062 47.363281 48.800781 46.949219 Z M 48.535156 48.816406 C 50.332031 49.117188 51.832031 49.371094 53.703125 49.6875 C 51.863281 51.019531 50.910156 50.835938 48.535156 48.816406 Z M 52.425781 56.449219 C 50.289062 54.777344 49.019531 52.628906 47.507812 50.191406 C 49.847656 50.695312 51.214844 52.066406 52.617188 53.375 C 52.808594 53.554688 52.726562 53.785156 52.625 53.957031 C 52.183594 54.6875 52.585938 55.476562 52.425781 56.449219 Z M 36.382812 11.832031 C 37.007812 10.546875 37.640625 9.265625 38.324219 8.011719 C 39.195312 6.417969 40.445312 5.214844 42.332031 4.351562 C 42.203125 5.84375 41.195312 6.9375 41.5625 8.34375 C 42.054688 7.199219 42.636719 6.085938 43.015625 4.910156 C 43.453125 3.566406 44.457031 3 45.675781 2.695312 C 47.292969 2.292969 48.117188 2.882812 48.132812 4.550781 C 48.148438 5.925781 48.378906 7.214844 48.824219 8.515625 C 49.226562 9.691406 48.675781 11.054688 49.453125 12.554688 C 50.113281 10.777344 49.84375 9.253906 49.367188 7.882812 C 48.824219 6.308594 48.996094 4.777344 49.117188 3.238281 C 49.222656 1.847656 49.632812 1.773438 50.953125 2.089844 C 52.792969 2.527344 53.421875 3.988281 54.128906 5.414062 C 54.859375 6.898438 55.1875 8.511719 55.679688 10.097656 L 54.640625 4.539062 C 55.167969 4.175781 55.496094 4.40625 55.730469 4.640625 C 58.296875 7.203125 61.1875 9.527344 61.957031 13.386719 C 62.179688 14.492188 62.726562 15.53125 63.082031 16.617188 C 63.867188 19.011719 64.230469 21.472656 64.132812 23.996094 C 64.117188 24.425781 64.054688 24.820312 63.878906 25.234375 C 62.453125 28.589844 60.792969 31.789062 58.28125 34.507812 C 57.617188 35.226562 57.160156 36.160156 56.707031 37.042969 C 56.238281 37.953125 55.570312 38.640625 54.699219 39.210938 C 55.554688 36.601562 57.554688 34.5625 58.316406 31.921875 C 59.066406 29.335938 59.304688 26.667969 59.496094 23.992188 C 58.457031 26.789062 57.421875 29.589844 56.386719 32.390625 C 56.203125 32.34375 56.023438 32.296875 55.839844 32.253906 C 56.25 28.917969 57.429688 25.652344 56.988281 22.289062 C 56.640625 22.949219 56.746094 23.746094 56.621094 24.503906 C 56.40625 25.777344 56.738281 27.273438 55.292969 28.148438 C 54.941406 28.363281 55.03125 28.925781 54.980469 29.351562 C 54.875 30.285156 54.554688 31.152344 54.054688 31.949219 C 53.996094 32.042969 53.816406 32.121094 53.695312 32.113281 C 53.46875 32.097656 53.316406 31.941406 53.316406 31.699219 C 53.320312 30.851562 53.851562 30.0625 53.574219 29.066406 C 53.148438 30.125 52.753906 31.09375 52.359375 32.066406 C 51.878906 29.898438 52.675781 27.855469 52.789062 25.808594 C 50.695312 25.898438 51.578125 27.988281 50.632812 29.238281 C 50.113281 26.519531 51.113281 23.988281 50.15625 21.132812 C 49.210938 22.960938 50.113281 24.375 49.949219 25.761719 C 49.78125 27.167969 49.769531 28.59375 49.230469 30.136719 C 47.625 28.160156 48.894531 25.785156 47.890625 23.824219 C 48.105469 26.664062 47.304688 29.292969 46.425781 31.933594 C 45.617188 28.808594 45.914062 25.589844 45.183594 22.476562 C 45.074219 24.875 45.445312 27.28125 45.1875 29.886719 C 43.914062 29.039062 44.214844 27.785156 43.828125 26.761719 C 42.902344 29.511719 44.09375 32.273438 43.820312 35.046875 C 41.558594 31.214844 41.769531 26.734375 40.367188 22.566406 C 40.527344 24.59375 40.839844 26.472656 41.222656 28.34375 C 41.355469 28.992188 41.429688 29.636719 40.574219 29.914062 C 39.65625 30.214844 39.339844 29.707031 38.996094 28.964844 C 38.324219 27.515625 38.261719 25.910156 37.484375 24.015625 C 37.828125 26.128906 37.707031 27.835938 38.339844 29.457031 C 38.492188 29.84375 38.566406 30.292969 38.550781 30.707031 C 38.539062 31.054688 38.3125 31.441406 37.957031 31.53125 C 37.507812 31.640625 37.339844 31.21875 37.269531 30.886719 C 36.96875 29.417969 36.707031 27.945312 36.402344 26.300781 C 35.886719 27.179688 36.925781 27.976562 36.148438 28.714844 C 35.691406 29.148438 35.835938 29.503906 36.125 30.855469 C 36.300781 31.683594 36.851562 32.414062 36.765625 33.640625 C 34.910156 31.152344 33.578125 28.742188 33.390625 25.871094 C 33.066406 20.921875 34.234375 16.265625 36.382812 11.832031 Z M 91.800781 37.929688 C 90.230469 35.652344 88.777344 33.386719 86.175781 31.949219 C 82.464844 29.898438 78.515625 28.726562 74.398438 28.148438 C 72.695312 27.90625 70.886719 28.113281 69.113281 28.699219 C 67.488281 29.242188 65.757812 29.714844 64.046875 29.800781 C 63.785156 29.371094 64.0625 29.152344 64.136719 28.894531 C 64.785156 26.667969 65.859375 24.640625 65.601562 22.097656 C 64.933594 15.523438 63.210938 9.527344 58.238281 4.804688 C 55.832031 2.519531 52.886719 1.292969 49.855469 0.175781 C 49.59375 0.0820312 49.265625 0 49.011719 0.0703125 C 47.09375 0.59375 45.058594 0.898438 43.304688 1.769531 C 39.882812 3.46875 37.222656 6.019531 35.925781 9.765625 C 35.625 10.632812 35.183594 11.457031 34.75 12.269531 C 33.386719 14.824219 32.5625 17.527344 32.265625 20.40625 C 32.09375 22.046875 31.808594 23.675781 31.539062 25.566406 C 30.441406 24.628906 29.578125 23.890625 28.714844 23.148438 C 24.464844 19.523438 19.453125 18.527344 14.050781 19.03125 C 12.628906 19.164062 11.226562 19.449219 9.78125 19.476562 C 6.664062 19.542969 3.996094 20.394531 2.914062 23.789062 C 2.671875 24.542969 2.011719 25.03125 1.242188 25.359375 C 0.449219 25.695312 0.34375 26.25 1.019531 26.832031 C 1.835938 27.535156 1.808594 28.410156 1.703125 29.375 C 1.492188 31.230469 1.039062 33.027344 0.621094 34.835938 C 0.0234375 37.445312 0.117188 39.945312 0.949219 42.59375 C 2.457031 47.394531 5.660156 50.242188 10.210938 51.898438 C 11.140625 52.238281 12.0625 52.601562 13.539062 53.164062 C 10.992188 53.808594 9.28125 54.988281 7.796875 56.425781 C 6.167969 58 4.457031 59.558594 4.15625 62.039062 C 3.617188 66.429688 4.40625 70.691406 5.191406 74.972656 C 5.691406 77.699219 7.492188 79.875 8.117188 82.535156 C 8.257812 83.140625 8.839844 83.503906 9.585938 83.601562 C 11.496094 83.84375 13.371094 84.199219 15.179688 84.957031 C 16.140625 85.359375 17.253906 85.476562 18.34375 85.457031 C 24.765625 85.347656 30.542969 83.402344 35.84375 79.773438 C 38.917969 77.671875 40.980469 75.101562 41.464844 71.351562 C 41.671875 69.773438 42.875 68.832031 44.179688 67.539062 C 44.875 70.761719 46.246094 73.378906 47.445312 76.074219 C 48.640625 78.773438 50.535156 80.746094 52.96875 81.769531 C 55.96875 83.039062 58.6875 85.042969 62.0625 85.46875 C 64.25 85.746094 66.390625 86.25 68.558594 85.394531 C 69.421875 85.050781 70.328125 84.785156 71.238281 84.59375 C 72.558594 84.320312 73.699219 83.664062 74.566406 82.726562 C 76.269531 80.886719 77.574219 78.761719 78.589844 76.457031 C 79.335938 74.757812 78.996094 72.941406 79.292969 71.199219 C 79.792969 68.277344 79.992188 65.363281 78.6875 62.597656 C 77.660156 60.417969 76.679688 58.167969 74.535156 56.765625 C 74.269531 56.59375 74.171875 56.34375 74.324219 55.953125 C 76.332031 55.40625 78.394531 54.839844 80.457031 54.285156 C 83.085938 53.574219 85.339844 52.113281 87.191406 50.257812 C 88.578125 48.867188 89.464844 46.976562 90.53125 45.28125 C 90.828125 44.808594 90.96875 44.265625 91.007812 43.664062 C 91.105469 42.183594 91.144531 40.667969 91.9375 39.324219 C 92.226562 38.832031 92.113281 38.382812 91.800781 37.929688 " fill-opacity="1" fill-rule="nonzero"/><path fill="#141212" d="M 45.578125 11.25 C 45.210938 9.6875 45 7.90625 45.71875 6.410156 C 45.804688 6.230469 46.078125 6.28125 46.0625 6.492188 C 45.960938 8.097656 45.574219 9.609375 45.683594 11.234375 C 45.6875 11.300781 45.59375 11.320312 45.578125 11.25 Z M 41.183594 11.449219 C 41.316406 10.589844 41.570312 9.683594 42.082031 8.96875 C 42.125 8.910156 42.226562 8.960938 42.195312 9.027344 C 41.796875 9.824219 41.425781 10.570312 41.246094 11.453125 C 41.238281 11.492188 41.175781 11.488281 41.183594 11.449219 Z M 38.695312 12.667969 C 38.96875 11.539062 39.175781 10.332031 39.773438 9.324219 C 39.839844 9.214844 40.019531 9.289062 40.003906 9.410156 C 39.851562 10.570312 39.269531 11.648438 38.792969 12.703125 C 38.765625 12.765625 38.679688 12.730469 38.695312 12.667969 Z M 16.382812 22.1875 C 16.402344 22.09375 16.425781 22.003906 16.449219 21.910156 C 16.519531 21.617188 16.894531 21.421875 17.179688 21.457031 C 18.742188 21.671875 20.179688 22.925781 21.539062 23.675781 C 23.390625 24.703125 25.207031 25.78125 26.941406 26.996094 C 26.953125 27.003906 26.941406 27.019531 26.929688 27.011719 C 25.1875 25.851562 23.363281 24.695312 21.398438 23.941406 C 20.277344 23.507812 19.074219 23.058594 17.882812 22.898438 C 17.371094 22.828125 17.058594 22.910156 16.613281 22.699219 C 16.398438 22.601562 16.328125 22.410156 16.382812 22.1875 Z M 14.195312 24.464844 C 13.800781 24.328125 13.386719 24.320312 12.996094 24.207031 C 12.921875 24.183594 12.9375 24.074219 13.007812 24.0625 C 13.886719 23.921875 14.933594 24.578125 15.535156 25.148438 C 15.578125 25.1875 15.511719 25.261719 15.464844 25.222656 C 15.09375 24.898438 14.667969 24.625 14.195312 24.464844 Z M 12.84375 48.421875 C 12.609375 48.367188 12.371094 48.328125 12.132812 48.285156 C 12.375 48.3125 12.617188 48.332031 12.855469 48.332031 C 12.914062 48.332031 12.902344 48.433594 12.84375 48.421875 Z M 9.8125 47.695312 C 10.210938 47.84375 10.636719 47.976562 11.066406 48.082031 C 10.628906 48.007812 10.191406 47.933594 9.761719 47.828125 C 8.871094 47.621094 7.699219 47.53125 7.027344 46.878906 C 6.882812 46.734375 7.039062 46.476562 7.230469 46.5 C 8.148438 46.628906 8.933594 47.371094 9.8125 47.695312 Z M 8.394531 45.761719 C 7.621094 45.609375 6.867188 45.320312 6.171875 44.953125 C 5.605469 44.65625 4.980469 44.195312 4.632812 43.648438 C 4.421875 43.316406 4.949219 43.027344 5.195312 43.292969 C 5.445312 43.5625 5.636719 43.875 5.84375 44.175781 C 6.011719 44.414062 6.398438 44.6875 6.625 44.867188 C 7.160156 45.285156 7.75 45.542969 8.402344 45.71875 C 8.425781 45.726562 8.417969 45.765625 8.394531 45.761719 Z M 76.105469 67.71875 C 75.148438 66.449219 74.378906 65.542969 74.121094 64.332031 C 74.960938 65.191406 75.855469 66.019531 76.105469 67.71875 Z M 75.605469 71.613281 C 74.578125 70.523438 74.386719 70.132812 73.921875 68.144531 C 75.085938 69.136719 75.4375 70.308594 75.605469 71.613281 Z M 75.003906 77.527344 C 74.308594 75.59375 73.707031 73.660156 73.054688 71.742188 C 74.207031 73.5 75.308594 75.273438 75.003906 77.527344 Z M 70.554688 33.699219 C 71.375 33.164062 72.289062 33.042969 73.476562 32.996094 C 72.53125 34.109375 71.570312 34.023438 70.554688 33.699219 Z M 71.34375 35.667969 C 72.550781 34.667969 73.695312 34.847656 74.898438 34.28125 C 73.53125 35.539062 73.496094 35.554688 71.34375 35.667969 Z M 76.003906 39.296875 C 76.921875 38.457031 76.921875 38.457031 79.578125 38.027344 C 78.625 39.09375 77.355469 38.917969 76.003906 39.296875 Z M 75.773438 36.890625 C 76.511719 35.535156 77.921875 35.890625 79.011719 35.394531 C 78.242188 36.597656 76.855469 36.402344 75.773438 36.890625 Z M 73.941406 51.953125 C 75.640625 51.894531 77.011719 51.496094 78.65625 50.9375 C 76.621094 52.59375 75.59375 52.828125 73.941406 51.953125 Z M 76.605469 47.792969 C 77.832031 47.578125 79.050781 47.34375 80.277344 47.117188 C 79.238281 47.964844 78.039062 48.335938 76.828125 48.675781 C 76.472656 48.777344 76.074219 48.703125 76.03125 48.234375 C 76 47.882812 76.3125 47.84375 76.605469 47.792969 Z M 22.285156 66.921875 C 22.253906 66.921875 22.226562 66.925781 22.199219 66.925781 C 22.203125 66.910156 22.214844 66.898438 22.222656 66.882812 C 22.222656 66.882812 22.289062 66.925781 22.285156 66.921875 Z M 21.269531 67.773438 C 21.238281 67.039062 21.6875 66.941406 22.199219 66.925781 C 22.019531 67.320312 21.667969 67.53125 21.269531 67.773438 Z M 14.980469 70.808594 C 14.992188 70.800781 15.003906 70.796875 15.015625 70.792969 C 15.023438 70.808594 15.023438 70.828125 15.035156 70.847656 C 15.035156 70.847656 14.984375 70.808594 14.980469 70.808594 Z M 15.800781 69.980469 C 15.703125 70.160156 15.632812 70.367188 15.496094 70.507812 C 15.371094 70.636719 15.183594 70.703125 15.015625 70.792969 C 14.941406 70.601562 15 70.433594 15.152344 70.300781 C 15.335938 70.140625 15.464844 69.84375 15.800781 69.980469 Z M 26.578125 75.085938 C 26.554688 75.105469 26.53125 75.125 26.507812 75.144531 C 26.507812 75.113281 26.515625 75.085938 26.515625 75.054688 L 26.546875 75.070312 C 26.53125 75.0625 26.519531 75.054688 26.519531 75.058594 C 26.554688 75.058594 26.578125 75.050781 26.609375 75.050781 C 26.597656 75.0625 26.585938 75.074219 26.578125 75.085938 Z M 26.609375 75.050781 C 27.183594 74.539062 27.472656 73.617188 28.488281 73.734375 C 27.714844 73.945312 27.554688 75.074219 26.609375 75.050781 Z M 28.523438 73.734375 C 28.511719 73.730469 28.503906 73.734375 28.488281 73.734375 C 28.5 73.730469 28.503906 73.726562 28.515625 73.722656 C 28.507812 73.71875 28.527344 73.734375 28.523438 73.734375 Z M 24.210938 65.253906 C 24.175781 65.261719 24.144531 65.269531 24.113281 65.277344 C 24.125 65.257812 24.140625 65.242188 24.152344 65.222656 C 24.144531 65.21875 24.214844 65.257812 24.210938 65.253906 Z M 22.300781 66.839844 C 22.390625 65.734375 23.210938 65.460938 24.113281 65.277344 C 23.660156 65.972656 23.027344 66.460938 22.300781 66.839844 Z M 22.289062 66.925781 L 22.222656 66.882812 C 22.25 66.867188 22.273438 66.851562 22.300781 66.839844 C 22.296875 66.867188 22.289062 66.894531 22.289062 66.925781 Z M 12.550781 72.894531 C 12.625 72.871094 12.6875 72.832031 12.761719 72.808594 C 12.710938 72.84375 12.664062 72.886719 12.613281 72.917969 C 12.613281 72.917969 12.542969 72.890625 12.550781 72.894531 Z M 14.984375 70.808594 L 15.035156 70.847656 C 15 70.851562 14.972656 70.867188 14.941406 70.875 C 14.953125 70.851562 14.96875 70.832031 14.984375 70.808594 Z M 14.941406 70.875 C 14.445312 71.785156 13.742188 72.457031 12.761719 72.808594 C 13.539062 72.222656 13.878906 71.128906 14.941406 70.875 Z M 11.324219 68.183594 C 10.804688 68.804688 10.289062 69.421875 9.488281 70.375 C 9.636719 68.878906 10.648438 68.636719 11.324219 68.183594 Z M 18.105469 60.453125 C 19.113281 59.613281 20.117188 58.773438 21.707031 58.367188 C 20.660156 59.695312 19.320312 59.96875 18.105469 60.453125 Z M 21.875 79.273438 C 23.417969 77.898438 24.964844 76.523438 26.507812 75.144531 C 26.484375 76.082031 25.699219 76.476562 25.125 77.03125 C 24.171875 77.957031 23.125 78.746094 21.875 79.273438 Z M 14.023438 68.832031 C 12.6875 70.164062 11.125 71.242188 9.777344 72.597656 C 10.796875 70.914062 12.285156 69.726562 14.023438 68.832031 Z M 21.492188 68.589844 C 21.082031 69.921875 19.925781 70.640625 18.976562 71.53125 C 19.179688 69.992188 20.332031 69.292969 21.492188 68.589844 Z M 14.101562 63.351562 C 12.421875 64.59375 10.742188 65.832031 9.042969 67.085938 C 9.652344 65.875 11.058594 64.796875 14.101562 63.351562 Z M 6.875 42.371094 C 6.882812 42.34375 6.882812 42.324219 6.886719 42.300781 C 6.894531 42.304688 6.902344 42.308594 6.914062 42.316406 C 6.914062 42.316406 6.871094 42.378906 6.875 42.371094 Z M 6.886719 42.300781 C 6.511719 42.035156 5.980469 41.910156 5.996094 41.136719 C 6.5 41.453125 7.007812 41.621094 6.886719 42.300781 Z M 10.972656 25.597656 C 10.972656 25.625 10.984375 25.644531 10.984375 25.671875 C 10.964844 25.667969 10.953125 25.660156 10.933594 25.65625 C 10.933594 25.65625 10.976562 25.59375 10.972656 25.597656 Z M 11.800781 26.378906 C 11.339844 26.316406 11.003906 26.136719 10.984375 25.671875 C 11.425781 25.738281 11.554688 26.113281 11.800781 26.378906 Z M 17.535156 50.074219 C 17.535156 50.074219 17.542969 50.082031 17.542969 50.082031 C 17.503906 50.085938 17.464844 50.09375 17.425781 50.101562 C 17.460938 50.089844 17.5 50.089844 17.535156 50.074219 Z M 15.070312 49.964844 C 15.824219 49.75 16.507812 50.1875 17.183594 50.144531 C 16.507812 50.304688 15.820312 50.6875 15.070312 49.964844 Z M 14.738281 46.320312 C 14.796875 46.320312 14.847656 46.335938 14.90625 46.332031 C 14.90625 46.332031 14.863281 46.390625 14.859375 46.394531 C 14.820312 46.367188 14.78125 46.34375 14.738281 46.320312 Z M 13.304688 45.472656 C 13.78125 45.757812 14.257812 46.039062 14.738281 46.320312 C 14.140625 46.300781 13.679688 45.972656 13.304688 45.472656 Z M 18.09375 25.171875 C 19.195312 25.3125 19.710938 25.777344 20.316406 26.171875 C 19.46875 26.453125 19.46875 26.453125 18.09375 25.171875 Z M 18.070312 33.515625 C 16.933594 33.089844 16.121094 32.085938 14.980469 31.738281 C 16.496094 31.570312 17.359375 32.417969 18.070312 33.515625 Z M 18.804688 30.839844 C 17.617188 30.640625 17.617188 30.640625 15.652344 28.859375 C 17.148438 29.035156 17.847656 29.988281 18.804688 30.839844 Z M 16.726562 26.640625 C 18.28125 26.84375 19.183594 27.59375 20.292969 28.589844 C 19.171875 28.882812 18.824219 28.230469 18.394531 27.859375 C 17.9375 27.464844 17.207031 27.464844 16.726562 26.640625 Z M 4.46875 37.242188 C 5.679688 38.074219 6.726562 39.082031 7.609375 40.261719 C 6.144531 39.695312 5.394531 38.375 4.46875 37.242188 Z M 3.90625 32.824219 C 5.382812 34.050781 6.316406 35.78125 7.820312 36.980469 C 5.949219 36.117188 4.773438 34.609375 3.90625 32.824219 Z M 43.527344 18.03125 C 42.886719 16.871094 42.886719 16.871094 43.253906 14.097656 C 43.671875 15.421875 43.492188 16.675781 43.527344 18.03125 Z M 40.148438 14.035156 C 40.355469 15.140625 40.558594 16.222656 40.804688 17.539062 C 39.746094 16.199219 39.746094 16.199219 40.148438 14.035156 Z M 37.652344 15.007812 C 37.769531 16.015625 38.320312 16.996094 37.976562 18.269531 C 36.539062 17.105469 37.421875 16.035156 37.652344 15.007812 Z M 55.625 17.523438 C 55.253906 16.199219 55.074219 14.867188 55.402344 13.113281 C 55.796875 14.828125 56.152344 16.148438 55.625 17.523438 Z M 57.621094 17.378906 C 57.445312 15.710938 56.867188 14.054688 57.226562 12.328125 C 57.75 13.964844 58.121094 15.617188 57.621094 17.378906 Z M 49.496094 15.28125 C 49.480469 15.171875 49.757812 14.964844 49.933594 14.917969 C 50.140625 14.859375 50.453125 15.042969 50.40625 15.21875 C 50.066406 16.488281 50.824219 17.828125 50.226562 19.316406 C 49.007812 17.960938 49.636719 16.550781 49.496094 15.28125 Z M 59.628906 49.917969 C 62.515625 49.480469 65.355469 48.21875 68.328125 49.300781 C 65.464844 50.15625 62.566406 50.367188 59.628906 49.917969 Z M 89.242188 44.679688 C 87.109375 49.515625 83.53125 52.636719 78.191406 53.515625 C 76.191406 53.84375 74.390625 54.773438 72.480469 55.371094 C 68.136719 56.726562 64.253906 56.082031 59.546875 53.242188 C 63.847656 52.800781 67.832031 53.09375 72.078125 51.703125 C 67.640625 52.359375 63.667969 52.371094 59.683594 51.789062 C 63.746094 50.9375 67.722656 49.695312 71.925781 49.726562 C 71.292969 49.242188 70.316406 49.113281 69.746094 48.375 C 69.902344 47.710938 70.519531 47.851562 70.953125 47.769531 C 72.578125 47.457031 74.164062 47.03125 75.6875 46.390625 C 76.242188 46.15625 76.972656 45.984375 76.828125 45.097656 C 74.578125 45.835938 72.632812 47.320312 70.125 47.492188 C 67.722656 47.660156 65.328125 47.617188 62.582031 47.847656 C 63.386719 46.503906 64.335938 46.03125 65.402344 46.234375 C 67.101562 46.558594 68.480469 46.070312 69.796875 45.09375 C 71.234375 44.027344 72.636719 42.914062 74.660156 43.367188 C 75.058594 43.457031 75.597656 43.074219 76.03125 42.839844 C 76.46875 42.605469 76.824219 42.179688 77.277344 42.015625 C 79.398438 41.257812 81.589844 40.703125 83.472656 39.359375 C 83.789062 39.132812 84.191406 39.195312 84.597656 39.277344 C 85.488281 38.9375 86.410156 38.675781 87.351562 38.488281 C 87.359375 38.488281 87.363281 38.488281 87.371094 38.488281 C 87.277344 38.253906 87.105469 38.117188 86.742188 38.199219 C 84.890625 38.609375 82.875 38.386719 81.285156 39.78125 C 80.703125 40.292969 79.941406 40.5625 79.105469 40.574219 C 78.453125 40.582031 77.875 40.867188 77.3125 41.226562 C 76.003906 42.058594 74.769531 43.027344 72.984375 42.679688 C 72.253906 42.539062 71.539062 43.199219 70.859375 43.609375 C 67.8125 45.441406 64.40625 45.734375 60.964844 45.839844 C 60.863281 45.84375 60.753906 45.675781 60.449219 45.425781 C 63.996094 44.277344 67.574219 43.585938 70.816406 41.980469 C 68.042969 42.320312 65.535156 43.976562 62.351562 43.558594 C 64.933594 40.542969 68.859375 41.402344 71.550781 39.460938 C 68.464844 40.234375 65.335938 41.023438 62.207031 41.808594 C 64.984375 39.097656 68.949219 39.339844 72.492188 37.4375 C 67.902344 38.734375 63.453125 39.074219 59.542969 41.34375 C 60.03125 40.257812 60.03125 40.257812 63.402344 38.523438 C 64.882812 37.757812 66.5 37.269531 68.230469 36.105469 C 65.15625 37.285156 62.457031 38.316406 59.757812 39.347656 C 61.347656 37.421875 63.832031 37.148438 65.804688 35.871094 C 65.355469 35.59375 65 35.882812 64.691406 36.070312 C 64.304688 36.304688 63.941406 36.46875 63.488281 36.328125 C 64.554688 34.394531 66.632812 33.195312 71.40625 31.652344 C 68.921875 32.085938 66.574219 32.984375 64.402344 34.207031 C 62.246094 35.421875 60.46875 37.253906 57.898438 38.660156 C 59.761719 33.75 63.019531 31.742188 67.625 30.570312 C 73.308594 29.125 78.34375 30.285156 83.457031 32.320312 C 85.019531 32.941406 86.304688 33.980469 87.492188 35.105469 C 89.644531 37.144531 90.453125 41.929688 89.242188 44.679688 Z M 75.414062 59.808594 C 76.390625 61.453125 77.582031 62.949219 77.957031 64.945312 C 78.199219 66.238281 78.285156 67.523438 78.160156 68.769531 C 77.785156 72.492188 77.804688 76.355469 75.265625 79.503906 C 74.925781 79.929688 74.785156 80.570312 73.9375 80.667969 C 73 78.363281 72.054688 76.027344 71.109375 73.691406 C 71.203125 75.847656 72.019531 77.773438 72.679688 79.742188 C 73.25 81.441406 73.160156 81.753906 71.746094 82.882812 C 69.925781 77.421875 66.777344 72.730469 63.585938 68.046875 C 63.5 68.824219 63.851562 69.441406 64.261719 70.054688 C 66.554688 73.511719 68.515625 77.144531 70.023438 81.011719 C 70.097656 81.207031 70.265625 81.371094 70.34375 81.566406 C 70.527344 82.015625 70.433594 82.449219 70.027344 82.695312 C 69.660156 82.910156 69.34375 82.628906 69.113281 82.355469 C 68.136719 81.214844 67.1875 80.054688 66.210938 78.914062 C 65.632812 78.242188 65.28125 77.386719 64.132812 76.523438 C 65.472656 78.652344 66.546875 80.367188 67.625 82.082031 C 64.429688 81.074219 61.90625 79.011719 59.03125 77.5625 C 59.710938 78.734375 61.261719 78.992188 61.871094 80.484375 C 59.972656 80.144531 58.164062 79.921875 56.582031 78.945312 C 54.398438 77.601562 52.164062 76.355469 50.222656 74.621094 C 48.675781 73.238281 47.585938 71.65625 46.886719 69.742188 C 46.546875 68.804688 46.113281 67.898438 45.726562 66.976562 C 45.183594 65.691406 45.1875 65.691406 46.324219 64.117188 C 46.617188 64.628906 46.917969 65.074219 47.136719 65.558594 C 48.160156 67.800781 49.851562 69.492188 51.640625 71.113281 C 51.695312 71.164062 51.859375 71.097656 51.984375 71.070312 C 51.109375 69.632812 50.210938 68.207031 49.367188 66.75 C 48.90625 65.957031 48.753906 65.070312 48.789062 64.15625 C 50.179688 64.929688 50.636719 66.496094 51.679688 67.585938 C 53.621094 69.613281 55.378906 71.816406 57.476562 74.253906 C 55.488281 69.828125 52.859375 66.144531 51.90625 61.695312 C 53.078125 62.550781 54.019531 63.542969 54.824219 64.683594 C 55.523438 65.667969 56.253906 66.628906 57.03125 67.554688 C 57.421875 68.019531 57.835938 68.554688 58.574219 68.484375 C 57.074219 66.660156 56.003906 64.582031 54.941406 62.496094 C 54.820312 62.25 54.597656 61.976562 54.871094 61.730469 C 55.195312 61.429688 55.546875 61.558594 55.800781 61.84375 C 56.515625 62.640625 57.246094 63.414062 57.828125 64.324219 C 58.667969 65.644531 59.390625 67.042969 60.4375 68.226562 C 60.820312 68.65625 60.589844 69.632812 61.8125 69.285156 C 62.289062 69.148438 62.167969 70.726562 63.320312 71.035156 C 61.605469 66.542969 58.761719 62.828125 56.5625 58.738281 C 59.628906 60.261719 61.292969 63.28125 63.925781 65.214844 C 63.777344 64.984375 63.636719 64.746094 63.472656 64.527344 C 63.296875 64.296875 63.109375 63.992188 63.316406 63.800781 C 63.441406 63.683594 63.824219 63.835938 64.089844 63.867188 C 62.992188 62.183594 61.621094 60.726562 60.226562 59.300781 C 58.976562 58.023438 58.058594 56.523438 56.8125 54.683594 C 59.492188 55.695312 61.257812 57.339844 63 58.878906 C 64.800781 60.464844 66.277344 62.421875 68 64.164062 C 67.28125 62.960938 67.382812 61.332031 66.3125 60.414062 C 65.214844 59.476562 64.566406 58.265625 63.34375 57.023438 C 65.101562 56.96875 66.519531 57.445312 67.949219 57.242188 C 68.585938 57.152344 69.238281 57.195312 69.875 57.113281 C 72.414062 56.796875 74.113281 57.617188 75.414062 59.808594 Z M 67.957031 84.609375 C 66.371094 85.0625 64.777344 84.699219 63.277344 84.355469 C 58.636719 83.308594 54.328125 81.472656 50.625 78.402344 C 49.679688 77.617188 49.675781 77.625 49.15625 75.792969 C 51.792969 77.65625 54.082031 79.414062 56.671875 80.816406 C 59.667969 82.433594 62.792969 83.0625 66.085938 83.328125 C 66.726562 83.378906 67.371094 83.425781 68.007812 83.527344 C 68.277344 83.566406 68.558594 83.707031 68.535156 84.078125 C 68.515625 84.4375 68.21875 84.535156 67.957031 84.609375 Z M 45.523438 54.25 C 45.921875 54.207031 46.050781 54.472656 46.164062 54.722656 C 46.820312 56.125 47.464844 57.53125 48.113281 58.9375 C 48.332031 59.402344 48.214844 59.742188 47.761719 59.976562 C 47.324219 60.199219 47.140625 59.9375 46.957031 59.597656 C 46.15625 58.101562 45.589844 56.523438 45.214844 54.875 C 45.160156 54.625 45.175781 54.304688 45.523438 54.25 Z M 48.75 64.066406 C 48.152344 63.800781 48.101562 63.289062 48.15625 62.675781 C 48.921875 62.9375 48.761719 63.53125 48.75 64.066406 Z M 52.929688 67.875 C 50.980469 66.25 49.707031 64.238281 49.390625 61.683594 C 51.027344 63.488281 51.972656 65.683594 52.929688 67.875 Z M 51.730469 58.742188 C 50.199219 59.527344 49.472656 58.6875 48.941406 57.746094 C 47.894531 55.894531 46.941406 53.984375 45.980469 52.082031 C 45.515625 51.15625 45.125 50.195312 44.832031 49.175781 C 47.976562 51.777344 49.277344 55.621094 51.730469 58.742188 Z M 43.808594 48.132812 C 43.675781 48.003906 43.578125 47.949219 43.582031 47.90625 C 43.746094 46.070312 43.0625 44.46875 42.191406 42.921875 C 41.0625 40.917969 41.027344 38.558594 40.097656 36.484375 C 39.992188 36.253906 40.074219 35.9375 40.070312 35.679688 C 40.703125 35.46875 40.921875 35.863281 41.039062 36.269531 C 41.792969 38.882812 43.246094 41.175781 44.4375 43.585938 C 44.835938 44.398438 45.1875 45.160156 44.550781 45.949219 C 44.035156 46.585938 44.792969 47.566406 43.808594 48.132812 Z M 43.511719 51.523438 C 43.105469 50.835938 43.039062 50.214844 43.609375 49.402344 C 44.46875 50.269531 44.871094 50.941406 43.511719 51.523438 Z M 42.382812 67.648438 C 42.269531 66.292969 42.867188 65.699219 43.496094 64.753906 C 43.839844 66.101562 43.285156 66.757812 42.382812 67.648438 Z M 41.683594 63.640625 C 42.199219 62.378906 41.527344 61.1875 41.375 59.980469 C 41.261719 59.0625 41.054688 58.25 42.082031 57.828125 C 42.945312 57.476562 42.289062 56.664062 42.917969 55.871094 C 43.414062 58.613281 43.535156 61.003906 42.339844 63.320312 C 42.25 63.492188 41.929688 63.550781 41.683594 63.640625 Z M 40.640625 67.34375 C 39.949219 69.15625 38.671875 70.585938 37.179688 71.816406 C 37.707031 71.023438 37.597656 70.082031 37.828125 69.214844 C 37.261719 70.078125 36.613281 70.902344 36.699219 72.011719 C 36.859375 71.945312 37.019531 71.882812 37.179688 71.820312 C 37.019531 71.882812 36.859375 71.945312 36.699219 72.011719 C 35.753906 72.394531 35.464844 73.355469 34.886719 74.0625 C 33.941406 75.226562 33.019531 76.410156 30.875 76.527344 C 32.425781 74.425781 33.457031 72.371094 35.027344 70.648438 C 36.304688 69.246094 37.539062 67.804688 38.792969 66.382812 C 38.707031 67.089844 38.589844 67.792969 38.417969 68.472656 C 38.398438 68.550781 38.496094 68.589844 38.535156 68.519531 C 39.105469 67.4375 39.636719 66.382812 39.996094 65.210938 C 40.152344 64.703125 40.320312 64.164062 40.386719 63.628906 C 40.710938 63.308594 41.140625 63.445312 41.597656 63.6875 C 41.285156 64.910156 41.085938 66.171875 40.640625 67.34375 Z M 38.902344 75.171875 C 33.769531 80.398438 27.441406 83.035156 20.238281 83.761719 C 19.042969 83.878906 17.816406 84.070312 16.621094 83.6875 C 16.347656 83.597656 16.046875 83.53125 16.101562 83.152344 C 16.148438 82.824219 16.425781 82.667969 16.707031 82.660156 C 17.992188 82.625 19.230469 82.390625 20.492188 82.167969 C 23.0625 81.71875 24.910156 79.894531 27.289062 79.132812 C 28.652344 78.691406 30.070312 78.539062 31.425781 78.019531 C 34.539062 76.824219 36.894531 74.707031 39.082031 72.328125 C 39.550781 71.8125 39.871094 71.136719 40.894531 71.105469 C 40.785156 72.863281 39.984375 74.066406 38.902344 75.171875 Z M 14.582031 80.484375 C 13.988281 81.09375 13.328125 81.652344 12.640625 82.15625 C 12.222656 82.457031 11.6875 82.503906 11.234375 82.152344 C 10.660156 81.707031 11.089844 81.238281 11.273438 80.820312 C 11.65625 79.953125 12.308594 79.300781 13.054688 78.71875 C 14.347656 77.710938 15.609375 76.664062 16.878906 75.628906 C 17.289062 75.296875 17.675781 74.863281 17.242188 74.375 C 16.824219 73.910156 16.21875 74.113281 15.960938 74.570312 C 14.558594 77.054688 11.539062 78 10.257812 80.59375 C 9.910156 81.292969 9.445312 80.96875 9.105469 80.523438 C 8.492188 79.726562 8.605469 78.921875 9.175781 78.164062 C 10.203125 76.796875 10.964844 75.238281 12.148438 73.976562 C 12.414062 73.691406 12.765625 73.417969 12.570312 72.957031 C 10.800781 74.386719 9.914062 76.578125 8.210938 78.160156 C 7.042969 76.933594 6.640625 75.445312 6.378906 74.027344 C 5.699219 70.394531 5.09375 66.734375 5.417969 62.996094 C 5.492188 62.109375 5.601562 61.257812 6.089844 60.554688 C 8.507812 57.097656 11.375 54.351562 16.050781 54.59375 C 17.253906 54.652344 18.441406 54.601562 19.65625 54.820312 C 20.996094 55.058594 22.367188 54.683594 23.628906 54.113281 C 24.078125 53.914062 24.488281 53.582031 25.117188 53.828125 C 23.945312 54.914062 22.402344 55.066406 21.082031 55.683594 C 19.597656 56.378906 17.988281 56.804688 16.59375 57.707031 C 16.355469 57.859375 16.0625 58.109375 15.832031 58.070312 C 13.113281 57.636719 11.902344 60.136719 9.835938 60.957031 C 14.019531 59.535156 17.933594 57.480469 22.125 56.101562 C 22.871094 55.859375 23.632812 55.660156 24.375 55.40625 C 25.042969 55.175781 25.058594 56.601562 25.914062 55.957031 C 26.421875 55.574219 27.039062 55.332031 28.09375 55.539062 C 25.253906 57.726562 22.234375 59.289062 19.578125 62.035156 C 22.851562 60.59375 24.9375 57.734375 28.429688 57.605469 C 26.617188 59.640625 23.925781 60.679688 22.371094 63.003906 C 24.472656 61.4375 26.828125 60.328125 29.164062 59.140625 C 28.242188 60.949219 26.519531 62.019531 25.3125 63.542969 C 24.902344 64.0625 24.183594 64.382812 24.21875 65.183594 C 25.535156 64.59375 26.28125 63.316406 27.425781 62.53125 C 28.601562 61.726562 29.542969 60.464844 31.382812 60.414062 C 30.796875 61.828125 30.371094 63.007812 28.75 63.3125 C 27.945312 63.464844 27.21875 64.027344 26.25 64.503906 C 26.835938 64.910156 27.453125 64.335938 27.777344 64.699219 C 28.105469 65.324219 27.128906 65.492188 27.488281 66.195312 C 28.867188 64.960938 30.207031 63.746094 31.570312 62.558594 C 31.914062 62.257812 32.324219 61.660156 32.8125 62.1875 C 33.277344 62.691406 32.667969 63.121094 32.363281 63.421875 C 31.148438 64.617188 29.902344 65.785156 28.84375 67.128906 C 28.558594 67.492188 28.09375 67.828125 28.429688 68.398438 L 34.941406 61.9375 C 35.175781 63.339844 34.542969 64.363281 33.875 65.210938 C 32.347656 67.164062 31.078125 69.351562 29.167969 70.96875 C 28.1875 71.796875 28.332031 72.703125 28.519531 73.699219 C 29.863281 71.65625 31.046875 69.5 32.808594 67.757812 C 33.210938 67.359375 33.429688 66.558594 34.332031 67.042969 C 34.71875 67.25 34.96875 66.773438 35.117188 66.488281 C 35.804688 65.164062 37.003906 64.648438 38.65625 64.25 C 38.324219 65.480469 37.8125 66.453125 37.132812 67.273438 C 34.8125 70.078125 32.648438 72.996094 30.5 75.929688 C 29.980469 76.640625 29.457031 77.535156 28.191406 77.320312 C 28.390625 75.855469 30.035156 75.367188 30.429688 73.71875 C 26.363281 78.332031 22.09375 82.070312 15.3125 81.578125 C 17.105469 79.207031 19.601562 78.082031 21.296875 76.0625 C 19.027344 77.5 16.507812 78.527344 14.582031 80.484375 Z M 4.917969 46.585938 C 2.300781 43.707031 1.28125 40.203125 1.773438 36.328125 C 1.941406 34.988281 2.203125 33.667969 2.636719 32.367188 C 3.109375 30.949219 3.226562 29.449219 3.054688 27.929688 C 2.917969 26.726562 3.167969 26.550781 4.371094 26.917969 C 6.238281 27.488281 7.734375 28.597656 8.992188 30.03125 C 9.480469 30.296875 9.96875 30.566406 10.460938 30.828125 C 10.253906 30.578125 10.042969 30.332031 9.835938 30.085938 C 8.625 29.054688 7.339844 28.105469 6.09375 27.117188 C 5.878906 26.949219 5.851562 26.714844 5.9375 26.539062 C 5.789062 26.480469 5.65625 26.40625 5.5 26.359375 C 4.757812 26.132812 4.160156 25.785156 4.417969 24.84375 C 4.746094 23.625 5.484375 23.050781 6.546875 23.222656 C 7.796875 23.425781 8.773438 24.171875 9.742188 24.90625 C 10.109375 25.179688 10.347656 25.65625 10.894531 25.601562 C 9.863281 23.898438 8.027344 23.210938 6.300781 22.203125 C 7.496094 20.796875 8.792969 21.632812 10.027344 21.636719 C 11.398438 21.640625 12.726562 21.632812 14.097656 22.238281 C 13.90625 21.550781 13.144531 21.597656 12.863281 20.964844 C 13.921875 20.320312 15.140625 20.378906 16.277344 20.367188 C 22.433594 20.316406 27.292969 23.035156 31.273438 27.535156 C 31.96875 29.957031 34.082031 31.648438 34.699219 34.160156 C 32.613281 32.683594 30.773438 30.964844 28.777344 28.980469 C 29.320312 30.863281 30.875 31.558594 31.800781 32.757812 C 32.191406 33.261719 33.394531 33.574219 32.820312 34.289062 C 32.238281 35.011719 31.589844 34.074219 31.085938 33.636719 C 29.039062 31.855469 27 30.066406 24.984375 28.253906 C 24.410156 27.738281 23.777344 27.367188 23.046875 27.101562 C 25.796875 29.269531 28.15625 31.8125 30.523438 34.347656 C 30.816406 34.660156 31.09375 34.988281 31.34375 35.335938 C 31.546875 35.613281 31.433594 35.878906 31.175781 36.0625 C 30.953125 36.222656 30.71875 36.082031 30.609375 35.929688 C 28.667969 33.253906 25.257812 32.410156 23.132812 29.949219 C 23.84375 31.074219 24.707031 32.03125 25.722656 32.867188 C 26.386719 33.40625 26.980469 34.03125 27.589844 34.632812 C 28.042969 35.085938 27.859375 35.574219 27.542969 35.980469 C 27.171875 36.460938 26.761719 36.136719 26.429688 35.890625 C 25.453125 35.171875 24.503906 34.421875 23.453125 33.765625 C 24.515625 36.035156 26.863281 37.140625 28.484375 38.945312 C 26.824219 38.871094 25.472656 38.097656 24.179688 37.28125 C 22.910156 36.480469 21.753906 35.507812 20.558594 34.59375 C 20.234375 34.347656 19.972656 33.835938 19.5 34.234375 C 18.910156 34.730469 19.453125 35.125 19.742188 35.492188 C 20.757812 36.777344 21.683594 38.144531 23.027344 39.144531 C 23.40625 39.425781 24.042969 39.753906 23.609375 40.300781 C 23.222656 40.785156 22.703125 40.273438 22.273438 40.085938 C 20.800781 39.449219 19.703125 38.285156 18.445312 37.351562 C 17.472656 36.628906 16.53125 35.863281 15.542969 35.164062 C 15.238281 34.945312 14.84375 34.738281 14.175781 34.902344 C 15.714844 36.925781 18.152344 37.40625 19.730469 38.988281 C 21.371094 40.636719 23.429688 41.648438 25.488281 42.828125 C 23.992188 43.136719 23.992188 43.136719 19.667969 40.546875 C 21.078125 42.113281 22.871094 43.253906 24.464844 44.679688 C 20.570312 44.171875 16.855469 43.242188 13.5 41.160156 C 17.019531 44.4375 21.886719 44.71875 26.242188 46.75 C 24.703125 47.734375 23.628906 46.667969 22.488281 46.429688 C 21.246094 46.171875 20.117188 45.578125 18.890625 45.226562 C 20.0625 46.144531 21.234375 47.0625 22.460938 48.019531 C 21.132812 48.484375 19.933594 47.960938 18.726562 47.613281 C 17.476562 47.261719 16.34375 46.546875 15.023438 46.410156 C 17.828125 48.398438 21.007812 49.226562 24.574219 49.28125 C 23.039062 50.507812 22.035156 50.222656 17.535156 50.074219 L 17.542969 50.082031 C 20.425781 51.652344 23.398438 50.988281 26.480469 50.40625 C 26.507812 51.285156 26.167969 51.847656 25.386719 52.25 C 23.894531 53.011719 22.308594 53.433594 20.65625 53.484375 C 19.695312 53.515625 18.71875 53.542969 17.988281 52.515625 C 17.453125 51.757812 16.410156 51.695312 15.449219 51.644531 C 11.242188 51.421875 7.703125 49.652344 4.917969 46.585938 Z M 39.167969 31.691406 C 38.992188 31.039062 39.121094 30.5625 39.679688 30.40625 C 40.480469 30.179688 40.796875 30.761719 41 31.390625 C 41.167969 31.90625 41.097656 32.4375 40.503906 32.566406 C 39.765625 32.730469 39.355469 32.246094 39.167969 31.691406 Z M 37.238281 40.523438 C 37.199219 39.992188 37.589844 39.796875 38.039062 39.761719 C 38.589844 39.71875 39.050781 39.90625 39.046875 40.535156 C 39.046875 41.003906 38.710938 41.273438 38.242188 41.347656 C 37.664062 41.363281 37.28125 41.105469 37.238281 40.523438 Z M 40.871094 46.378906 C 37.558594 45.210938 34.214844 44.308594 30.808594 42.449219 C 32.742188 42.003906 33.957031 43.355469 35.585938 43.179688 C 35.03125 41.378906 33.324219 40.835938 32.195312 39.75 C 31.097656 38.691406 29.578125 38.070312 28.71875 36.609375 C 29.320312 36.300781 29.597656 36.667969 29.867188 36.925781 C 30.765625 37.800781 31.894531 38.347656 33.039062 38.675781 C 34.878906 39.199219 36.148438 40.320312 37.222656 41.804688 C 38.144531 43.085938 39.289062 44.171875 40.492188 45.191406 C 40.761719 45.414062 41.09375 45.601562 40.871094 46.378906 Z M 30.8125 45.703125 C 29.820312 45.363281 28.777344 45.179688 27.75 44.742188 C 29.148438 44.261719 30.554688 43.554688 32.011719 44.253906 C 33.675781 45.054688 35.421875 45.621094 37.574219 46.414062 C 34.078125 47.542969 29.417969 48.382812 28.097656 48.09375 C 29.066406 47.480469 30.132812 47.515625 30.910156 46.917969 C 31.539062 46.433594 31.558594 45.953125 30.8125 45.703125 Z M 31.859375 53.082031 C 31.472656 53.382812 31.214844 53.804688 30.613281 53.785156 C 29.9375 53.757812 29.226562 54.675781 28.632812 54.023438 C 27.96875 53.296875 28.578125 52.585938 29.121094 51.988281 C 29.34375 51.742188 29.378906 51.363281 29.160156 51.222656 C 27.9375 50.453125 28.933594 49.941406 29.394531 49.503906 C 30.507812 48.445312 32.058594 48.332031 33.4375 49.207031 C 34.417969 49.828125 34.921875 49.582031 35.761719 48.765625 C 37.082031 47.476562 38.855469 46.859375 40.796875 47.117188 C 40.894531 47.128906 40.96875 47.328125 41.113281 47.515625 C 37.496094 48.527344 34.71875 50.871094 31.859375 53.082031 Z M 37.433594 52.777344 C 36.34375 53.015625 35.46875 54.28125 34.515625 55.105469 C 34.085938 55.480469 33.730469 55.941406 33.277344 56.277344 C 32.875 56.570312 32.511719 57.21875 31.847656 56.585938 C 31.265625 56.03125 31.28125 55.417969 31.652344 54.847656 C 32.160156 54.070312 32.796875 53.339844 33.644531 52.949219 C 35.429688 52.128906 37.261719 51.414062 39.398438 50.519531 C 38.796875 51.632812 38.792969 52.484375 37.433594 52.777344 Z M 38.097656 57.011719 C 38.179688 58.617188 37.625 60.066406 37 61.503906 C 36.117188 59.707031 37.640625 58.488281 38.097656 57.011719 Z M 37.472656 55.171875 C 37.425781 55.992188 37.210938 56.683594 36.558594 57.199219 C 36.585938 58.136719 36.269531 58.886719 35.222656 59.589844 C 35.304688 58.390625 35.804688 57.722656 36.4375 57.117188 C 36.105469 56.167969 35.914062 55.285156 37.472656 55.171875 Z M 41.144531 56.441406 C 41.152344 57.035156 40.816406 57.359375 40.253906 57.414062 C 39.863281 57.453125 39.554688 57.214844 39.527344 56.808594 C 39.492188 56.285156 39.878906 56.078125 40.324219 55.976562 C 40.722656 55.886719 41.015625 56.015625 41.144531 56.441406 Z M 40.382812 55.207031 C 39.941406 54.722656 39.476562 55.03125 38.867188 55.140625 C 39.152344 53.207031 40.410156 51.894531 40.429688 50.152344 C 40.433594 49.753906 41 49.320312 41.5625 49.359375 C 42.121094 49.394531 42.238281 49.894531 42.207031 50.300781 C 42.078125 51.78125 41.9375 53.265625 41.683594 54.730469 C 41.566406 55.410156 41.121094 56.011719 40.382812 55.207031 Z M 44.824219 38.863281 C 44.839844 39.332031 44.542969 39.636719 44.066406 39.757812 C 43.367188 39.613281 43.253906 39.050781 43.242188 38.480469 C 43.238281 38.074219 43.296875 37.492188 43.8125 37.519531 C 44.566406 37.554688 44.808594 38.199219 44.824219 38.863281 Z M 52.570312 35.636719 C 53.113281 37.351562 52.578125 38.769531 51.269531 40.28125 C 50.511719 38.199219 51.691406 36.960938 52.570312 35.636719 Z M 48.449219 36.972656 C 48.539062 37.765625 47.828125 38.65625 47.464844 39.5 C 46.957031 40.6875 46.433594 41.875 45.808594 43.304688 C 45.125 41.925781 45.75 40.910156 45.863281 39.902344 C 46.15625 37.285156 46.734375 34.71875 47.515625 32.195312 C 47.664062 31.71875 47.679688 31.144531 48.394531 31.25 C 49.09375 31.351562 49.109375 31.917969 48.972656 32.402344 C 48.554688 33.902344 48.265625 35.363281 48.449219 36.972656 Z M 56.265625 43.765625 C 53.589844 43.875 51.035156 44.578125 48.515625 45.394531 C 46.929688 45.90625 46.710938 46.804688 47.703125 48.492188 C 46.59375 48.265625 45.800781 47.769531 45.136719 46.835938 C 46.582031 45.589844 47.480469 43.894531 48.613281 42.367188 C 49.742188 40.84375 50.300781 40.667969 51.710938 41.929688 C 52.605469 42.730469 53.101562 42.5 53.875 41.941406 C 54.964844 41.15625 54.996094 41.195312 56.484375 40.980469 C 56.46875 42.019531 54.910156 41.789062 55.257812 42.640625 C 55.605469 43.492188 56.535156 42.847656 57.199219 42.925781 C 57.742188 42.988281 58.335938 42.839844 58.96875 43.289062 C 58.050781 43.796875 57.144531 43.730469 56.265625 43.765625 Z M 56.1875 48.738281 C 55.984375 48.230469 56.332031 47.949219 56.773438 47.8125 C 57.28125 47.65625 57.578125 47.914062 57.71875 48.324219 C 57.839844 48.800781 57.648438 49.085938 57.261719 49.183594 C 56.820312 49.292969 56.371094 49.199219 56.1875 48.738281 Z M 53.886719 50.074219 C 55.371094 49.667969 56.148438 50.136719 57.171875 50.503906 C 55.933594 51.148438 55.105469 50.636719 53.886719 50.074219 Z M 54.363281 55.597656 C 53.78125 55.6875 53.417969 55.328125 53.355469 54.78125 C 53.316406 54.421875 53.550781 54.117188 53.949219 54.035156 C 54.519531 53.917969 54.871094 54.183594 55.054688 54.578125 C 55.09375 55.210938 54.820312 55.527344 54.363281 55.597656 Z M 53.675781 56.667969 C 54.3125 56.792969 54.703125 57.121094 54.550781 57.976562 C 54.355469 57.960938 54.273438 57.976562 54.214844 57.949219 C 53.761719 57.730469 53.269531 57.515625 53.207031 56.949219 C 53.183594 56.746094 53.457031 56.625 53.675781 56.667969 Z M 48.800781 46.949219 C 48.8125 46.484375 49.234375 46.46875 49.550781 46.351562 C 50.152344 46.136719 50.746094 45.914062 51.351562 45.71875 C 51.964844 45.527344 52.5 45.355469 53.023438 46.078125 C 53.652344 46.945312 54.933594 46.410156 55.730469 47.042969 C 55.191406 48.773438 55.191406 48.785156 53.605469 48.542969 C 52.207031 48.332031 50.773438 48.269531 49.453125 47.699219 C 49.128906 47.5625 48.789062 47.363281 48.800781 46.949219 Z M 48.535156 48.816406 C 50.332031 49.117188 51.832031 49.371094 53.703125 49.6875 C 51.863281 51.019531 50.910156 50.835938 48.535156 48.816406 Z M 52.425781 56.449219 C 50.289062 54.777344 49.019531 52.628906 47.507812 50.191406 C 49.847656 50.695312 51.214844 52.066406 52.617188 53.375 C 52.808594 53.554688 52.726562 53.785156 52.625 53.957031 C 52.183594 54.6875 52.585938 55.476562 52.425781 56.449219 Z M 36.382812 11.832031 C 37.007812 10.546875 37.640625 9.265625 38.324219 8.011719 C 39.195312 6.417969 40.445312 5.214844 42.332031 4.351562 C 42.203125 5.84375 41.195312 6.9375 41.5625 8.34375 C 42.054688 7.199219 42.636719 6.085938 43.015625 4.910156 C 43.453125 3.566406 44.457031 3 45.675781 2.695312 C 47.292969 2.292969 48.117188 2.882812 48.132812 4.550781 C 48.148438 5.925781 48.378906 7.214844 48.824219 8.515625 C 49.226562 9.691406 48.675781 11.054688 49.453125 12.554688 C 50.113281 10.777344 49.84375 9.253906 49.367188 7.882812 C 48.824219 6.308594 48.996094 4.777344 49.117188 3.238281 C 49.222656 1.847656 49.632812 1.773438 50.953125 2.089844 C 52.792969 2.527344 53.421875 3.988281 54.128906 5.414062 C 54.859375 6.898438 55.1875 8.511719 55.679688 10.097656 L 54.640625 4.539062 C 55.167969 4.175781 55.496094 4.40625 55.730469 4.640625 C 58.296875 7.203125 61.1875 9.527344 61.957031 13.386719 C 62.179688 14.492188 62.726562 15.53125 63.082031 16.617188 C 63.867188 19.011719 64.230469 21.472656 64.132812 23.996094 C 64.117188 24.425781 64.054688 24.820312 63.878906 25.234375 C 62.453125 28.589844 60.792969 31.789062 58.28125 34.507812 C 57.617188 35.226562 57.160156 36.160156 56.707031 37.042969 C 56.238281 37.953125 55.570312 38.640625 54.699219 39.210938 C 55.554688 36.601562 57.554688 34.5625 58.316406 31.921875 C 59.066406 29.335938 59.304688 26.667969 59.496094 23.992188 C 58.457031 26.789062 57.421875 29.589844 56.386719 32.390625 C 56.203125 32.34375 56.023438 32.296875 55.839844 32.253906 C 56.25 28.917969 57.429688 25.652344 56.988281 22.289062 C 56.640625 22.949219 56.746094 23.746094 56.621094 24.503906 C 56.40625 25.777344 56.738281 27.273438 55.292969 28.148438 C 54.941406 28.363281 55.03125 28.925781 54.980469 29.351562 C 54.875 30.285156 54.554688 31.152344 54.054688 31.949219 C 53.996094 32.042969 53.816406 32.121094 53.695312 32.113281 C 53.46875 32.097656 53.316406 31.941406 53.316406 31.699219 C 53.320312 30.851562 53.851562 30.0625 53.574219 29.066406 C 53.148438 30.125 52.753906 31.09375 52.359375 32.066406 C 51.878906 29.898438 52.675781 27.855469 52.789062 25.808594 C 50.695312 25.898438 51.578125 27.988281 50.632812 29.238281 C 50.113281 26.519531 51.113281 23.988281 50.15625 21.132812 C 49.210938 22.960938 50.113281 24.375 49.949219 25.761719 C 49.78125 27.167969 49.769531 28.59375 49.230469 30.136719 C 47.625 28.160156 48.894531 25.785156 47.890625 23.824219 C 48.105469 26.664062 47.304688 29.292969 46.425781 31.933594 C 45.617188 28.808594 45.914062 25.589844 45.183594 22.476562 C 45.074219 24.875 45.445312 27.28125 45.1875 29.886719 C 43.914062 29.039062 44.214844 27.785156 43.828125 26.761719 C 42.902344 29.511719 44.09375 32.273438 43.820312 35.046875 C 41.558594 31.214844 41.769531 26.734375 40.367188 22.566406 C 40.527344 24.59375 40.839844 26.472656 41.222656 28.34375 C 41.355469 28.992188 41.429688 29.636719 40.574219 29.914062 C 39.65625 30.214844 39.339844 29.707031 38.996094 28.964844 C 38.324219 27.515625 38.261719 25.910156 37.484375 24.015625 C 37.828125 26.128906 37.707031 27.835938 38.339844 29.457031 C 38.492188 29.84375 38.566406 30.292969 38.550781 30.707031 C 38.539062 31.054688 38.3125 31.441406 37.957031 31.53125 C 37.507812 31.640625 37.339844 31.21875 37.269531 30.886719 C 36.96875 29.417969 36.707031 27.945312 36.402344 26.300781 C 35.886719 27.179688 36.925781 27.976562 36.148438 28.714844 C 35.691406 29.148438 35.835938 29.503906 36.125 30.855469 C 36.300781 31.683594 36.851562 32.414062 36.765625 33.640625 C 34.910156 31.152344 33.578125 28.742188 33.390625 25.871094 C 33.066406 20.921875 34.234375 16.265625 36.382812 11.832031 Z M 91.800781 37.929688 C 90.230469 35.652344 88.777344 33.386719 86.175781 31.949219 C 82.464844 29.898438 78.515625 28.726562 74.398438 28.148438 C 72.695312 27.90625 70.886719 28.113281 69.113281 28.699219 C 67.488281 29.242188 65.757812 29.714844 64.046875 29.800781 C 63.785156 29.371094 64.0625 29.152344 64.136719 28.894531 C 64.785156 26.667969 65.859375 24.640625 65.601562 22.097656 C 64.933594 15.523438 63.210938 9.527344 58.238281 4.804688 C 55.832031 2.519531 52.886719 1.292969 49.855469 0.175781 C 49.59375 0.0820312 49.265625 0 49.011719 0.0703125 C 47.09375 0.59375 45.058594 0.898438 43.304688 1.769531 C 39.882812 3.46875 37.222656 6.019531 35.925781 9.765625 C 35.625 10.632812 35.183594 11.457031 34.75 12.269531 C 33.386719 14.824219 32.5625 17.527344 32.265625 20.40625 C 32.09375 22.046875 31.808594 23.675781 31.539062 25.566406 C 30.441406 24.628906 29.578125 23.890625 28.714844 23.148438 C 24.464844 19.523438 19.453125 18.527344 14.050781 19.03125 C 12.628906 19.164062 11.226562 19.449219 9.78125 19.476562 C 6.664062 19.542969 3.996094 20.394531 2.914062 23.789062 C 2.671875 24.542969 2.011719 25.03125 1.242188 25.359375 C 0.449219 25.695312 0.34375 26.25 1.019531 26.832031 C 1.835938 27.535156 1.808594 28.410156 1.703125 29.375 C 1.492188 31.230469 1.039062 33.027344 0.621094 34.835938 C 0.0234375 37.445312 0.117188 39.945312 0.949219 42.59375 C 2.457031 47.394531 5.660156 50.242188 10.210938 51.898438 C 11.140625 52.238281 12.0625 52.601562 13.539062 53.164062 C 10.992188 53.808594 9.28125 54.988281 7.796875 56.425781 C 6.167969 58 4.457031 59.558594 4.15625 62.039062 C 3.617188 66.429688 4.40625 70.691406 5.191406 74.972656 C 5.691406 77.699219 7.492188 79.875 8.117188 82.535156 C 8.257812 83.140625 8.839844 83.503906 9.585938 83.601562 C 11.496094 83.84375 13.371094 84.199219 15.179688 84.957031 C 16.140625 85.359375 17.253906 85.476562 18.34375 85.457031 C 24.765625 85.347656 30.542969 83.402344 35.84375 79.773438 C 38.917969 77.671875 40.980469 75.101562 41.464844 71.351562 C 41.671875 69.773438 42.875 68.832031 44.179688 67.539062 C 44.875 70.761719 46.246094 73.378906 47.445312 76.074219 C 48.640625 78.773438 50.535156 80.746094 52.96875 81.769531 C 55.96875 83.039062 58.6875 85.042969 62.0625 85.46875 C 64.25 85.746094 66.390625 86.25 68.558594 85.394531 C 69.421875 85.050781 70.328125 84.785156 71.238281 84.59375 C 72.558594 84.320312 73.699219 83.664062 74.566406 82.726562 C 76.269531 80.886719 77.574219 78.761719 78.589844 76.457031 C 79.335938 74.757812 78.996094 72.941406 79.292969 71.199219 C 79.792969 68.277344 79.992188 65.363281 78.6875 62.597656 C 77.660156 60.417969 76.679688 58.167969 74.535156 56.765625 C 74.269531 56.59375 74.171875 56.34375 74.324219 55.953125 C 76.332031 55.40625 78.394531 54.839844 80.457031 54.285156 C 83.085938 53.574219 85.339844 52.113281 87.191406 50.257812 C 88.578125 48.867188 89.464844 46.976562 90.53125 45.28125 C 90.828125 44.808594 90.96875 44.265625 91.007812 43.664062 C 91.105469 42.183594 91.144531 40.667969 91.9375 39.324219 C 92.226562 38.832031 92.113281 38.382812 91.800781 37.929688 " fill-opacity="1" fill-rule="nonzero"/></g></svg>