<svg xmlns="http://www.w3.org/2000/svg" xmlns:xlink="http://www.w3.org/1999/xlink" width="22" zoomAndPan="magnify" viewBox="0 0 16.5 15.75" height="21" preserveAspectRatio="xMidYMid meet" version="1.0"><defs><filter x="0%" y="0%" width="100%" height="100%" id="34d739827c"><feColorMatrix values="0 0 0 0 1 0 0 0 0 1 0 0 0 0 1 0 0 0 1 0" color-interpolation-filters="sRGB"/></filter><clipPath id="20951dfb64"><path d="M 0 0.109375 L 16 0.109375 L 16 15.398438 L 0 15.398438 Z M 0 0.109375 " clip-rule="nonzero"/></clipPath><mask id="a746097839"><g filter="url(#34d739827c)"><rect x="-1.65" width="19.8" fill="#000000" y="-1.575" height="18.9" fill-opacity="0.7"/></g></mask><clipPath id="10d9c68fbd"><path d="M 7 9 L 13 9 L 13 14 L 7 14 Z M 7 9 " clip-rule="nonzero"/></clipPath><clipPath id="be962c46d6"><path d="M 7.410156 9.367188 L 7.175781 9.601562 L 7.175781 13.007812 L 7.410156 13.242188 L 12.007812 13.242188 L 12.242188 13.007812 L 12.242188 9.601562 L 12.007812 9.367188 Z M 11.78125 12.773438 L 7.644531 12.773438 L 7.644531 9.832031 L 11.777344 9.832031 Z M 11.78125 12.773438 " clip-rule="nonzero"/></clipPath><clipPath id="3b73e77443"><path d="M 4 11 L 6 11 L 6 14 L 4 14 Z M 4 11 " clip-rule="nonzero"/></clipPath><clipPath id="2f2e4c7300"><path d="M 5.675781 12.679688 C 5.539062 12.539062 5.460938 12.351562 5.460938 12.15625 C 5.460938 11.960938 5.539062 11.773438 5.675781 11.636719 L 5.347656 11.304688 C 5.121094 11.53125 4.992188 11.835938 4.992188 12.15625 C 4.992188 12.480469 5.117188 12.78125 5.347656 13.007812 Z M 5.675781 12.679688 " clip-rule="nonzero"/></clipPath><clipPath id="4fbed16bab"><path d="M 12.882812 4.164062 L 13.347656 4.164062 L 13.347656 4.632812 L 12.882812 4.632812 Z M 12.882812 4.164062 " clip-rule="nonzero"/></clipPath><clipPath id="86e3ae667d"><path d="M 9.6875 4.164062 L 10.15625 4.164062 L 10.15625 4.632812 L 9.6875 4.632812 Z M 9.6875 4.164062 " clip-rule="nonzero"/></clipPath><clipPath id="193991d2ad"><path d="M 6.496094 4.164062 L 6.960938 4.164062 L 6.960938 4.632812 L 6.496094 4.632812 Z M 6.496094 4.164062 " clip-rule="nonzero"/></clipPath><clipPath id="c8ac9b8392"><path d="M 3.304688 4.164062 L 3.769531 4.164062 L 3.769531 4.632812 L 3.304688 4.632812 Z M 3.304688 4.164062 " clip-rule="nonzero"/></clipPath><clipPath id="eeed6a59a5"><path d="M 4.125 8.441406 L 4.589844 8.441406 L 4.589844 8.90625 L 4.125 8.90625 Z M 4.125 8.441406 " clip-rule="nonzero"/></clipPath><clipPath id="35cfce10f3"><path d="M 0 0.496094 L 15.285156 0.496094 L 15.285156 15 L 0 15 Z M 0 0.496094 " clip-rule="nonzero"/></clipPath><clipPath id="d3ed0e0ad2"><path d="M 15.203125 0.496094 L 0.234375 0.496094 L 0 0.726562 L 0 1.660156 L 0.234375 1.894531 L 1.097656 1.894531 L 1.097656 4.394531 C 1.097656 4.941406 1.339844 5.4375 1.722656 5.773438 L 1.722656 14.472656 L 0.96875 14.472656 L 0.96875 14.9375 L 14.46875 14.9375 L 14.46875 14.472656 L 13.710938 14.472656 L 13.710938 5.773438 C 14.09375 5.4375 14.335938 4.945312 14.335938 4.394531 L 14.335938 1.894531 L 15.203125 1.894531 L 15.433594 1.660156 L 15.433594 0.726562 Z M 1.582031 4.632812 L 2.839844 4.632812 L 2.839844 4.164062 L 1.566406 4.164062 L 1.566406 1.894531 L 4.292969 1.894531 L 4.292969 4.394531 C 4.292969 5.148438 3.679688 5.757812 2.929688 5.757812 C 2.253906 5.761719 1.695312 5.273438 1.582031 4.632812 Z M 5.976562 14.476562 L 3.660156 14.476562 L 3.660156 9.832031 L 5.976562 9.832031 Z M 13.246094 14.476562 L 6.441406 14.476562 L 6.441406 9.601562 L 6.207031 9.367188 L 3.425781 9.367188 L 3.191406 9.601562 L 3.191406 14.472656 L 2.1875 14.472656 L 2.1875 6.070312 C 2.417969 6.167969 2.664062 6.226562 2.929688 6.226562 C 3.019531 6.226562 3.105469 6.21875 3.191406 6.207031 L 3.191406 8.675781 L 3.425781 8.90625 L 3.660156 8.90625 L 3.660156 6.074219 C 4.023438 5.910156 4.332031 5.636719 4.523438 5.285156 C 4.839844 5.847656 5.433594 6.226562 6.121094 6.226562 C 6.808594 6.226562 7.402344 5.847656 7.71875 5.285156 C 8.03125 5.847656 8.628906 6.226562 9.3125 6.226562 C 10 6.226562 10.597656 5.847656 10.910156 5.285156 C 11.105469 5.636719 11.410156 5.910156 11.777344 6.074219 L 11.777344 8.441406 L 5.054688 8.441406 L 5.054688 8.90625 L 12.011719 8.90625 L 12.246094 8.675781 L 12.246094 6.207031 C 12.332031 6.21875 12.417969 6.226562 12.507812 6.226562 C 12.773438 6.226562 13.023438 6.167969 13.25 6.070312 Z M 4.757812 4.164062 L 4.757812 1.894531 L 7.484375 1.894531 L 7.484375 4.394531 C 7.484375 5.148438 6.871094 5.757812 6.121094 5.757812 C 5.449219 5.757812 4.886719 5.269531 4.78125 4.628906 L 6.035156 4.628906 L 6.035156 4.164062 Z M 7.949219 4.164062 L 7.949219 1.894531 L 10.675781 1.894531 L 10.675781 4.394531 C 10.675781 5.148438 10.066406 5.757812 9.3125 5.757812 C 8.640625 5.757812 8.082031 5.269531 7.972656 4.628906 L 9.226562 4.628906 L 9.226562 4.164062 Z M 13.871094 4.398438 C 13.871094 5.152344 13.257812 5.761719 12.507812 5.761719 C 11.835938 5.761719 11.273438 5.273438 11.164062 4.632812 L 12.417969 4.632812 L 12.417969 4.164062 L 11.144531 4.164062 L 11.144531 1.894531 L 13.871094 1.894531 Z M 14.96875 1.425781 L 0.464844 1.425781 L 0.464844 0.960938 L 14.96875 0.960938 Z M 14.96875 1.425781 " clip-rule="nonzero"/></clipPath><clipPath id="74e305cab1"><path d="M 9 11 L 11 11 L 11 13 L 9 13 Z M 9 11 " clip-rule="nonzero"/></clipPath><clipPath id="6356872430"><path d="M 9.628906 11.851562 L 9.957031 11.523438 L 10.285156 11.851562 L 9.957031 12.179688 Z M 9.628906 11.851562 " clip-rule="nonzero"/></clipPath><clipPath id="a7083222c0"><path d="M 10 10 L 12 10 L 12 12 L 10 12 Z M 10 10 " clip-rule="nonzero"/></clipPath><clipPath id="8677f70e12"><path d="M 10.285156 11.195312 L 11.054688 10.425781 L 11.386719 10.757812 L 10.613281 11.523438 Z M 10.285156 11.195312 " clip-rule="nonzero"/></clipPath><clipPath id="f7d469edd0"><path d="M 9 10 L 10 10 L 10 12 L 9 12 Z M 9 10 " clip-rule="nonzero"/></clipPath><clipPath id="729f1d8261"><path d="M 9.136719 10.757812 L 9.464844 10.425781 L 9.796875 10.757812 L 9.464844 11.085938 Z M 9.136719 10.757812 " clip-rule="nonzero"/></clipPath><clipPath id="eb9ef2e0bd"><path d="M 8 11 L 10 11 L 10 13 L 8 13 Z M 8 11 " clip-rule="nonzero"/></clipPath><clipPath id="0041f4548c"><path d="M 8.039062 11.851562 L 8.808594 11.085938 L 9.140625 11.414062 L 8.371094 12.179688 Z M 8.039062 11.851562 " clip-rule="nonzero"/></clipPath><clipPath id="21539fa10a"><rect x="0" width="16" y="0" height="16"/></clipPath><clipPath id="67b34981af"><path d="M 0 0.109375 L 16 0.109375 L 16 15 L 0 15 Z M 0 0.109375 " clip-rule="nonzero"/></clipPath><mask id="83140fbdfa"><g filter="url(#34d739827c)"><rect x="-1.65" width="19.8" fill="#000000" y="-1.575" height="18.9" fill-opacity="0.7"/></g></mask><clipPath id="97a1f88c2f"><path d="M 7 8 L 13 8 L 13 13 L 7 13 Z M 7 8 " clip-rule="nonzero"/></clipPath><clipPath id="02bef15dcf"><path d="M 7.410156 8.984375 L 7.175781 9.214844 L 7.175781 12.625 L 7.410156 12.855469 L 12.007812 12.855469 L 12.242188 12.625 L 12.242188 9.214844 L 12.007812 8.984375 Z M 11.78125 12.390625 L 7.644531 12.390625 L 7.644531 9.449219 L 11.777344 9.449219 Z M 11.78125 12.390625 " clip-rule="nonzero"/></clipPath><clipPath id="73e5132bb6"><path d="M 4 10 L 6 10 L 6 13 L 4 13 Z M 4 10 " clip-rule="nonzero"/></clipPath><clipPath id="aa25d76715"><path d="M 5.675781 12.292969 C 5.539062 12.152344 5.460938 11.96875 5.460938 11.773438 C 5.460938 11.578125 5.539062 11.390625 5.675781 11.25 L 5.347656 10.921875 C 5.121094 11.148438 4.992188 11.453125 4.992188 11.773438 C 4.992188 12.09375 5.117188 12.394531 5.347656 12.625 Z M 5.675781 12.292969 " clip-rule="nonzero"/></clipPath><clipPath id="1fbd6a0b96"><path d="M 12.882812 3.78125 L 13.347656 3.78125 L 13.347656 4.246094 L 12.882812 4.246094 Z M 12.882812 3.78125 " clip-rule="nonzero"/></clipPath><clipPath id="12591bd0bd"><path d="M 9.6875 3.78125 L 10.15625 3.78125 L 10.15625 4.246094 L 9.6875 4.246094 Z M 9.6875 3.78125 " clip-rule="nonzero"/></clipPath><clipPath id="3f77ed4898"><path d="M 6.496094 3.78125 L 6.960938 3.78125 L 6.960938 4.246094 L 6.496094 4.246094 Z M 6.496094 3.78125 " clip-rule="nonzero"/></clipPath><clipPath id="26def4ae09"><path d="M 3.304688 3.78125 L 3.769531 3.78125 L 3.769531 4.246094 L 3.304688 4.246094 Z M 3.304688 3.78125 " clip-rule="nonzero"/></clipPath><clipPath id="b1db4efe37"><path d="M 4.125 8.058594 L 4.589844 8.058594 L 4.589844 8.523438 L 4.125 8.523438 Z M 4.125 8.058594 " clip-rule="nonzero"/></clipPath><clipPath id="2f769b0f7c"><path d="M 0 0.109375 L 15.285156 0.109375 L 15.285156 14.667969 L 0 14.667969 Z M 0 0.109375 " clip-rule="nonzero"/></clipPath><clipPath id="959117b570"><path d="M 15.203125 0.109375 L 0.234375 0.109375 L 0 0.34375 L 0 1.277344 L 0.234375 1.507812 L 1.097656 1.507812 L 1.097656 4.011719 C 1.097656 4.558594 1.339844 5.050781 1.722656 5.386719 L 1.722656 14.089844 L 0.96875 14.089844 L 0.96875 14.554688 L 14.46875 14.554688 L 14.46875 14.089844 L 13.710938 14.089844 L 13.710938 5.386719 C 14.09375 5.050781 14.335938 4.5625 14.335938 4.011719 L 14.335938 1.507812 L 15.203125 1.507812 L 15.433594 1.277344 L 15.433594 0.34375 Z M 1.582031 4.246094 L 2.839844 4.246094 L 2.839844 3.78125 L 1.566406 3.78125 L 1.566406 1.507812 L 4.292969 1.507812 L 4.292969 4.011719 C 4.292969 4.761719 3.679688 5.375 2.929688 5.375 C 2.253906 5.378906 1.695312 4.886719 1.582031 4.246094 Z M 5.976562 14.09375 L 3.660156 14.09375 L 3.660156 9.449219 L 5.976562 9.449219 Z M 13.246094 14.09375 L 6.441406 14.09375 L 6.441406 9.214844 L 6.207031 8.984375 L 3.425781 8.984375 L 3.191406 9.214844 L 3.191406 14.089844 L 2.1875 14.089844 L 2.1875 5.683594 C 2.417969 5.785156 2.664062 5.839844 2.929688 5.839844 C 3.019531 5.839844 3.105469 5.835938 3.191406 5.820312 L 3.191406 8.289062 L 3.425781 8.523438 L 3.660156 8.523438 L 3.660156 5.6875 C 4.023438 5.527344 4.332031 5.25 4.523438 4.902344 C 4.839844 5.460938 5.433594 5.839844 6.121094 5.839844 C 6.808594 5.839844 7.402344 5.460938 7.71875 4.902344 C 8.03125 5.460938 8.628906 5.839844 9.3125 5.839844 C 10 5.839844 10.597656 5.460938 10.910156 4.902344 C 11.105469 5.25 11.410156 5.527344 11.777344 5.6875 L 11.777344 8.058594 L 5.054688 8.058594 L 5.054688 8.523438 L 12.011719 8.523438 L 12.246094 8.289062 L 12.246094 5.820312 C 12.332031 5.835938 12.417969 5.839844 12.507812 5.839844 C 12.773438 5.839844 13.023438 5.785156 13.25 5.683594 Z M 4.757812 3.78125 L 4.757812 1.507812 L 7.484375 1.507812 L 7.484375 4.011719 C 7.484375 4.761719 6.871094 5.375 6.121094 5.375 C 5.449219 5.375 4.886719 4.882812 4.78125 4.246094 L 6.035156 4.246094 L 6.035156 3.777344 L 4.757812 3.777344 Z M 7.949219 3.78125 L 7.949219 1.507812 L 10.675781 1.507812 L 10.675781 4.011719 C 10.675781 4.761719 10.066406 5.375 9.3125 5.375 C 8.640625 5.375 8.082031 4.882812 7.972656 4.246094 L 9.226562 4.246094 L 9.226562 3.777344 L 7.949219 3.777344 Z M 13.871094 4.015625 C 13.871094 4.765625 13.257812 5.378906 12.507812 5.378906 C 11.835938 5.378906 11.273438 4.886719 11.164062 4.246094 L 12.417969 4.246094 L 12.417969 3.78125 L 11.144531 3.78125 L 11.144531 1.507812 L 13.871094 1.507812 Z M 14.96875 1.042969 L 0.464844 1.042969 L 0.464844 0.578125 L 14.96875 0.578125 Z M 14.96875 1.042969 " clip-rule="nonzero"/></clipPath><clipPath id="ade154eb32"><path d="M 9 11 L 11 11 L 11 12 L 9 12 Z M 9 11 " clip-rule="nonzero"/></clipPath><clipPath id="6460ff9196"><path d="M 9.628906 11.46875 L 9.957031 11.140625 L 10.285156 11.46875 L 9.957031 11.796875 Z M 9.628906 11.46875 " clip-rule="nonzero"/></clipPath><clipPath id="07c79e2314"><path d="M 10 10 L 12 10 L 12 12 L 10 12 Z M 10 10 " clip-rule="nonzero"/></clipPath><clipPath id="c04513a7e6"><path d="M 10.285156 10.808594 L 11.054688 10.042969 L 11.386719 10.371094 L 10.613281 11.140625 Z M 10.285156 10.808594 " clip-rule="nonzero"/></clipPath><clipPath id="58febab280"><path d="M 9 10 L 10 10 L 10 11 L 9 11 Z M 9 10 " clip-rule="nonzero"/></clipPath><clipPath id="e2950e822d"><path d="M 9.136719 10.371094 L 9.464844 10.042969 L 9.796875 10.371094 L 9.464844 10.699219 Z M 9.136719 10.371094 " clip-rule="nonzero"/></clipPath><clipPath id="aa69a14c2a"><path d="M 8 10 L 10 10 L 10 12 L 8 12 Z M 8 10 " clip-rule="nonzero"/></clipPath><clipPath id="cfb287e8ee"><path d="M 8.039062 11.46875 L 8.808594 10.699219 L 9.140625 11.03125 L 8.371094 11.796875 Z M 8.039062 11.46875 " clip-rule="nonzero"/></clipPath><clipPath id="34a60f9f67"><rect x="0" width="16" y="0" height="15"/></clipPath></defs><g clip-path="url(#20951dfb64)"><g mask="url(#a746097839)"><g transform="matrix(1, 0, 0, 1, 0, 0.000000000000002109)"><g clip-path="url(#21539fa10a)"><g clip-path="url(#10d9c68fbd)"><g clip-path="url(#be962c46d6)"><path fill="#000000" d="M 7.175781 13.242188 L 7.175781 9.367188 L 12.242188 9.367188 L 12.242188 13.242188 Z M 7.175781 13.242188 " fill-opacity="1" fill-rule="nonzero"/></g></g><g clip-path="url(#3b73e77443)"><g clip-path="url(#2f2e4c7300)"><path fill="#000000" d="M 4.992188 13.007812 L 4.992188 11.304688 L 5.675781 11.304688 L 5.675781 13.007812 Z M 4.992188 13.007812 " fill-opacity="1" fill-rule="nonzero"/></g></g><g clip-path="url(#4fbed16bab)"><path fill="#000000" d="M 12.882812 4.632812 L 12.882812 4.164062 L 13.347656 4.164062 L 13.347656 4.632812 Z M 12.882812 4.632812 " fill-opacity="1" fill-rule="nonzero"/></g><g clip-path="url(#86e3ae667d)"><path fill="#000000" d="M 9.6875 4.632812 L 9.6875 4.164062 L 10.15625 4.164062 L 10.15625 4.632812 Z M 9.6875 4.632812 " fill-opacity="1" fill-rule="nonzero"/></g><g clip-path="url(#193991d2ad)"><path fill="#000000" d="M 6.496094 4.632812 L 6.496094 4.164062 L 6.960938 4.164062 L 6.960938 4.632812 Z M 6.496094 4.632812 " fill-opacity="1" fill-rule="nonzero"/></g><g clip-path="url(#c8ac9b8392)"><path fill="#000000" d="M 3.304688 4.632812 L 3.304688 4.164062 L 3.769531 4.164062 L 3.769531 4.632812 Z M 3.304688 4.632812 " fill-opacity="1" fill-rule="nonzero"/></g><g clip-path="url(#eeed6a59a5)"><path fill="#000000" d="M 4.125 8.90625 L 4.125 8.441406 L 4.589844 8.441406 L 4.589844 8.90625 Z M 4.125 8.90625 " fill-opacity="1" fill-rule="nonzero"/></g><g clip-path="url(#35cfce10f3)"><g clip-path="url(#d3ed0e0ad2)"><path fill="#000000" d="M 0 14.9375 L 0 0.496094 L 15.285156 0.496094 L 15.285156 14.9375 Z M 0 14.9375 " fill-opacity="1" fill-rule="nonzero"/></g></g><g clip-path="url(#74e305cab1)"><g clip-path="url(#6356872430)"><path fill="#000000" d="M 9.628906 12.179688 L 9.628906 11.523438 L 10.285156 11.523438 L 10.285156 12.179688 Z M 9.628906 12.179688 " fill-opacity="1" fill-rule="nonzero"/></g></g><g clip-path="url(#a7083222c0)"><g clip-path="url(#8677f70e12)"><path fill="#000000" d="M 10.285156 11.523438 L 10.285156 10.425781 L 11.386719 10.425781 L 11.386719 11.523438 Z M 10.285156 11.523438 " fill-opacity="1" fill-rule="nonzero"/></g></g><g clip-path="url(#f7d469edd0)"><g clip-path="url(#729f1d8261)"><path fill="#000000" d="M 9.136719 11.085938 L 9.136719 10.425781 L 9.796875 10.425781 L 9.796875 11.085938 Z M 9.136719 11.085938 " fill-opacity="1" fill-rule="nonzero"/></g></g><g clip-path="url(#eb9ef2e0bd)"><g clip-path="url(#0041f4548c)"><path fill="#000000" d="M 8.039062 12.179688 L 8.039062 11.085938 L 9.140625 11.085938 L 9.140625 12.179688 Z M 8.039062 12.179688 " fill-opacity="1" fill-rule="nonzero"/></g></g></g></g></g></g><g clip-path="url(#67b34981af)"><g mask="url(#83140fbdfa)"><g transform="matrix(1, 0, 0, 1, 0, 0.000000000000002123)"><g clip-path="url(#34a60f9f67)"><g clip-path="url(#97a1f88c2f)"><g clip-path="url(#02bef15dcf)"><path fill="#000000" d="M 7.175781 12.855469 L 7.175781 8.984375 L 12.242188 8.984375 L 12.242188 12.855469 Z M 7.175781 12.855469 " fill-opacity="1" fill-rule="nonzero"/></g></g><g clip-path="url(#73e5132bb6)"><g clip-path="url(#aa25d76715)"><path fill="#000000" d="M 4.992188 12.625 L 4.992188 10.921875 L 5.675781 10.921875 L 5.675781 12.625 Z M 4.992188 12.625 " fill-opacity="1" fill-rule="nonzero"/></g></g><g clip-path="url(#1fbd6a0b96)"><path fill="#000000" d="M 12.882812 4.246094 L 12.882812 3.78125 L 13.347656 3.78125 L 13.347656 4.246094 Z M 12.882812 4.246094 " fill-opacity="1" fill-rule="nonzero"/></g><g clip-path="url(#12591bd0bd)"><path fill="#000000" d="M 9.6875 4.246094 L 9.6875 3.78125 L 10.15625 3.78125 L 10.15625 4.246094 Z M 9.6875 4.246094 " fill-opacity="1" fill-rule="nonzero"/></g><g clip-path="url(#3f77ed4898)"><path fill="#000000" d="M 6.496094 4.246094 L 6.496094 3.78125 L 6.960938 3.78125 L 6.960938 4.246094 Z M 6.496094 4.246094 " fill-opacity="1" fill-rule="nonzero"/></g><g clip-path="url(#26def4ae09)"><path fill="#000000" d="M 3.304688 4.246094 L 3.304688 3.78125 L 3.769531 3.78125 L 3.769531 4.246094 Z M 3.304688 4.246094 " fill-opacity="1" fill-rule="nonzero"/></g><g clip-path="url(#b1db4efe37)"><path fill="#000000" d="M 4.125 8.523438 L 4.125 8.058594 L 4.589844 8.058594 L 4.589844 8.523438 Z M 4.125 8.523438 " fill-opacity="1" fill-rule="nonzero"/></g><g clip-path="url(#2f769b0f7c)"><g clip-path="url(#959117b570)"><path fill="#000000" d="M 0 14.554688 L 0 0.109375 L 15.285156 0.109375 L 15.285156 14.554688 Z M 0 14.554688 " fill-opacity="1" fill-rule="nonzero"/></g></g><g clip-path="url(#ade154eb32)"><g clip-path="url(#6460ff9196)"><path fill="#000000" d="M 9.628906 11.796875 L 9.628906 11.140625 L 10.285156 11.140625 L 10.285156 11.796875 Z M 9.628906 11.796875 " fill-opacity="1" fill-rule="nonzero"/></g></g><g clip-path="url(#07c79e2314)"><g clip-path="url(#c04513a7e6)"><path fill="#000000" d="M 10.285156 11.140625 L 10.285156 10.042969 L 11.386719 10.042969 L 11.386719 11.140625 Z M 10.285156 11.140625 " fill-opacity="1" fill-rule="nonzero"/></g></g><g clip-path="url(#58febab280)"><g clip-path="url(#e2950e822d)"><path fill="#000000" d="M 9.136719 10.699219 L 9.136719 10.042969 L 9.796875 10.042969 L 9.796875 10.699219 Z M 9.136719 10.699219 " fill-opacity="1" fill-rule="nonzero"/></g></g><g clip-path="url(#aa69a14c2a)"><g clip-path="url(#cfb287e8ee)"><path fill="#000000" d="M 8.039062 11.796875 L 8.039062 10.699219 L 9.140625 10.699219 L 9.140625 11.796875 Z M 8.039062 11.796875 " fill-opacity="1" fill-rule="nonzero"/></g></g></g></g></g></g></svg>