<svg xmlns="http://www.w3.org/2000/svg" xmlns:xlink="http://www.w3.org/1999/xlink" width="15" zoomAndPan="magnify" viewBox="0 0 11.25 15" height="20" preserveAspectRatio="xMidYMid meet" version="1.0"><defs><filter x="0%" y="0%" width="100%" height="100%" id="5f14dc8ddd"><feColorMatrix values="0 0 0 0 1 0 0 0 0 1 0 0 0 0 1 0 0 0 1 0" color-interpolation-filters="sRGB"/></filter><clipPath id="eb7fd00ddf"><path d="M 0 0.46875 L 10.546875 0.46875 L 10.546875 14.53125 L 0 14.53125 Z M 0 0.46875 " clip-rule="nonzero"/></clipPath><mask id="217a50e9f3"><g filter="url(#5f14dc8ddd)"><rect x="-1.125" width="13.5" fill="#000000" y="-1.5" height="18" fill-opacity="0.7"/></g></mask><clipPath id="55c414ab81"><path d="M 0 0.957031 L 10.546875 0.957031 L 10.546875 14.316406 L 0 14.316406 Z M 0 0.957031 " clip-rule="nonzero"/></clipPath><clipPath id="911e5d77eb"><rect x="0" width="11" y="0" height="15"/></clipPath><clipPath id="8cc7058c26"><path d="M 0 0.46875 L 10.546875 0.46875 L 10.546875 14 L 0 14 Z M 0 0.46875 " clip-rule="nonzero"/></clipPath><mask id="aab0228401"><g filter="url(#5f14dc8ddd)"><rect x="-1.125" width="13.5" fill="#000000" y="-1.5" height="18" fill-opacity="0.7"/></g></mask><clipPath id="b57230615b"><path d="M 0 0.46875 L 10.546875 0.46875 L 10.546875 13.828125 L 0 13.828125 Z M 0 0.46875 " clip-rule="nonzero"/></clipPath><clipPath id="dbd91b19b5"><rect x="0" width="11" y="0" height="14"/></clipPath></defs><g clip-path="url(#eb7fd00ddf)"><g mask="url(#217a50e9f3)"><g transform="matrix(1, 0, 0, 1, 0, 0.000000000000001554)"><g clip-path="url(#911e5d77eb)"><g clip-path="url(#55c414ab81)"><path fill="#000000" d="M 10.542969 11.867188 L 10.542969 1.179688 C 10.542969 1.046875 10.453125 0.957031 10.316406 0.957031 L 0.230469 0.957031 C 0.09375 0.957031 0.00390625 1.046875 0.00390625 1.179688 L 0.00390625 14.09375 C 0.00390625 14.226562 0.09375 14.316406 0.230469 14.316406 L 8.074219 14.316406 C 8.144531 14.316406 8.1875 14.296875 8.234375 14.25 L 10.476562 12.023438 C 10.496094 12 10.496094 11.980469 10.519531 11.957031 L 10.519531 11.933594 C 10.542969 11.914062 10.542969 11.890625 10.542969 11.867188 Z M 0.453125 1.402344 L 10.09375 1.402344 L 10.09375 11.644531 L 8.074219 11.644531 C 7.941406 11.644531 7.851562 11.734375 7.851562 11.867188 L 7.851562 13.871094 L 0.453125 13.871094 Z M 8.300781 13.558594 L 8.300781 12.089844 L 9.78125 12.089844 L 9.039062 12.824219 Z M 8.300781 13.558594 " fill-opacity="1" fill-rule="nonzero"/></g><path fill="#000000" d="M 1.574219 10.753906 L 8.972656 10.753906 C 9.109375 10.753906 9.195312 10.664062 9.195312 10.53125 L 9.195312 2.515625 C 9.195312 2.382812 9.109375 2.292969 8.972656 2.292969 L 1.574219 2.292969 C 1.4375 2.292969 1.351562 2.382812 1.351562 2.515625 L 1.351562 10.53125 C 1.351562 10.664062 1.4375 10.753906 1.574219 10.753906 Z M 1.796875 4.074219 L 3.367188 4.074219 L 3.367188 10.308594 L 1.796875 10.308594 C 1.796875 10.308594 1.796875 5.878906 1.796875 4.074219 Z M 3.816406 7.414062 L 8.75 7.414062 L 8.75 8.75 L 3.816406 8.75 Z M 3.816406 6.96875 L 3.816406 5.632812 L 8.75 5.632812 L 8.75 6.96875 Z M 3.816406 5.1875 L 3.816406 4.074219 L 8.75 4.074219 L 8.75 5.1875 Z M 3.816406 10.308594 L 3.816406 9.195312 L 8.75 9.195312 L 8.75 10.308594 Z M 8.75 3.628906 L 3.816406 3.628906 L 3.816406 2.738281 L 8.75 2.738281 Z M 3.367188 2.738281 L 3.367188 3.628906 L 1.796875 3.628906 C 1.796875 3.453125 1.796875 2.738281 1.796875 2.738281 Z M 3.367188 2.738281 " fill-opacity="1" fill-rule="nonzero"/><path fill="#000000" d="M 3.59375 11.421875 L 1.574219 11.421875 C 1.4375 11.421875 1.351562 11.511719 1.351562 11.644531 L 1.351562 12.980469 C 1.351562 13.113281 1.4375 13.203125 1.574219 13.203125 L 3.59375 13.203125 C 3.726562 13.203125 3.816406 13.113281 3.816406 12.980469 L 3.816406 11.644531 C 3.816406 11.511719 3.726562 11.421875 3.59375 11.421875 Z M 3.367188 12.757812 L 1.796875 12.757812 L 1.796875 11.867188 L 3.367188 11.867188 Z M 3.367188 12.757812 " fill-opacity="1" fill-rule="nonzero"/><path fill="#000000" d="M 4.488281 11.644531 L 6.058594 11.644531 L 6.058594 12.089844 L 4.488281 12.089844 Z M 4.488281 11.644531 " fill-opacity="1" fill-rule="nonzero"/><path fill="#000000" d="M 4.488281 12.535156 L 6.730469 12.535156 L 6.730469 12.980469 L 4.488281 12.980469 Z M 4.488281 12.535156 " fill-opacity="1" fill-rule="nonzero"/></g></g></g></g><g clip-path="url(#8cc7058c26)"><g mask="url(#aab0228401)"><g transform="matrix(1, 0, 0, 1, 0, 0.00000000000000161)"><g clip-path="url(#dbd91b19b5)"><g clip-path="url(#b57230615b)"><path fill="#000000" d="M 10.542969 11.378906 L 10.542969 0.691406 C 10.542969 0.558594 10.453125 0.46875 10.316406 0.46875 L 0.230469 0.46875 C 0.09375 0.46875 0.00390625 0.558594 0.00390625 0.691406 L 0.00390625 13.605469 C 0.00390625 13.738281 0.09375 13.828125 0.230469 13.828125 L 8.074219 13.828125 C 8.144531 13.828125 8.1875 13.804688 8.234375 13.761719 L 10.476562 11.535156 C 10.496094 11.511719 10.496094 11.488281 10.519531 11.46875 L 10.519531 11.445312 C 10.542969 11.421875 10.542969 11.402344 10.542969 11.378906 Z M 0.453125 0.914062 L 10.09375 0.914062 L 10.09375 11.15625 L 8.074219 11.15625 C 7.941406 11.15625 7.851562 11.246094 7.851562 11.378906 L 7.851562 13.382812 L 0.453125 13.382812 Z M 8.300781 13.070312 L 8.300781 11.601562 L 9.78125 11.601562 L 9.039062 12.335938 Z M 8.300781 13.070312 " fill-opacity="1" fill-rule="nonzero"/></g><path fill="#000000" d="M 1.574219 10.265625 L 8.972656 10.265625 C 9.109375 10.265625 9.195312 10.175781 9.195312 10.042969 L 9.195312 2.027344 C 9.195312 1.894531 9.109375 1.804688 8.972656 1.804688 L 1.574219 1.804688 C 1.4375 1.804688 1.351562 1.894531 1.351562 2.027344 L 1.351562 10.042969 C 1.351562 10.175781 1.4375 10.265625 1.574219 10.265625 Z M 1.796875 3.585938 L 3.367188 3.585938 L 3.367188 9.820312 L 1.796875 9.820312 C 1.796875 9.820312 1.796875 5.390625 1.796875 3.585938 Z M 3.816406 6.925781 L 8.75 6.925781 L 8.75 8.261719 L 3.816406 8.261719 Z M 3.816406 6.480469 L 3.816406 5.144531 L 8.75 5.144531 L 8.75 6.480469 Z M 3.816406 4.699219 L 3.816406 3.585938 L 8.75 3.585938 L 8.75 4.699219 Z M 3.816406 9.820312 L 3.816406 8.707031 L 8.75 8.707031 L 8.75 9.820312 Z M 8.75 3.140625 L 3.816406 3.140625 L 3.816406 2.25 L 8.75 2.25 Z M 3.367188 2.25 L 3.367188 3.140625 L 1.796875 3.140625 C 1.796875 2.960938 1.796875 2.25 1.796875 2.25 Z M 3.367188 2.25 " fill-opacity="1" fill-rule="nonzero"/><path fill="#000000" d="M 3.59375 10.933594 L 1.574219 10.933594 C 1.4375 10.933594 1.351562 11.023438 1.351562 11.15625 L 1.351562 12.492188 C 1.351562 12.625 1.4375 12.714844 1.574219 12.714844 L 3.59375 12.714844 C 3.726562 12.714844 3.816406 12.625 3.816406 12.492188 L 3.816406 11.15625 C 3.816406 11.023438 3.726562 10.933594 3.59375 10.933594 Z M 3.367188 12.269531 L 1.796875 12.269531 L 1.796875 11.378906 L 3.367188 11.378906 Z M 3.367188 12.269531 " fill-opacity="1" fill-rule="nonzero"/><path fill="#000000" d="M 4.488281 11.15625 L 6.058594 11.15625 L 6.058594 11.601562 L 4.488281 11.601562 Z M 4.488281 11.15625 " fill-opacity="1" fill-rule="nonzero"/><path fill="#000000" d="M 4.488281 12.046875 L 6.730469 12.046875 L 6.730469 12.492188 L 4.488281 12.492188 Z M 4.488281 12.046875 " fill-opacity="1" fill-rule="nonzero"/></g></g></g></g></svg>