<svg xmlns="http://www.w3.org/2000/svg" xmlns:xlink="http://www.w3.org/1999/xlink" width="82" zoomAndPan="magnify" viewBox="0 0 61.5 82.499998" height="110" preserveAspectRatio="xMidYMid meet" version="1.0"><defs><filter x="0%" y="0%" width="100%" height="100%" id="7cd6412eb1"><feColorMatrix values="0 0 0 0 1 0 0 0 0 1 0 0 0 0 1 0 0 0 1 0" color-interpolation-filters="sRGB"/></filter><clipPath id="56fe833b88"><path d="M 0 0.0859375 L 61.003906 0.0859375 L 61.003906 81.917969 L 0 81.917969 Z M 0 0.0859375 " clip-rule="nonzero"/></clipPath><mask id="a3aa40a651"><g filter="url(#7cd6412eb1)"><rect x="-6.15" width="73.8" fill="#000000" y="-8.25" height="98.999998" fill-opacity="0.45"/></g></mask><clipPath id="94acfb52f6"><path d="M 11 0.0859375 L 47 0.0859375 L 47 69 L 11 69 Z M 11 0.0859375 " clip-rule="nonzero"/></clipPath><clipPath id="b91b2af745"><path d="M 10 0.0859375 L 47 0.0859375 L 47 69 L 10 69 Z M 10 0.0859375 " clip-rule="nonzero"/></clipPath><clipPath id="086b7becc3"><path d="M 19 67 L 39 67 L 39 81.917969 L 19 81.917969 Z M 19 67 " clip-rule="nonzero"/></clipPath><clipPath id="c32feb54ca"><path d="M 39 51 L 60.261719 51 L 60.261719 62 L 39 62 Z M 39 51 " clip-rule="nonzero"/></clipPath><clipPath id="3db47127a4"><path d="M 1 55 L 27 55 L 27 81.917969 L 1 81.917969 Z M 1 55 " clip-rule="nonzero"/></clipPath><clipPath id="a15012af3a"><path d="M 0 55 L 28 55 L 28 81.917969 L 0 81.917969 Z M 0 55 " clip-rule="nonzero"/></clipPath><clipPath id="1b42588373"><rect x="0" width="62" y="0" height="82"/></clipPath><mask id="2822b483a3"><g filter="url(#7cd6412eb1)"><rect x="-6.15" width="73.8" fill="#000000" y="-8.25" height="98.999998" fill-opacity="0.45"/></g></mask><clipPath id="2be982c79a"><path d="M 11 0.0859375 L 47 0.0859375 L 47 69 L 11 69 Z M 11 0.0859375 " clip-rule="nonzero"/></clipPath><clipPath id="455653b76a"><path d="M 10 0.0859375 L 47 0.0859375 L 47 69 L 10 69 Z M 10 0.0859375 " clip-rule="nonzero"/></clipPath><clipPath id="b6c6e6a4ca"><path d="M 19 67 L 39 67 L 39 81.917969 L 19 81.917969 Z M 19 67 " clip-rule="nonzero"/></clipPath><clipPath id="afe8128138"><path d="M 39 51 L 60.261719 51 L 60.261719 62 L 39 62 Z M 39 51 " clip-rule="nonzero"/></clipPath><clipPath id="eb50f62bf5"><path d="M 1 55 L 27 55 L 27 81.917969 L 1 81.917969 Z M 1 55 " clip-rule="nonzero"/></clipPath><clipPath id="132d9ccce2"><path d="M 0 55 L 28 55 L 28 81.917969 L 0 81.917969 Z M 0 55 " clip-rule="nonzero"/></clipPath><clipPath id="4f5fa2a23a"><rect x="0" width="62" y="0" height="82"/></clipPath></defs><g clip-path="url(#56fe833b88)"><g mask="url(#a3aa40a651)"><g transform="matrix(1, 0, 0, 1, 0, 0.000000000000011616)"><g clip-path="url(#1b42588373)"><g clip-path="url(#94acfb52f6)"><path fill="#2e2a2b" d="M 37.511719 68.289062 L 20.035156 68.289062 L 11.296875 0.75 L 46.257812 0.75 L 37.511719 68.289062 " fill-opacity="1" fill-rule="nonzero"/></g><g clip-path="url(#b91b2af745)"><path stroke-linecap="round" transform="matrix(0.0411504, 0, 0, -0.0412473, -57.170453, 128.693811)" fill="none" stroke-linejoin="round" d="M 2300.883104 1464.45283 L 1876.183009 1464.45283 L 1663.832962 3101.869984 L 2513.423004 3101.869984 Z M 2300.883104 1464.45283 " stroke="#ffffff" stroke-width="31.837" stroke-opacity="1" stroke-miterlimit="10"/></g><path fill="#2e2a2b" d="M 34.214844 55.546875 L 23.332031 55.546875 L 17.890625 13.496094 L 39.65625 13.496094 L 34.214844 55.546875 " fill-opacity="1" fill-rule="nonzero"/><path stroke-linecap="round" transform="matrix(0.0411504, 0, 0, -0.0412473, -57.170453, 128.693811)" fill="none" stroke-linejoin="round" d="M 2220.765339 1773.374447 L 1956.300774 1773.374447 L 1824.068492 2792.853664 L 2352.997621 2792.853664 Z M 2220.765339 1773.374447 " stroke="#ffffff" stroke-width="31.837" stroke-opacity="1" stroke-miterlimit="10"/><path fill="#2e2a2b" d="M 34.488281 80.710938 L 23.058594 80.710938 C 21.304688 80.710938 19.875 79.285156 19.875 77.519531 L 19.875 67.96875 L 37.671875 67.96875 L 37.671875 77.519531 C 37.671875 79.285156 36.25 80.710938 34.488281 80.710938 " fill-opacity="1" fill-rule="nonzero"/><g clip-path="url(#086b7becc3)"><path stroke-linecap="round" transform="matrix(0.0411504, 0, 0, -0.0412473, -57.170453, 128.693811)" fill="none" stroke-linejoin="round" d="M 2227.410177 1163.29687 L 1949.655936 1163.29687 C 1907.034044 1163.29687 1872.291032 1197.863513 1872.291032 1240.669329 L 1872.291032 1472.218487 L 2304.775081 1472.218487 L 2304.775081 1240.669329 C 2304.775081 1197.863513 2270.221921 1163.29687 2227.410177 1163.29687 Z M 2227.410177 1163.29687 " stroke="#ffffff" stroke-width="31.837" stroke-opacity="1" stroke-miterlimit="10"/></g><path stroke-linecap="round" transform="matrix(0.0411504, 0, 0, -0.0412473, -57.170453, 128.693811)" fill="none" stroke-linejoin="round" d="M 1678.641459 2987.942116 L 2498.614507 2987.942116 " stroke="#ffffff" stroke-width="31.837" stroke-opacity="1" stroke-miterlimit="10"/><path fill="#2e2a2b" d="M 59.511719 56.664062 C 59.511719 56.664062 49.503906 46.304688 39.871094 57.058594 C 39.871094 57.058594 47.082031 66.757812 59.511719 56.664062 " fill-opacity="1" fill-rule="nonzero"/><g clip-path="url(#c32feb54ca)"><path stroke-linecap="round" transform="matrix(0.0411504, 0, 0, -0.0412473, -57.170453, 128.693811)" fill="none" stroke-linejoin="round" d="M 2835.507809 1746.289351 C 2835.507809 1746.289351 2592.306727 1997.442057 2358.218566 1736.724335 C 2358.218566 1736.724335 2533.547371 1501.576458 2835.507809 1746.289351 Z M 2835.507809 1746.289351 " stroke="#ffffff" stroke-width="31.837" stroke-opacity="1" stroke-miterlimit="10"/></g><path fill="#2e2a2b" d="M 51.898438 34.542969 C 51.898438 34.542969 37.710938 36.929688 41.082031 50.984375 C 41.082031 50.984375 53.140625 50.527344 51.898438 34.542969 " fill-opacity="1" fill-rule="nonzero"/><path stroke-linecap="round" transform="matrix(0.0411504, 0, 0, -0.0412473, -57.170453, 128.693811)" fill="none" stroke-linejoin="round" d="M 2650.496525 2282.593188 C 2650.496525 2282.593188 2305.724343 2224.729574 2387.645707 1883.987705 C 2387.645707 1883.987705 2680.683077 1895.067971 2650.496525 2282.593188 Z M 2650.496525 2282.593188 " stroke="#ffffff" stroke-width="31.837" stroke-opacity="1" stroke-miterlimit="10"/><g clip-path="url(#3db47127a4)"><path fill="#2e2a2b" d="M 26.632812 68.46875 C 26.632812 75.53125 20.921875 81.253906 13.875 81.253906 C 6.832031 81.253906 1.117188 75.53125 1.117188 68.46875 C 1.117188 61.40625 6.832031 55.683594 13.875 55.683594 C 20.921875 55.683594 26.632812 61.40625 26.632812 68.46875 " fill-opacity="1" fill-rule="nonzero"/></g><g clip-path="url(#a15012af3a)"><path stroke-linecap="round" transform="matrix(0.0411504, 0, 0, -0.0412473, -57.170453, 128.693811)" fill="none" stroke-linejoin="round" d="M 2036.513465 1460.096486 C 2036.513465 1288.873223 1897.731271 1150.133134 1726.484295 1150.133134 C 1555.332245 1150.133134 1416.455124 1288.873223 1416.455124 1460.096486 C 1416.455124 1631.319749 1555.332245 1770.059837 1726.484295 1770.059837 C 1897.731271 1770.059837 2036.513465 1631.319749 2036.513465 1460.096486 Z M 2036.513465 1460.096486 " stroke="#ffffff" stroke-width="31.837" stroke-opacity="1" stroke-miterlimit="10"/></g><path fill="#ffffff" d="M 16.324219 75.835938 C 16.324219 77.1875 15.230469 78.285156 13.875 78.285156 C 12.527344 78.285156 11.429688 77.1875 11.429688 75.835938 C 11.429688 74.476562 13.875 70.523438 13.875 70.523438 C 13.875 70.523438 16.324219 74.476562 16.324219 75.835938 " fill-opacity="1" fill-rule="nonzero"/><path fill="#ffffff" d="M 11.429688 61.101562 C 11.429688 59.746094 12.527344 58.648438 13.875 58.648438 C 15.230469 58.648438 16.324219 59.746094 16.324219 61.101562 C 16.324219 62.453125 13.875 66.410156 13.875 66.410156 C 13.875 66.410156 11.429688 62.453125 11.429688 61.101562 " fill-opacity="1" fill-rule="nonzero"/><path fill="#ffffff" d="M 6.527344 70.917969 C 5.175781 70.917969 4.082031 69.820312 4.082031 68.46875 C 4.082031 67.113281 5.175781 66.015625 6.527344 66.015625 C 7.875 66.015625 11.828125 68.46875 11.828125 68.46875 C 11.828125 68.46875 7.875 70.917969 6.527344 70.917969 " fill-opacity="1" fill-rule="nonzero"/><path fill="#ffffff" d="M 21.226562 66.015625 C 22.578125 66.015625 23.671875 67.113281 23.671875 68.46875 C 23.671875 69.820312 22.578125 70.917969 21.226562 70.917969 C 19.875 70.917969 15.929688 68.46875 15.929688 68.46875 C 15.929688 68.46875 19.875 66.015625 21.226562 66.015625 " fill-opacity="1" fill-rule="nonzero"/><path fill="#ffffff" d="M 10.410156 75.410156 C 9.457031 76.367188 7.90625 76.367188 6.949219 75.410156 C 5.996094 74.453125 5.996094 72.898438 6.949219 71.941406 C 7.90625 70.984375 12.425781 69.921875 12.425781 69.921875 C 12.425781 69.921875 11.367188 74.453125 10.410156 75.410156 " fill-opacity="1" fill-rule="nonzero"/><path fill="#ffffff" d="M 17.34375 61.527344 C 18.300781 60.570312 19.847656 60.570312 20.800781 61.527344 C 21.757812 62.484375 21.757812 64.035156 20.800781 64.992188 C 19.847656 65.949219 15.328125 67.011719 15.328125 67.011719 C 15.328125 67.011719 16.390625 62.484375 17.34375 61.527344 " fill-opacity="1" fill-rule="nonzero"/><path fill="#ffffff" d="M 6.949219 64.992188 C 5.996094 64.035156 5.996094 62.484375 6.949219 61.527344 C 7.90625 60.570312 9.457031 60.570312 10.410156 61.527344 C 11.367188 62.484375 12.425781 67.011719 12.425781 67.011719 C 12.425781 67.011719 7.90625 65.949219 6.949219 64.992188 " fill-opacity="1" fill-rule="nonzero"/><path fill="#ffffff" d="M 20.800781 71.941406 C 21.757812 72.898438 21.757812 74.453125 20.800781 75.410156 C 19.847656 76.367188 18.300781 76.367188 17.34375 75.410156 C 16.390625 74.453125 15.328125 69.921875 15.328125 69.921875 C 15.328125 69.921875 19.847656 70.984375 20.800781 71.941406 " fill-opacity="1" fill-rule="nonzero"/><path fill="#2e2a2b" d="M 4.890625 36.464844 C 4.890625 36.464844 0.0546875 50.042969 13.9375 53.945312 C 13.9375 53.945312 19.417969 43.171875 4.890625 36.464844 " fill-opacity="1" fill-rule="nonzero"/><path stroke-linecap="round" transform="matrix(0.0411504, 0, 0, -0.0412473, -57.170453, 128.693811)" fill="none" stroke-linejoin="round" d="M 1508.153893 2235.999247 C 1508.153893 2235.999247 1390.635181 1906.81116 1728.003115 1812.202731 C 1728.003115 1812.202731 1861.18466 2073.393969 1508.153893 2235.999247 Z M 1508.153893 2235.999247 " stroke="#ffffff" stroke-width="31.837" stroke-opacity="1" stroke-miterlimit="10"/></g></g></g><g mask="url(#2822b483a3)"><g transform="matrix(1, 0, 0, 1, 0, 0.000000000000011616)"><g clip-path="url(#4f5fa2a23a)"><g clip-path="url(#2be982c79a)"><path fill="#2e2a2b" d="M 37.511719 68.289062 L 20.035156 68.289062 L 11.296875 0.75 L 46.257812 0.75 L 37.511719 68.289062 " fill-opacity="1" fill-rule="nonzero"/></g><g clip-path="url(#455653b76a)"><path stroke-linecap="round" transform="matrix(0.0411504, 0, 0, -0.0412473, -57.170453, 128.693811)" fill="none" stroke-linejoin="round" d="M 2300.883104 1464.45283 L 1876.183009 1464.45283 L 1663.832962 3101.869984 L 2513.423004 3101.869984 Z M 2300.883104 1464.45283 " stroke="#ffffff" stroke-width="31.837" stroke-opacity="1" stroke-miterlimit="10"/></g><path fill="#2e2a2b" d="M 34.214844 55.546875 L 23.332031 55.546875 L 17.890625 13.496094 L 39.65625 13.496094 L 34.214844 55.546875 " fill-opacity="1" fill-rule="nonzero"/><path stroke-linecap="round" transform="matrix(0.0411504, 0, 0, -0.0412473, -57.170453, 128.693811)" fill="none" stroke-linejoin="round" d="M 2220.765339 1773.374447 L 1956.300774 1773.374447 L 1824.068492 2792.853664 L 2352.997621 2792.853664 Z M 2220.765339 1773.374447 " stroke="#ffffff" stroke-width="31.837" stroke-opacity="1" stroke-miterlimit="10"/><path fill="#2e2a2b" d="M 34.488281 80.710938 L 23.058594 80.710938 C 21.304688 80.710938 19.875 79.285156 19.875 77.519531 L 19.875 67.96875 L 37.671875 67.96875 L 37.671875 77.519531 C 37.671875 79.285156 36.25 80.710938 34.488281 80.710938 " fill-opacity="1" fill-rule="nonzero"/><g clip-path="url(#b6c6e6a4ca)"><path stroke-linecap="round" transform="matrix(0.0411504, 0, 0, -0.0412473, -57.170453, 128.693811)" fill="none" stroke-linejoin="round" d="M 2227.410177 1163.29687 L 1949.655936 1163.29687 C 1907.034044 1163.29687 1872.291032 1197.863513 1872.291032 1240.669329 L 1872.291032 1472.218487 L 2304.775081 1472.218487 L 2304.775081 1240.669329 C 2304.775081 1197.863513 2270.221921 1163.29687 2227.410177 1163.29687 Z M 2227.410177 1163.29687 " stroke="#ffffff" stroke-width="31.837" stroke-opacity="1" stroke-miterlimit="10"/></g><path stroke-linecap="round" transform="matrix(0.0411504, 0, 0, -0.0412473, -57.170453, 128.693811)" fill="none" stroke-linejoin="round" d="M 1678.641459 2987.942116 L 2498.614507 2987.942116 " stroke="#ffffff" stroke-width="31.837" stroke-opacity="1" stroke-miterlimit="10"/><path fill="#2e2a2b" d="M 59.511719 56.664062 C 59.511719 56.664062 49.503906 46.304688 39.871094 57.058594 C 39.871094 57.058594 47.082031 66.757812 59.511719 56.664062 " fill-opacity="1" fill-rule="nonzero"/><g clip-path="url(#afe8128138)"><path stroke-linecap="round" transform="matrix(0.0411504, 0, 0, -0.0412473, -57.170453, 128.693811)" fill="none" stroke-linejoin="round" d="M 2835.507809 1746.289351 C 2835.507809 1746.289351 2592.306727 1997.442057 2358.218566 1736.724335 C 2358.218566 1736.724335 2533.547371 1501.576458 2835.507809 1746.289351 Z M 2835.507809 1746.289351 " stroke="#ffffff" stroke-width="31.837" stroke-opacity="1" stroke-miterlimit="10"/></g><path fill="#2e2a2b" d="M 51.898438 34.542969 C 51.898438 34.542969 37.710938 36.929688 41.082031 50.984375 C 41.082031 50.984375 53.140625 50.527344 51.898438 34.542969 " fill-opacity="1" fill-rule="nonzero"/><path stroke-linecap="round" transform="matrix(0.0411504, 0, 0, -0.0412473, -57.170453, 128.693811)" fill="none" stroke-linejoin="round" d="M 2650.496525 2282.593188 C 2650.496525 2282.593188 2305.724343 2224.729574 2387.645707 1883.987705 C 2387.645707 1883.987705 2680.683077 1895.067971 2650.496525 2282.593188 Z M 2650.496525 2282.593188 " stroke="#ffffff" stroke-width="31.837" stroke-opacity="1" stroke-miterlimit="10"/><g clip-path="url(#eb50f62bf5)"><path fill="#2e2a2b" d="M 26.632812 68.46875 C 26.632812 75.53125 20.921875 81.253906 13.875 81.253906 C 6.832031 81.253906 1.117188 75.53125 1.117188 68.46875 C 1.117188 61.40625 6.832031 55.683594 13.875 55.683594 C 20.921875 55.683594 26.632812 61.40625 26.632812 68.46875 " fill-opacity="1" fill-rule="nonzero"/></g><g clip-path="url(#132d9ccce2)"><path stroke-linecap="round" transform="matrix(0.0411504, 0, 0, -0.0412473, -57.170453, 128.693811)" fill="none" stroke-linejoin="round" d="M 2036.513465 1460.096486 C 2036.513465 1288.873223 1897.731271 1150.133134 1726.484295 1150.133134 C 1555.332245 1150.133134 1416.455124 1288.873223 1416.455124 1460.096486 C 1416.455124 1631.319749 1555.332245 1770.059837 1726.484295 1770.059837 C 1897.731271 1770.059837 2036.513465 1631.319749 2036.513465 1460.096486 Z M 2036.513465 1460.096486 " stroke="#ffffff" stroke-width="31.837" stroke-opacity="1" stroke-miterlimit="10"/></g><path fill="#ffffff" d="M 16.324219 75.835938 C 16.324219 77.1875 15.230469 78.285156 13.875 78.285156 C 12.527344 78.285156 11.429688 77.1875 11.429688 75.835938 C 11.429688 74.476562 13.875 70.523438 13.875 70.523438 C 13.875 70.523438 16.324219 74.476562 16.324219 75.835938 " fill-opacity="1" fill-rule="nonzero"/><path fill="#ffffff" d="M 11.429688 61.101562 C 11.429688 59.746094 12.527344 58.648438 13.875 58.648438 C 15.230469 58.648438 16.324219 59.746094 16.324219 61.101562 C 16.324219 62.453125 13.875 66.410156 13.875 66.410156 C 13.875 66.410156 11.429688 62.453125 11.429688 61.101562 " fill-opacity="1" fill-rule="nonzero"/><path fill="#ffffff" d="M 6.527344 70.917969 C 5.175781 70.917969 4.082031 69.820312 4.082031 68.46875 C 4.082031 67.113281 5.175781 66.015625 6.527344 66.015625 C 7.875 66.015625 11.828125 68.46875 11.828125 68.46875 C 11.828125 68.46875 7.875 70.917969 6.527344 70.917969 " fill-opacity="1" fill-rule="nonzero"/><path fill="#ffffff" d="M 21.226562 66.015625 C 22.578125 66.015625 23.671875 67.113281 23.671875 68.46875 C 23.671875 69.820312 22.578125 70.917969 21.226562 70.917969 C 19.875 70.917969 15.929688 68.46875 15.929688 68.46875 C 15.929688 68.46875 19.875 66.015625 21.226562 66.015625 " fill-opacity="1" fill-rule="nonzero"/><path fill="#ffffff" d="M 10.410156 75.410156 C 9.457031 76.367188 7.90625 76.367188 6.949219 75.410156 C 5.996094 74.453125 5.996094 72.898438 6.949219 71.941406 C 7.90625 70.984375 12.425781 69.921875 12.425781 69.921875 C 12.425781 69.921875 11.367188 74.453125 10.410156 75.410156 " fill-opacity="1" fill-rule="nonzero"/><path fill="#ffffff" d="M 17.34375 61.527344 C 18.300781 60.570312 19.847656 60.570312 20.800781 61.527344 C 21.757812 62.484375 21.757812 64.035156 20.800781 64.992188 C 19.847656 65.949219 15.328125 67.011719 15.328125 67.011719 C 15.328125 67.011719 16.390625 62.484375 17.34375 61.527344 " fill-opacity="1" fill-rule="nonzero"/><path fill="#ffffff" d="M 6.949219 64.992188 C 5.996094 64.035156 5.996094 62.484375 6.949219 61.527344 C 7.90625 60.570312 9.457031 60.570312 10.410156 61.527344 C 11.367188 62.484375 12.425781 67.011719 12.425781 67.011719 C 12.425781 67.011719 7.90625 65.949219 6.949219 64.992188 " fill-opacity="1" fill-rule="nonzero"/><path fill="#ffffff" d="M 20.800781 71.941406 C 21.757812 72.898438 21.757812 74.453125 20.800781 75.410156 C 19.847656 76.367188 18.300781 76.367188 17.34375 75.410156 C 16.390625 74.453125 15.328125 69.921875 15.328125 69.921875 C 15.328125 69.921875 19.847656 70.984375 20.800781 71.941406 " fill-opacity="1" fill-rule="nonzero"/><path fill="#2e2a2b" d="M 4.890625 36.464844 C 4.890625 36.464844 0.0546875 50.042969 13.9375 53.945312 C 13.9375 53.945312 19.417969 43.171875 4.890625 36.464844 " fill-opacity="1" fill-rule="nonzero"/><path stroke-linecap="round" transform="matrix(0.0411504, 0, 0, -0.0412473, -57.170453, 128.693811)" fill="none" stroke-linejoin="round" d="M 1508.153893 2235.999247 C 1508.153893 2235.999247 1390.635181 1906.81116 1728.003115 1812.202731 C 1728.003115 1812.202731 1861.18466 2073.393969 1508.153893 2235.999247 Z M 1508.153893 2235.999247 " stroke="#ffffff" stroke-width="31.837" stroke-opacity="1" stroke-miterlimit="10"/></g></g></g></g></svg>