<svg xmlns="http://www.w3.org/2000/svg" xmlns:xlink="http://www.w3.org/1999/xlink" width="111" zoomAndPan="magnify" viewBox="0 0 83.25 77.999999" height="104" preserveAspectRatio="xMidYMid meet" version="1.0"><defs><filter x="0%" y="0%" width="100%" height="100%" id="08df9747da"><feColorMatrix values="0 0 0 0 1 0 0 0 0 1 0 0 0 0 1 0 0 0 1 0" color-interpolation-filters="sRGB"/></filter><clipPath id="e245f56a58"><path d="M 0 0.347656 L 82.507812 0.347656 L 82.507812 77.652344 L 0 77.652344 Z M 0 0.347656 " clip-rule="nonzero"/></clipPath><mask id="d5c21cd14f"><g filter="url(#08df9747da)"><rect x="-8.325" width="99.9" fill="#000000" y="-7.8" height="93.599999" fill-opacity="0.46"/></g></mask><clipPath id="8cb6f04c4d"><path d="M 7 0.347656 L 76 0.347656 L 76 8 L 7 8 Z M 7 0.347656 " clip-rule="nonzero"/></clipPath><clipPath id="3a7299a705"><path d="M 0.136719 7 L 25 7 L 25 38 L 0.136719 38 Z M 0.136719 7 " clip-rule="nonzero"/></clipPath><clipPath id="cd58976060"><path d="M 58 7 L 82.507812 7 L 82.507812 38 L 58 38 Z M 58 7 " clip-rule="nonzero"/></clipPath><clipPath id="f7ddad0f96"><path d="M 0.136719 32 L 82.507812 32 L 82.507812 77.652344 L 0.136719 77.652344 Z M 0.136719 32 " clip-rule="nonzero"/></clipPath><clipPath id="b05bcac808"><path d="M 15 43 L 38 43 L 38 77.652344 L 15 77.652344 Z M 15 43 " clip-rule="nonzero"/></clipPath><clipPath id="74bc9382cb"><path d="M 45 68 L 68 68 L 68 77.652344 L 45 77.652344 Z M 45 68 " clip-rule="nonzero"/></clipPath><clipPath id="c8669c3fa5"><rect x="0" width="83" y="0" height="78"/></clipPath><mask id="4b1b792e8e"><g filter="url(#08df9747da)"><rect x="-8.325" width="99.9" fill="#000000" y="-7.8" height="93.599999" fill-opacity="0.46"/></g></mask><clipPath id="300b00f7d9"><path d="M 7 0.347656 L 75 0.347656 L 75 8 L 7 8 Z M 7 0.347656 " clip-rule="nonzero"/></clipPath><clipPath id="8a20a89b05"><path d="M 58 7 L 82.507812 7 L 82.507812 38 L 58 38 Z M 58 7 " clip-rule="nonzero"/></clipPath><clipPath id="ae77e7e543"><path d="M 0 32 L 82.507812 32 L 82.507812 77.652344 L 0 77.652344 Z M 0 32 " clip-rule="nonzero"/></clipPath><clipPath id="6e56cc07ce"><path d="M 15 43 L 38 43 L 38 77.652344 L 15 77.652344 Z M 15 43 " clip-rule="nonzero"/></clipPath><clipPath id="c64b746098"><path d="M 45 68 L 68 68 L 68 77.652344 L 45 77.652344 Z M 45 68 " clip-rule="nonzero"/></clipPath><clipPath id="d923074c4b"><rect x="0" width="83" y="0" height="78"/></clipPath></defs><g clip-path="url(#e245f56a58)"><g mask="url(#d5c21cd14f)"><g transform="matrix(1, 0, 0, 1, 0, 0.000000000000019762)"><g clip-path="url(#c8669c3fa5)"><g clip-path="url(#8cb6f04c4d)"><path fill="#000000" d="M 11.210938 7.292969 C 9.601562 7.292969 8.136719 6.175781 7.785156 4.628906 C 7.347656 2.949219 8.34375 1.125 10.011719 0.5625 C 10.027344 0.554688 10.046875 0.550781 10.0625 0.546875 C 10.773438 0.347656 11.484375 0.355469 12.113281 0.363281 C 12.3125 0.367188 12.511719 0.367188 12.710938 0.363281 C 21.613281 0.375 30.492188 0.371094 39.371094 0.367188 C 49.945312 0.367188 60.875 0.363281 71.628906 0.382812 C 72.585938 0.355469 73.523438 0.769531 74.199219 1.527344 C 74.886719 2.292969 75.199219 3.285156 75.058594 4.242188 C 74.96875 5.109375 74.527344 5.902344 73.816406 6.480469 C 73.097656 7.066406 72.175781 7.355469 71.277344 7.277344 C 62.738281 7.277344 54.203125 7.277344 45.664062 7.277344 C 34.273438 7.277344 22.882812 7.277344 11.492188 7.28125 C 11.398438 7.289062 11.304688 7.292969 11.210938 7.292969 Z M 10.597656 2.355469 C 9.882812 2.609375 9.425781 3.449219 9.617188 4.164062 C 9.621094 4.179688 9.625 4.191406 9.625 4.207031 C 9.785156 4.925781 10.578125 5.476562 11.359375 5.402344 C 11.390625 5.398438 11.417969 5.394531 11.449219 5.394531 C 22.855469 5.390625 34.257812 5.394531 45.664062 5.394531 C 54.214844 5.394531 62.769531 5.394531 71.324219 5.390625 C 71.355469 5.390625 71.390625 5.394531 71.421875 5.398438 C 71.835938 5.441406 72.273438 5.304688 72.621094 5.023438 C 72.945312 4.757812 73.144531 4.410156 73.179688 4.039062 C 73.179688 4.019531 73.183594 4.003906 73.183594 3.984375 C 73.25 3.582031 73.101562 3.128906 72.789062 2.78125 C 72.484375 2.441406 72.074219 2.25 71.675781 2.265625 C 71.664062 2.265625 71.65625 2.265625 71.640625 2.265625 C 60.882812 2.25 49.949219 2.25 39.371094 2.253906 C 30.492188 2.257812 21.609375 2.257812 12.734375 2.25 C 12.535156 2.253906 12.3125 2.25 12.089844 2.25 C 11.550781 2.242188 11.039062 2.234375 10.597656 2.355469 Z M 10.597656 2.355469 " fill-opacity="1" fill-rule="nonzero"/></g><g clip-path="url(#3a7299a705)"><path fill="#000000" d="M 7.816406 37.40625 C 7.21875 37.40625 6.625 37.363281 6.03125 37.277344 C 3.351562 36.789062 1.121094 34.71875 0.183594 31.863281 C 0.152344 31.769531 0.132812 31.671875 0.132812 31.570312 L 0.132812 29.746094 C 0.132812 29.605469 0.164062 29.46875 0.222656 29.34375 C 1.867188 25.867188 3.449219 22.285156 4.980469 18.820312 C 6.488281 15.410156 8.046875 11.882812 9.667969 8.445312 C 9.824219 8.117188 10.15625 7.902344 10.523438 7.902344 C 13.386719 7.902344 16.253906 7.902344 19.121094 7.902344 L 23.421875 7.902344 C 23.707031 7.902344 23.976562 8.03125 24.15625 8.253906 C 24.335938 8.472656 24.402344 8.761719 24.34375 9.039062 C 23.519531 12.914062 22.636719 16.835938 21.785156 20.632812 C 21.03125 23.980469 20.253906 27.441406 19.515625 30.851562 C 19.511719 30.878906 19.503906 30.90625 19.496094 30.929688 C 19.46875 31.015625 19.449219 31.109375 19.425781 31.203125 C 19.324219 31.644531 19.167969 32.308594 18.539062 32.742188 C 17.964844 33.179688 17.371094 33.59375 16.796875 33.996094 C 16.398438 34.273438 16.003906 34.546875 15.613281 34.832031 C 13.316406 36.507812 10.550781 37.40625 7.816406 37.40625 Z M 7.816406 37.40625 " fill-opacity="1" fill-rule="nonzero"/></g><path fill="#000000" d="M 30.171875 37.441406 C 28.722656 37.441406 27.277344 37.183594 25.949219 36.660156 C 24.488281 36.089844 23.441406 35.066406 22.429688 34.078125 C 21.785156 33.445312 21.171875 32.847656 20.480469 32.394531 C 20.160156 32.183594 20 31.796875 20.074219 31.417969 C 20.953125 27.089844 21.945312 22.714844 22.902344 18.480469 C 23.628906 15.273438 24.382812 11.957031 25.078125 8.691406 C 25.167969 8.261719 25.542969 7.953125 25.984375 7.941406 C 29.273438 7.882812 32.613281 7.894531 35.84375 7.90625 C 37.269531 7.910156 38.695312 7.917969 40.121094 7.914062 C 40.371094 7.914062 40.613281 8.015625 40.789062 8.191406 C 40.96875 8.367188 41.066406 8.609375 41.066406 8.859375 C 41.058594 11.554688 41.066406 14.296875 41.078125 16.949219 C 41.09375 21.777344 41.113281 26.769531 41.023438 31.683594 C 41.019531 32.035156 40.816406 32.351562 40.503906 32.507812 C 39.683594 32.917969 38.980469 33.542969 38.234375 34.207031 C 37.382812 34.960938 36.503906 35.742188 35.378906 36.265625 C 33.761719 37.046875 31.960938 37.441406 30.171875 37.441406 Z M 30.171875 37.441406 " fill-opacity="1" fill-rule="nonzero"/><path fill="#000000" d="M 52.636719 37.4375 C 51.039062 37.4375 49.398438 37.121094 47.859375 36.484375 C 46.542969 35.964844 45.539062 35.078125 44.570312 34.21875 C 43.816406 33.550781 43.105469 32.921875 42.28125 32.492188 C 41.972656 32.335938 41.777344 32.019531 41.769531 31.675781 C 41.679688 26.417969 41.691406 21.074219 41.703125 15.90625 C 41.707031 13.558594 41.714844 11.207031 41.710938 8.859375 C 41.710938 8.609375 41.808594 8.367188 41.984375 8.191406 C 42.164062 8.015625 42.402344 7.914062 42.65625 7.914062 C 44.136719 7.917969 45.617188 7.910156 47.097656 7.90625 C 50.273438 7.894531 53.554688 7.882812 56.789062 7.945312 C 57.230469 7.953125 57.605469 8.265625 57.695312 8.691406 C 58.410156 12.046875 59.175781 15.453125 59.917969 18.746094 C 60.847656 22.890625 61.8125 27.179688 62.6875 31.414062 C 62.765625 31.792969 62.601562 32.179688 62.277344 32.390625 C 61.597656 32.835938 61 33.425781 60.371094 34.050781 C 59.472656 34.945312 58.542969 35.867188 57.269531 36.445312 C 55.867188 37.105469 54.273438 37.4375 52.636719 37.4375 Z M 52.636719 37.4375 " fill-opacity="1" fill-rule="nonzero"/><g clip-path="url(#cd58976060)"><path fill="#000000" d="M 75.039062 37.417969 C 74.21875 37.417969 73.34375 37.324219 72.414062 37.136719 C 69.101562 36.558594 66.390625 34.386719 64 32.472656 L 63.878906 32.375 C 63.714844 32.246094 63.597656 32.0625 63.550781 31.859375 C 62.441406 27.238281 61.398438 22.523438 60.390625 17.960938 C 59.746094 15.050781 59.082031 12.039062 58.40625 9.085938 C 58.339844 8.808594 58.40625 8.515625 58.582031 8.292969 C 58.761719 8.070312 59.027344 7.9375 59.3125 7.933594 C 62.410156 7.886719 65.554688 7.894531 68.59375 7.902344 C 69.8125 7.90625 71.027344 7.910156 72.246094 7.910156 C 72.613281 7.910156 72.945312 8.121094 73.101562 8.453125 C 74.675781 11.8125 76.199219 15.253906 77.671875 18.585938 C 79.242188 22.136719 80.863281 25.804688 82.546875 29.367188 C 82.605469 29.492188 82.636719 29.628906 82.636719 29.769531 L 82.636719 31.597656 C 82.636719 31.722656 82.613281 31.839844 82.566406 31.953125 C 81.96875 33.417969 81.058594 35.230469 79.273438 36.265625 C 78.113281 37.03125 76.695312 37.417969 75.039062 37.417969 Z M 75.039062 37.417969 " fill-opacity="1" fill-rule="nonzero"/></g><g clip-path="url(#f7ddad0f96)"><path fill="#000000" d="M 2.734375 77.621094 C 1.941406 77.621094 1.167969 77.320312 0.472656 76.742188 C 0.257812 76.5625 0.136719 76.300781 0.136719 76.019531 L 0.136719 74.765625 C 0.136719 74.472656 0.273438 74.195312 0.503906 74.019531 C 1.75 73.0625 3.195312 73.140625 4.46875 73.207031 C 4.707031 73.21875 4.941406 73.234375 5.164062 73.238281 C 5.179688 67.863281 5.175781 62.417969 5.175781 57.140625 C 5.171875 51.179688 5.167969 45.015625 5.191406 38.957031 C 5.191406 38.695312 5.300781 38.445312 5.492188 38.269531 C 5.679688 38.09375 5.9375 38 6.195312 38.019531 C 9.46875 38.230469 12.613281 37.503906 15.046875 35.976562 C 15.054688 35.972656 15.0625 35.964844 15.070312 35.960938 C 15.632812 35.628906 16.160156 35.234375 16.714844 34.8125 C 17.585938 34.160156 18.484375 33.480469 19.570312 33.027344 C 19.898438 32.890625 20.273438 32.949219 20.542969 33.179688 C 21.058594 33.609375 21.53125 34.078125 21.988281 34.53125 C 22.808594 35.34375 23.585938 36.109375 24.519531 36.632812 C 26.789062 38.003906 29.820312 38.394531 33.074219 37.746094 C 35.078125 37.347656 37.0625 36.230469 38.8125 34.515625 C 38.832031 34.496094 38.851562 34.480469 38.875 34.460938 C 38.96875 34.382812 39.074219 34.289062 39.179688 34.195312 C 39.835938 33.601562 41.207031 32.371094 42.660156 33.449219 C 43.210938 33.863281 43.722656 34.3125 44.21875 34.742188 C 45.230469 35.625 46.1875 36.457031 47.335938 36.945312 C 50.789062 38.476562 54.820312 38.4375 57.878906 36.847656 C 59.003906 36.285156 59.90625 35.402344 60.863281 34.464844 C 61.296875 34.039062 61.746094 33.597656 62.222656 33.183594 C 62.492188 32.949219 62.875 32.886719 63.207031 33.027344 C 64.226562 33.449219 65.066406 34.085938 65.882812 34.695312 C 66.132812 34.886719 66.382812 35.074219 66.636719 35.253906 C 69.34375 37.300781 72.867188 38.277344 76.578125 38.019531 C 76.835938 38 77.09375 38.089844 77.285156 38.269531 C 77.476562 38.445312 77.585938 38.695312 77.585938 38.957031 C 77.613281 44.902344 77.609375 50.945312 77.605469 56.792969 C 77.601562 62.183594 77.59375 67.75 77.617188 73.242188 C 77.847656 73.234375 78.09375 73.222656 78.34375 73.207031 C 79.632812 73.132812 81.089844 73.050781 82.308594 74.085938 C 82.519531 74.265625 82.640625 74.527344 82.640625 74.804688 L 82.640625 76.0625 C 82.640625 76.398438 82.460938 76.710938 82.164062 76.878906 C 82.089844 76.921875 82.015625 76.96875 81.9375 77.011719 C 81.492188 77.285156 80.886719 77.652344 80.109375 77.605469 L 78.636719 77.605469 C 75.515625 77.613281 72.28125 77.621094 69.101562 77.59375 C 68.589844 77.59375 68.175781 77.183594 68.164062 76.671875 C 68.140625 75.300781 68.148438 73.914062 68.15625 72.570312 C 68.167969 71.039062 68.179688 69.449219 68.136719 67.902344 C 68.132812 67.867188 68.136719 67.832031 68.140625 67.796875 C 68.144531 67.738281 68.132812 67.710938 68.097656 67.675781 C 68.019531 67.597656 67.84375 67.535156 67.660156 67.558594 C 67.621094 67.5625 67.578125 67.558594 67.542969 67.5625 C 64.097656 67.558594 60.644531 67.558594 57.195312 67.558594 C 53.390625 67.5625 49.582031 67.5625 45.777344 67.554688 C 45.761719 67.554688 45.75 67.554688 45.734375 67.554688 C 45.242188 67.53125 44.992188 67.613281 44.914062 67.660156 C 44.820312 69.332031 44.839844 71.039062 44.855469 72.691406 C 44.867188 73.996094 44.878906 75.34375 44.839844 76.679688 C 44.828125 77.183594 44.417969 77.585938 43.917969 77.59375 C 42.445312 77.625 40.886719 77.625 38.871094 77.59375 C 38.355469 77.589844 37.941406 77.171875 37.941406 76.65625 C 37.917969 68.792969 37.921875 60.800781 37.925781 53.070312 C 37.929688 49.832031 37.929688 46.597656 37.929688 43.359375 L 37.929688 43.292969 C 37.921875 43.085938 37.914062 42.664062 37.84375 42.515625 C 37.328125 42.414062 36.765625 42.421875 36.171875 42.433594 C 35.910156 42.4375 35.648438 42.441406 35.386719 42.4375 C 29.511719 42.453125 23.515625 42.445312 17.714844 42.441406 L 15.546875 42.4375 L 15.507812 42.4375 C 15.289062 42.445312 14.851562 42.449219 14.703125 42.527344 C 14.585938 43.160156 14.601562 43.832031 14.617188 44.542969 C 14.621094 44.890625 14.628906 45.246094 14.621094 45.605469 C 14.621094 48.605469 14.625 51.625 14.625 54.644531 C 14.628906 61.859375 14.632812 69.316406 14.613281 76.65625 C 14.609375 77.171875 14.195312 77.589844 13.675781 77.59375 C 11.65625 77.613281 9.605469 77.613281 7.621094 77.609375 C 6.082031 77.605469 4.539062 77.605469 2.996094 77.613281 C 2.90625 77.621094 2.820312 77.621094 2.734375 77.621094 Z M 2.023438 75.535156 C 2.261719 75.667969 2.542969 75.765625 2.855469 75.734375 C 2.882812 75.730469 2.914062 75.730469 2.941406 75.730469 C 4.5 75.71875 6.058594 75.722656 7.621094 75.722656 C 9.292969 75.726562 11.011719 75.730469 12.722656 75.71875 C 12.738281 68.683594 12.734375 61.550781 12.730469 54.644531 C 12.730469 51.625 12.726562 48.601562 12.726562 45.582031 C 12.734375 45.242188 12.730469 44.921875 12.722656 44.578125 C 12.707031 43.761719 12.6875 42.917969 12.867188 42.050781 C 12.871094 42.019531 12.878906 41.992188 12.890625 41.964844 C 13.3125 40.59375 14.769531 40.566406 15.464844 40.554688 L 15.523438 40.550781 L 17.710938 40.554688 C 23.507812 40.5625 29.503906 40.566406 35.398438 40.550781 C 35.652344 40.558594 35.894531 40.550781 36.136719 40.550781 C 36.84375 40.535156 37.578125 40.523438 38.335938 40.695312 C 38.363281 40.703125 38.386719 40.707031 38.410156 40.714844 C 39.761719 41.132812 39.796875 42.5625 39.8125 43.25 L 39.8125 43.335938 C 39.8125 46.597656 39.8125 49.832031 39.808594 53.070312 C 39.804688 60.496094 39.800781 68.164062 39.820312 75.722656 C 40.996094 75.734375 42.015625 75.738281 42.964844 75.726562 C 42.976562 74.714844 42.96875 73.699219 42.957031 72.707031 C 42.941406 71.019531 42.921875 69.277344 43.019531 67.546875 C 43.050781 67.074219 43.339844 65.570312 45.789062 65.671875 C 49.589844 65.679688 53.390625 65.675781 57.1875 65.675781 C 60.621094 65.675781 64.054688 65.671875 67.488281 65.679688 C 68.199219 65.613281 68.910156 65.847656 69.398438 66.316406 C 69.832031 66.734375 70.050781 67.292969 70.015625 67.894531 C 70.058594 69.460938 70.050781 71.046875 70.039062 72.582031 C 70.03125 73.613281 70.023438 74.667969 70.035156 75.71875 C 72.90625 75.734375 75.808594 75.730469 78.625 75.722656 L 80.132812 75.71875 C 80.15625 75.71875 80.183594 75.722656 80.207031 75.722656 C 80.347656 75.734375 80.539062 75.644531 80.742188 75.523438 L 80.742188 75.300781 C 80.132812 74.992188 79.335938 75.035156 78.441406 75.085938 C 77.820312 75.121094 77.183594 75.15625 76.542969 75.074219 C 76.074219 75.011719 75.722656 74.617188 75.722656 74.144531 C 75.699219 68.359375 75.703125 62.476562 75.707031 56.789062 C 75.710938 51.265625 75.714844 45.5625 75.695312 39.9375 C 71.898438 39.996094 68.3125 38.886719 65.507812 36.769531 C 65.265625 36.59375 65 36.398438 64.738281 36.199219 C 64.152344 35.757812 63.59375 35.335938 63 35.015625 C 62.726562 35.269531 62.460938 35.535156 62.179688 35.804688 C 61.164062 36.804688 60.109375 37.835938 58.730469 38.523438 C 55.1875 40.367188 50.527344 40.425781 46.578125 38.671875 C 45.164062 38.074219 44.050781 37.101562 42.96875 36.160156 C 42.476562 35.730469 42.011719 35.324219 41.519531 34.953125 C 41.363281 34.839844 41.109375 34.988281 40.4375 35.589844 C 40.324219 35.695312 40.210938 35.796875 40.105469 35.882812 C 38.097656 37.84375 35.792969 39.125 33.4375 39.59375 C 29.71875 40.335938 26.210938 39.859375 23.558594 38.257812 C 22.429688 37.625 21.527344 36.734375 20.652344 35.871094 C 20.351562 35.574219 20.0625 35.285156 19.769531 35.015625 C 19.109375 35.367188 18.492188 35.832031 17.847656 36.316406 C 17.277344 36.75 16.683594 37.195312 16.039062 37.578125 C 13.484375 39.175781 10.40625 39.980469 7.070312 39.9375 C 7.050781 45.679688 7.054688 51.5 7.058594 57.136719 C 7.0625 62.710938 7.0625 68.476562 7.046875 74.148438 C 7.046875 74.625 6.683594 75.027344 6.207031 75.082031 C 5.585938 75.152344 4.964844 75.121094 4.367188 75.089844 C 3.460938 75.042969 2.664062 75 2.019531 75.292969 L 2.019531 75.535156 Z M 70.269531 65.0625 C 70.179688 65.0625 70.09375 65.058594 70.007812 65.046875 C 66.417969 65.046875 62.832031 65.046875 59.242188 65.046875 C 53.824219 65.046875 48.410156 65.050781 42.996094 65.042969 C 42.289062 65.117188 41.582031 64.882812 41.085938 64.414062 C 40.640625 63.992188 40.421875 63.433594 40.457031 62.828125 C 40.4375 59.335938 40.441406 55.789062 40.445312 52.359375 C 40.445312 49.414062 40.449219 46.363281 40.4375 43.367188 C 40.421875 42.859375 40.375 41.234375 41.792969 40.722656 C 41.828125 40.707031 41.863281 40.699219 41.902344 40.691406 C 42.628906 40.523438 43.328125 40.535156 44.003906 40.550781 C 44.289062 40.558594 44.558594 40.5625 44.820312 40.554688 L 48.480469 40.558594 C 55.570312 40.558594 62.65625 40.5625 69.742188 40.550781 C 69.757812 40.554688 69.777344 40.550781 69.796875 40.554688 C 69.875 40.558594 69.957031 40.558594 70.039062 40.5625 C 70.554688 40.570312 71.328125 40.585938 71.921875 41.1875 C 72.527344 41.773438 72.546875 42.542969 72.558594 43.054688 C 72.558594 43.140625 72.5625 43.226562 72.566406 43.308594 C 72.566406 43.328125 72.566406 43.347656 72.566406 43.367188 C 72.554688 46.367188 72.558594 49.414062 72.558594 52.359375 C 72.5625 55.792969 72.566406 59.339844 72.546875 62.828125 C 72.582031 63.4375 72.355469 64.003906 71.902344 64.425781 C 71.46875 64.835938 70.875 65.0625 70.269531 65.0625 Z M 65.925781 63.164062 C 67.304688 63.164062 68.683594 63.164062 70.0625 63.164062 C 70.109375 63.164062 70.152344 63.167969 70.195312 63.171875 C 70.339844 63.195312 70.511719 63.144531 70.605469 63.054688 C 70.660156 63.007812 70.660156 62.972656 70.65625 62.933594 C 70.65625 62.90625 70.65625 62.878906 70.65625 62.851562 C 70.679688 59.359375 70.675781 55.800781 70.671875 52.363281 C 70.667969 49.421875 70.664062 46.382812 70.679688 43.390625 C 70.671875 43.296875 70.671875 43.199219 70.667969 43.097656 C 70.664062 42.9375 70.65625 42.601562 70.605469 42.539062 C 70.597656 42.527344 70.589844 42.519531 70.578125 42.511719 C 70.523438 42.453125 70.171875 42.449219 70 42.445312 C 69.90625 42.441406 69.8125 42.441406 69.71875 42.4375 C 62.640625 42.445312 55.5625 42.441406 48.480469 42.441406 L 44.851562 42.4375 C 44.566406 42.449219 44.261719 42.441406 43.960938 42.433594 C 43.410156 42.421875 42.890625 42.410156 42.417969 42.503906 C 42.390625 42.542969 42.308594 42.707031 42.324219 43.335938 C 42.339844 46.363281 42.335938 49.414062 42.332031 52.363281 C 42.328125 55.800781 42.324219 59.359375 42.347656 62.851562 C 42.347656 62.878906 42.347656 62.910156 42.34375 62.9375 C 42.339844 62.980469 42.34375 63.007812 42.390625 63.046875 C 42.472656 63.125 42.644531 63.191406 42.820312 63.167969 C 42.859375 63.160156 42.898438 63.148438 42.945312 63.160156 C 48.375 63.164062 53.808594 63.164062 59.242188 63.164062 C 61.46875 63.164062 63.695312 63.164062 65.925781 63.164062 Z M 65.925781 63.164062 " fill-opacity="1" fill-rule="nonzero"/></g><g clip-path="url(#b05bcac808)"><path fill="#000000" d="M 27.03125 77.609375 C 23.710938 77.609375 20.144531 77.605469 16.203125 77.601562 C 15.683594 77.597656 15.261719 77.179688 15.261719 76.660156 C 15.242188 66.675781 15.242188 56 15.261719 44.019531 C 15.261719 43.5 15.683594 43.082031 16.203125 43.078125 C 22.886719 43.0625 29.664062 43.0625 36.34375 43.078125 C 36.863281 43.082031 37.285156 43.5 37.285156 44.019531 C 37.296875 56.746094 37.296875 67.117188 37.285156 76.660156 C 37.285156 77.179688 36.863281 77.601562 36.34375 77.601562 C 33.414062 77.605469 30.347656 77.609375 27.03125 77.609375 Z M 17.148438 75.71875 C 24.183594 75.726562 30.03125 75.726562 35.398438 75.71875 C 35.40625 66.671875 35.40625 56.84375 35.398438 44.960938 C 29.339844 44.945312 23.207031 44.945312 17.148438 44.960938 C 17.132812 56.183594 17.132812 66.269531 17.148438 75.71875 Z M 17.148438 75.71875 " fill-opacity="1" fill-rule="nonzero"/></g><path fill="#000000" d="M 57.183594 62.539062 C 52.660156 62.539062 48.210938 62.535156 43.914062 62.53125 C 43.394531 62.527344 42.972656 62.109375 42.972656 61.589844 C 42.953125 55.585938 42.960938 49.617188 42.96875 44.015625 C 42.96875 43.496094 43.390625 43.078125 43.910156 43.074219 C 53.761719 43.066406 61.761719 43.066406 69.089844 43.074219 C 69.609375 43.078125 70.03125 43.496094 70.035156 44.015625 C 70.050781 49.84375 70.050781 55.757812 70.035156 61.585938 C 70.03125 62.105469 69.609375 62.523438 69.089844 62.527344 C 65.097656 62.535156 61.109375 62.539062 57.183594 62.539062 Z M 57.183594 62.539062 " fill-opacity="1" fill-rule="nonzero"/><g clip-path="url(#74bc9382cb)"><path fill="#000000" d="M 56.046875 77.609375 C 52.707031 77.609375 49.515625 77.605469 46.433594 77.597656 C 45.914062 77.59375 45.492188 77.179688 45.488281 76.664062 C 45.472656 74.164062 45.472656 71.628906 45.488281 69.132812 C 45.492188 68.617188 45.914062 68.199219 46.433594 68.195312 C 53.8125 68.179688 60.398438 68.179688 66.570312 68.195312 C 67.085938 68.199219 67.507812 68.613281 67.511719 69.128906 C 67.539062 71.640625 67.527344 74.191406 67.511719 76.660156 C 67.511719 77.175781 67.089844 77.59375 66.570312 77.597656 C 62.882812 77.605469 59.386719 77.609375 56.046875 77.609375 Z M 47.371094 75.714844 C 53.007812 75.730469 59 75.730469 65.628906 75.714844 C 65.636719 73.855469 65.644531 71.957031 65.632812 70.078125 C 60 70.0625 54.007812 70.0625 47.375 70.078125 C 47.363281 71.953125 47.363281 73.84375 47.371094 75.714844 Z M 47.371094 75.714844 " fill-opacity="1" fill-rule="nonzero"/></g></g></g></g><g mask="url(#4b1b792e8e)"><g transform="matrix(1, 0, 0, 1, 0, 0.000000000000019762)"><g clip-path="url(#d923074c4b)"><g clip-path="url(#300b00f7d9)"><path fill="#000000" d="M 11.074219 7.292969 C 9.464844 7.292969 8 6.175781 7.648438 4.628906 C 7.210938 2.949219 8.207031 1.125 9.878906 0.5625 C 9.894531 0.554688 9.910156 0.550781 9.925781 0.546875 C 10.636719 0.347656 11.347656 0.355469 11.976562 0.363281 C 12.175781 0.367188 12.378906 0.367188 12.578125 0.363281 C 21.476562 0.375 30.355469 0.371094 39.238281 0.367188 C 49.808594 0.367188 60.738281 0.363281 71.492188 0.382812 C 72.453125 0.355469 73.386719 0.769531 74.066406 1.527344 C 74.75 2.292969 75.0625 3.285156 74.921875 4.242188 C 74.832031 5.109375 74.390625 5.902344 73.683594 6.480469 C 72.960938 7.066406 72.039062 7.355469 71.140625 7.277344 C 62.601562 7.277344 54.066406 7.277344 45.527344 7.277344 C 34.136719 7.277344 22.746094 7.277344 11.355469 7.28125 C 11.261719 7.289062 11.167969 7.292969 11.074219 7.292969 Z M 10.460938 2.355469 C 9.746094 2.609375 9.289062 3.449219 9.480469 4.164062 C 9.484375 4.179688 9.488281 4.191406 9.492188 4.207031 C 9.648438 4.925781 10.441406 5.476562 11.226562 5.402344 C 11.253906 5.398438 11.285156 5.394531 11.3125 5.394531 C 22.71875 5.390625 34.125 5.394531 45.527344 5.394531 C 54.082031 5.394531 62.632812 5.394531 71.1875 5.390625 C 71.21875 5.390625 71.253906 5.394531 71.285156 5.398438 C 71.703125 5.441406 72.136719 5.304688 72.488281 5.023438 C 72.808594 4.757812 73.007812 4.410156 73.042969 4.039062 C 73.042969 4.019531 73.046875 4.003906 73.050781 3.984375 C 73.113281 3.582031 72.964844 3.128906 72.652344 2.78125 C 72.347656 2.441406 71.941406 2.25 71.539062 2.265625 C 71.527344 2.265625 71.519531 2.265625 71.503906 2.265625 C 60.746094 2.25 49.8125 2.25 39.234375 2.253906 C 30.355469 2.257812 21.476562 2.257812 12.597656 2.25 C 12.398438 2.253906 12.175781 2.25 11.953125 2.25 C 11.414062 2.242188 10.902344 2.234375 10.460938 2.355469 Z M 10.460938 2.355469 " fill-opacity="1" fill-rule="nonzero"/></g><path fill="#000000" d="M 7.679688 37.40625 C 7.082031 37.40625 6.488281 37.363281 5.898438 37.277344 C 3.214844 36.789062 0.984375 34.71875 0.046875 31.863281 C 0.015625 31.769531 0 31.671875 0 31.570312 L 0 29.746094 C 0 29.605469 0.03125 29.46875 0.0898438 29.34375 C 1.730469 25.867188 3.3125 22.285156 4.847656 18.820312 C 6.355469 15.410156 7.914062 11.882812 9.53125 8.445312 C 9.6875 8.117188 10.019531 7.902344 10.386719 7.902344 C 13.253906 7.902344 16.117188 7.902344 18.984375 7.902344 L 23.285156 7.902344 C 23.570312 7.902344 23.839844 8.03125 24.019531 8.253906 C 24.199219 8.472656 24.269531 8.761719 24.210938 9.039062 C 23.386719 12.914062 22.5 16.835938 21.648438 20.632812 C 20.894531 23.980469 20.117188 27.441406 19.382812 30.851562 C 19.375 30.878906 19.367188 30.90625 19.359375 30.929688 C 19.332031 31.015625 19.3125 31.109375 19.292969 31.203125 C 19.1875 31.644531 19.035156 32.308594 18.40625 32.742188 C 17.828125 33.179688 17.234375 33.59375 16.660156 33.996094 C 16.265625 34.273438 15.867188 34.546875 15.476562 34.832031 C 13.179688 36.507812 10.417969 37.40625 7.679688 37.40625 Z M 7.679688 37.40625 " fill-opacity="1" fill-rule="nonzero"/><path fill="#000000" d="M 30.035156 37.441406 C 28.585938 37.441406 27.144531 37.183594 25.8125 36.660156 C 24.351562 36.089844 23.304688 35.066406 22.296875 34.078125 C 21.648438 33.445312 21.039062 32.847656 20.34375 32.394531 C 20.023438 32.183594 19.863281 31.796875 19.9375 31.417969 C 20.816406 27.089844 21.808594 22.714844 22.769531 18.480469 C 23.496094 15.273438 24.246094 11.957031 24.941406 8.691406 C 25.03125 8.261719 25.410156 7.953125 25.847656 7.941406 C 29.136719 7.882812 32.476562 7.894531 35.707031 7.90625 C 37.132812 7.910156 38.558594 7.917969 39.984375 7.914062 C 40.238281 7.914062 40.476562 8.015625 40.652344 8.191406 C 40.832031 8.367188 40.929688 8.609375 40.929688 8.859375 C 40.921875 11.554688 40.933594 14.296875 40.941406 16.949219 C 40.960938 21.777344 40.976562 26.769531 40.890625 31.683594 C 40.882812 32.035156 40.683594 32.351562 40.367188 32.507812 C 39.550781 32.917969 38.84375 33.542969 38.097656 34.207031 C 37.246094 34.960938 36.367188 35.742188 35.242188 36.265625 C 33.628906 37.046875 31.824219 37.441406 30.035156 37.441406 Z M 30.035156 37.441406 " fill-opacity="1" fill-rule="nonzero"/><path fill="#000000" d="M 52.503906 37.4375 C 50.902344 37.4375 49.261719 37.121094 47.722656 36.484375 C 46.410156 35.964844 45.40625 35.078125 44.433594 34.21875 C 43.679688 33.550781 42.96875 32.921875 42.144531 32.492188 C 41.835938 32.335938 41.640625 32.019531 41.636719 31.675781 C 41.546875 26.417969 41.558594 21.074219 41.570312 15.90625 C 41.574219 13.558594 41.578125 11.207031 41.574219 8.859375 C 41.574219 8.609375 41.675781 8.367188 41.851562 8.191406 C 42.027344 8.015625 42.269531 7.914062 42.519531 7.914062 C 44 7.917969 45.480469 7.910156 46.960938 7.90625 C 50.136719 7.894531 53.421875 7.882812 56.652344 7.945312 C 57.09375 7.953125 57.46875 8.265625 57.558594 8.691406 C 58.273438 12.046875 59.039062 15.453125 59.78125 18.746094 C 60.714844 22.890625 61.679688 27.179688 62.550781 31.414062 C 62.628906 31.792969 62.46875 32.179688 62.140625 32.390625 C 61.460938 32.835938 60.867188 33.425781 60.234375 34.050781 C 59.335938 34.945312 58.40625 35.867188 57.132812 36.445312 C 55.730469 37.105469 54.136719 37.4375 52.503906 37.4375 Z M 52.503906 37.4375 " fill-opacity="1" fill-rule="nonzero"/><g clip-path="url(#8a20a89b05)"><path fill="#000000" d="M 74.902344 37.417969 C 74.085938 37.417969 73.207031 37.324219 72.277344 37.136719 C 68.964844 36.558594 66.253906 34.386719 63.863281 32.472656 L 63.742188 32.375 C 63.578125 32.246094 63.464844 32.0625 63.414062 31.859375 C 62.304688 27.238281 61.261719 22.523438 60.253906 17.960938 C 59.613281 15.050781 58.945312 12.039062 58.269531 9.085938 C 58.207031 8.808594 58.273438 8.515625 58.449219 8.292969 C 58.625 8.070312 58.890625 7.9375 59.175781 7.933594 C 62.273438 7.886719 65.417969 7.894531 68.460938 7.902344 C 69.675781 7.90625 70.894531 7.910156 72.109375 7.910156 C 72.476562 7.910156 72.808594 8.121094 72.964844 8.453125 C 74.539062 11.8125 76.0625 15.253906 77.535156 18.585938 C 79.105469 22.136719 80.726562 25.804688 82.410156 29.367188 C 82.46875 29.492188 82.5 29.628906 82.5 29.769531 L 82.5 31.597656 C 82.5 31.722656 82.476562 31.839844 82.429688 31.953125 C 81.835938 33.417969 80.921875 35.230469 79.140625 36.265625 C 77.980469 37.03125 76.558594 37.417969 74.902344 37.417969 Z M 74.902344 37.417969 " fill-opacity="1" fill-rule="nonzero"/></g><g clip-path="url(#ae77e7e543)"><path fill="#000000" d="M 2.597656 77.621094 C 1.808594 77.621094 1.03125 77.320312 0.335938 76.742188 C 0.125 76.5625 0 76.300781 0 76.019531 L 0 74.765625 C 0 74.472656 0.136719 74.195312 0.371094 74.019531 C 1.617188 73.0625 3.0625 73.140625 4.335938 73.207031 C 4.574219 73.21875 4.804688 73.234375 5.027344 73.238281 C 5.042969 67.863281 5.039062 62.417969 5.039062 57.140625 C 5.035156 51.179688 5.03125 45.015625 5.054688 38.957031 C 5.054688 38.695312 5.164062 38.445312 5.355469 38.269531 C 5.546875 38.09375 5.800781 38 6.0625 38.019531 C 9.335938 38.230469 12.476562 37.503906 14.914062 35.976562 C 14.917969 35.972656 14.929688 35.964844 14.933594 35.960938 C 15.496094 35.628906 16.023438 35.234375 16.578125 34.8125 C 17.449219 34.160156 18.347656 33.480469 19.433594 33.027344 C 19.761719 32.890625 20.136719 32.949219 20.410156 33.179688 C 20.921875 33.609375 21.394531 34.078125 21.855469 34.53125 C 22.675781 35.34375 23.449219 36.109375 24.382812 36.632812 C 26.65625 38.003906 29.683594 38.394531 32.941406 37.746094 C 34.945312 37.347656 36.929688 36.230469 38.679688 34.515625 C 38.699219 34.496094 38.714844 34.480469 38.738281 34.460938 C 38.835938 34.382812 38.9375 34.289062 39.042969 34.195312 C 39.699219 33.601562 41.070312 32.371094 42.523438 33.449219 C 43.074219 33.863281 43.585938 34.3125 44.085938 34.742188 C 45.097656 35.625 46.050781 36.457031 47.203125 36.945312 C 50.652344 38.476562 54.683594 38.4375 57.742188 36.847656 C 58.867188 36.285156 59.769531 35.402344 60.726562 34.464844 C 61.160156 34.039062 61.609375 33.597656 62.085938 33.183594 C 62.359375 32.949219 62.738281 32.886719 63.070312 33.027344 C 64.089844 33.449219 64.933594 34.085938 65.746094 34.695312 C 65.996094 34.886719 66.246094 35.074219 66.5 35.253906 C 69.210938 37.300781 72.730469 38.277344 76.441406 38.019531 C 76.703125 38 76.957031 38.089844 77.148438 38.269531 C 77.339844 38.445312 77.449219 38.695312 77.453125 38.957031 C 77.476562 44.902344 77.472656 50.945312 77.46875 56.792969 C 77.464844 62.183594 77.460938 67.75 77.480469 73.242188 C 77.714844 73.234375 77.957031 73.222656 78.207031 73.207031 C 79.496094 73.132812 80.957031 73.050781 82.175781 74.085938 C 82.386719 74.265625 82.507812 74.527344 82.507812 74.804688 L 82.507812 76.0625 C 82.507812 76.398438 82.324219 76.710938 82.03125 76.878906 C 81.953125 76.921875 81.878906 76.96875 81.804688 77.011719 C 81.355469 77.285156 80.75 77.652344 79.972656 77.605469 L 78.503906 77.605469 C 75.378906 77.613281 72.144531 77.621094 68.96875 77.59375 C 68.457031 77.59375 68.039062 77.183594 68.03125 76.671875 C 68.003906 75.300781 68.011719 73.914062 68.023438 72.570312 C 68.03125 71.039062 68.042969 69.449219 68 67.902344 C 68 67.867188 68 67.832031 68.003906 67.796875 C 68.007812 67.738281 68 67.710938 67.960938 67.675781 C 67.882812 67.597656 67.707031 67.535156 67.527344 67.558594 C 67.488281 67.5625 67.445312 67.558594 67.410156 67.5625 C 63.960938 67.558594 60.511719 67.558594 57.0625 67.558594 C 53.253906 67.5625 49.445312 67.5625 45.640625 67.554688 C 45.625 67.554688 45.613281 67.554688 45.601562 67.554688 C 45.105469 67.53125 44.855469 67.613281 44.777344 67.660156 C 44.683594 69.332031 44.703125 71.039062 44.71875 72.691406 C 44.730469 73.996094 44.746094 75.34375 44.703125 76.679688 C 44.691406 77.183594 44.285156 77.585938 43.78125 77.59375 C 42.308594 77.625 40.753906 77.625 38.734375 77.59375 C 38.21875 77.589844 37.804688 77.171875 37.804688 76.65625 C 37.78125 68.792969 37.785156 60.800781 37.789062 53.070312 C 37.792969 49.832031 37.792969 46.597656 37.792969 43.359375 L 37.792969 43.292969 C 37.789062 43.085938 37.777344 42.664062 37.707031 42.515625 C 37.191406 42.414062 36.628906 42.421875 36.039062 42.433594 C 35.777344 42.4375 35.511719 42.441406 35.253906 42.4375 C 29.375 42.453125 23.378906 42.445312 17.582031 42.441406 L 15.410156 42.4375 L 15.371094 42.4375 C 15.152344 42.445312 14.714844 42.449219 14.566406 42.527344 C 14.453125 43.160156 14.464844 43.832031 14.480469 44.542969 C 14.488281 44.890625 14.492188 45.246094 14.484375 45.605469 C 14.484375 48.605469 14.488281 51.625 14.488281 54.644531 C 14.492188 61.859375 14.5 69.316406 14.476562 76.65625 C 14.476562 77.171875 14.058594 77.589844 13.539062 77.59375 C 11.519531 77.613281 9.46875 77.613281 7.488281 77.609375 C 5.945312 77.605469 4.402344 77.605469 2.863281 77.613281 C 2.769531 77.621094 2.683594 77.621094 2.597656 77.621094 Z M 1.890625 75.535156 C 2.125 75.667969 2.410156 75.765625 2.71875 75.734375 C 2.746094 75.730469 2.777344 75.730469 2.804688 75.730469 C 4.367188 75.71875 5.925781 75.722656 7.484375 75.722656 C 9.15625 75.726562 10.878906 75.730469 12.585938 75.71875 C 12.605469 68.683594 12.601562 61.550781 12.597656 54.644531 C 12.59375 51.625 12.59375 48.601562 12.59375 45.582031 C 12.597656 45.242188 12.59375 44.921875 12.585938 44.578125 C 12.570312 43.761719 12.550781 42.917969 12.730469 42.050781 C 12.738281 42.019531 12.746094 41.992188 12.753906 41.964844 C 13.175781 40.59375 14.632812 40.566406 15.332031 40.554688 L 15.386719 40.550781 L 17.578125 40.554688 C 23.375 40.5625 29.367188 40.566406 35.261719 40.550781 C 35.519531 40.558594 35.757812 40.550781 36 40.550781 C 36.710938 40.535156 37.441406 40.523438 38.199219 40.695312 C 38.226562 40.703125 38.25 40.707031 38.273438 40.714844 C 39.628906 41.132812 39.660156 42.5625 39.675781 43.25 L 39.675781 43.335938 C 39.675781 46.597656 39.675781 49.832031 39.675781 53.070312 C 39.667969 60.496094 39.664062 68.164062 39.683594 75.722656 C 40.863281 75.734375 41.878906 75.738281 42.828125 75.726562 C 42.84375 74.714844 42.832031 73.699219 42.820312 72.707031 C 42.804688 71.019531 42.789062 69.277344 42.882812 67.546875 C 42.914062 67.074219 43.207031 65.570312 45.65625 65.671875 C 49.453125 65.679688 53.253906 65.675781 57.054688 65.675781 C 60.484375 65.675781 63.917969 65.671875 67.351562 65.679688 C 68.0625 65.613281 68.773438 65.847656 69.261719 66.316406 C 69.699219 66.734375 69.914062 67.292969 69.882812 67.894531 C 69.925781 69.460938 69.914062 71.046875 69.902344 72.582031 C 69.898438 73.613281 69.890625 74.667969 69.898438 75.71875 C 72.769531 75.734375 75.671875 75.730469 78.492188 75.722656 L 79.996094 75.71875 C 80.023438 75.71875 80.046875 75.722656 80.074219 75.722656 C 80.214844 75.734375 80.402344 75.644531 80.609375 75.523438 L 80.609375 75.300781 C 79.996094 74.992188 79.203125 75.035156 78.304688 75.085938 C 77.6875 75.121094 77.046875 75.15625 76.40625 75.074219 C 75.9375 75.011719 75.585938 74.617188 75.585938 74.144531 C 75.5625 68.359375 75.566406 62.476562 75.570312 56.789062 C 75.574219 51.265625 75.578125 45.5625 75.558594 39.9375 C 71.765625 39.996094 68.179688 38.886719 65.375 36.769531 C 65.128906 36.59375 64.863281 36.398438 64.601562 36.199219 C 64.015625 35.757812 63.457031 35.335938 62.863281 35.015625 C 62.59375 35.269531 62.324219 35.535156 62.046875 35.804688 C 61.027344 36.804688 59.976562 37.835938 58.59375 38.523438 C 55.054688 40.367188 50.390625 40.425781 46.441406 38.671875 C 45.03125 38.074219 43.914062 37.101562 42.835938 36.160156 C 42.339844 35.730469 41.875 35.324219 41.386719 34.953125 C 41.226562 34.839844 40.972656 34.988281 40.304688 35.589844 C 40.1875 35.695312 40.078125 35.796875 39.96875 35.882812 C 37.960938 37.84375 35.65625 39.125 33.304688 39.59375 C 29.582031 40.335938 26.074219 39.859375 23.425781 38.257812 C 22.296875 37.625 21.390625 36.734375 20.519531 35.871094 C 20.21875 35.574219 19.929688 35.285156 19.632812 35.015625 C 18.972656 35.367188 18.359375 35.832031 17.714844 36.316406 C 17.140625 36.75 16.550781 37.195312 15.902344 37.578125 C 13.351562 39.175781 10.269531 39.980469 6.933594 39.9375 C 6.917969 45.679688 6.921875 51.5 6.921875 57.136719 C 6.925781 62.710938 6.929688 68.476562 6.910156 74.148438 C 6.910156 74.625 6.550781 75.027344 6.074219 75.082031 C 5.453125 75.152344 4.832031 75.121094 4.230469 75.089844 C 3.328125 75.042969 2.527344 75 1.886719 75.292969 L 1.886719 75.535156 Z M 70.132812 65.0625 C 70.046875 65.0625 69.957031 65.058594 69.871094 65.046875 C 66.28125 65.046875 62.695312 65.046875 59.105469 65.046875 C 53.6875 65.046875 48.273438 65.050781 42.859375 65.042969 C 42.15625 65.117188 41.445312 64.882812 40.949219 64.414062 C 40.507812 63.992188 40.285156 63.433594 40.320312 62.828125 C 40.300781 59.335938 40.304688 55.789062 40.308594 52.359375 C 40.308594 49.414062 40.3125 46.363281 40.300781 43.367188 C 40.285156 42.859375 40.238281 41.234375 41.65625 40.722656 C 41.691406 40.707031 41.726562 40.699219 41.765625 40.691406 C 42.492188 40.523438 43.191406 40.535156 43.871094 40.550781 C 44.15625 40.558594 44.425781 40.5625 44.6875 40.554688 L 48.347656 40.558594 C 55.433594 40.558594 62.519531 40.5625 69.605469 40.550781 C 69.621094 40.554688 69.640625 40.550781 69.660156 40.554688 C 69.738281 40.558594 69.820312 40.558594 69.902344 40.5625 C 70.417969 40.570312 71.195312 40.585938 71.789062 41.1875 C 72.390625 41.773438 72.410156 42.542969 72.421875 43.054688 C 72.425781 43.140625 72.425781 43.226562 72.429688 43.308594 C 72.429688 43.328125 72.433594 43.347656 72.429688 43.367188 C 72.417969 46.367188 72.421875 49.414062 72.425781 52.359375 C 72.425781 55.792969 72.429688 59.339844 72.410156 62.828125 C 72.445312 63.4375 72.21875 64.003906 71.765625 64.425781 C 71.332031 64.835938 70.738281 65.0625 70.132812 65.0625 Z M 65.789062 63.164062 C 67.167969 63.164062 68.546875 63.164062 69.929688 63.164062 C 69.972656 63.164062 70.015625 63.167969 70.058594 63.171875 C 70.203125 63.195312 70.378906 63.144531 70.472656 63.054688 C 70.523438 63.007812 70.527344 62.972656 70.523438 62.933594 C 70.519531 62.90625 70.519531 62.878906 70.519531 62.851562 C 70.542969 59.359375 70.539062 55.800781 70.535156 52.363281 C 70.53125 49.421875 70.53125 46.382812 70.542969 43.390625 C 70.539062 43.296875 70.535156 43.199219 70.53125 43.097656 C 70.53125 42.9375 70.523438 42.601562 70.472656 42.539062 C 70.460938 42.527344 70.453125 42.519531 70.445312 42.511719 C 70.390625 42.453125 70.035156 42.449219 69.867188 42.445312 C 69.769531 42.441406 69.675781 42.441406 69.582031 42.4375 C 62.503906 42.445312 55.425781 42.441406 48.34375 42.441406 L 44.714844 42.4375 C 44.429688 42.449219 44.125 42.441406 43.828125 42.433594 C 43.277344 42.421875 42.753906 42.410156 42.28125 42.503906 C 42.253906 42.542969 42.171875 42.707031 42.1875 43.335938 C 42.203125 46.363281 42.199219 49.414062 42.195312 52.363281 C 42.191406 55.800781 42.1875 59.359375 42.210938 62.851562 C 42.210938 62.878906 42.210938 62.910156 42.207031 62.9375 C 42.203125 62.980469 42.210938 63.007812 42.253906 63.046875 C 42.335938 63.125 42.507812 63.191406 42.683594 63.167969 C 42.726562 63.160156 42.765625 63.148438 42.808594 63.160156 C 48.238281 63.164062 53.671875 63.164062 59.105469 63.164062 C 61.332031 63.164062 63.5625 63.164062 65.789062 63.164062 Z M 65.789062 63.164062 " fill-opacity="1" fill-rule="nonzero"/></g><g clip-path="url(#6e56cc07ce)"><path fill="#000000" d="M 26.894531 77.609375 C 23.578125 77.609375 20.007812 77.605469 16.066406 77.601562 C 15.546875 77.597656 15.125 77.179688 15.125 76.660156 C 15.105469 66.675781 15.105469 56 15.125 44.019531 C 15.125 43.5 15.546875 43.082031 16.066406 43.078125 C 22.75 43.0625 29.527344 43.0625 36.210938 43.078125 C 36.730469 43.082031 37.152344 43.5 37.152344 44.019531 C 37.160156 56.746094 37.160156 67.117188 37.152344 76.660156 C 37.148438 77.179688 36.730469 77.601562 36.207031 77.601562 C 33.277344 77.605469 30.210938 77.609375 26.894531 77.609375 Z M 17.011719 75.71875 C 24.046875 75.726562 29.898438 75.726562 35.261719 75.71875 C 35.273438 66.671875 35.273438 56.84375 35.261719 44.960938 C 29.203125 44.945312 23.074219 44.945312 17.011719 44.960938 C 16.996094 56.183594 16.996094 66.269531 17.011719 75.71875 Z M 17.011719 75.71875 " fill-opacity="1" fill-rule="nonzero"/></g><path fill="#000000" d="M 57.046875 62.539062 C 52.523438 62.539062 48.074219 62.535156 43.78125 62.53125 C 43.257812 62.527344 42.835938 62.109375 42.835938 61.589844 C 42.816406 55.585938 42.824219 49.617188 42.832031 44.015625 C 42.835938 43.496094 43.257812 43.078125 43.777344 43.074219 C 53.625 43.066406 61.628906 43.066406 68.953125 43.074219 C 69.476562 43.078125 69.898438 43.496094 69.898438 44.015625 C 69.914062 49.84375 69.914062 55.757812 69.898438 61.585938 C 69.898438 62.105469 69.476562 62.523438 68.957031 62.527344 C 64.960938 62.535156 60.976562 62.539062 57.046875 62.539062 Z M 57.046875 62.539062 " fill-opacity="1" fill-rule="nonzero"/><g clip-path="url(#c64b746098)"><path fill="#000000" d="M 55.914062 77.609375 C 52.570312 77.609375 49.382812 77.605469 46.296875 77.597656 C 45.777344 77.59375 45.359375 77.179688 45.355469 76.664062 C 45.335938 74.164062 45.335938 71.628906 45.355469 69.132812 C 45.359375 68.617188 45.777344 68.199219 46.296875 68.195312 C 53.675781 68.179688 60.265625 68.179688 66.433594 68.195312 C 66.953125 68.199219 67.371094 68.613281 67.378906 69.128906 C 67.402344 71.640625 67.390625 74.191406 67.378906 76.660156 C 67.375 77.175781 66.953125 77.59375 66.433594 77.597656 C 62.746094 77.605469 59.253906 77.609375 55.914062 77.609375 Z M 47.238281 75.714844 C 52.871094 75.730469 58.863281 75.730469 65.492188 75.714844 C 65.503906 73.855469 65.507812 71.957031 65.496094 70.078125 C 59.863281 70.0625 53.871094 70.0625 47.238281 70.078125 C 47.226562 71.953125 47.226562 73.84375 47.238281 75.714844 Z M 47.238281 75.714844 " fill-opacity="1" fill-rule="nonzero"/></g></g></g></g></g></svg>