<svg xmlns="http://www.w3.org/2000/svg" xmlns:xlink="http://www.w3.org/1999/xlink" width="88" zoomAndPan="magnify" viewBox="0 0 66 77.999999" height="104" preserveAspectRatio="xMidYMid meet" version="1.0"><defs><filter x="0%" y="0%" width="100%" height="100%" id="6842ba8dc0"><feColorMatrix values="0 0 0 0 1 0 0 0 0 1 0 0 0 0 1 0 0 0 1 0" color-interpolation-filters="sRGB"/></filter><mask id="a13d3a8233"><g filter="url(#6842ba8dc0)"><rect x="-6.6" width="79.2" fill="#000000" y="-7.8" height="93.599999" fill-opacity="0.53"/></g></mask><clipPath id="b3275c808d"><path d="M 0 12 L 66 12 L 66 77.25 L 0 77.25 Z M 0 12 " clip-rule="nonzero"/></clipPath><clipPath id="4a1602977a"><rect x="0" width="66" y="0" height="78"/></clipPath><mask id="446b6f2c04"><g filter="url(#6842ba8dc0)"><rect x="-6.6" width="79.2" fill="#000000" y="-7.8" height="93.599999" fill-opacity="0.53"/></g></mask><clipPath id="c60dba58c3"><path d="M 0 12 L 66 12 L 66 77.25 L 0 77.25 Z M 0 12 " clip-rule="nonzero"/></clipPath><clipPath id="67a010986d"><rect x="0" width="66" y="0" height="78"/></clipPath></defs><g mask="url(#a13d3a8233)"><g transform="matrix(1, 0, 0, 1, 0, -0.000000000000002653)"><g clip-path="url(#4a1602977a)"><g clip-path="url(#b3275c808d)"><path fill="#000000" d="M 33.023438 12.265625 C 42.003906 12.265625 50.167969 15.882812 56.019531 21.765625 C 61.914062 27.652344 65.589844 35.796875 65.589844 44.757812 C 65.589844 53.71875 61.914062 61.863281 56.019531 67.746094 C 50.167969 73.628906 42.003906 77.25 33.023438 77.25 C 23.996094 77.25 15.878906 73.628906 9.980469 67.746094 C 4.085938 61.863281 0.457031 53.71875 0.457031 44.757812 C 0.457031 35.796875 4.085938 27.652344 9.980469 21.765625 C 15.878906 15.882812 23.996094 12.265625 33.023438 12.265625 Z M 53.886719 23.894531 C 48.535156 18.554688 41.1875 15.25 33.023438 15.25 C 24.859375 15.25 17.464844 18.554688 12.113281 23.894531 C 6.761719 29.234375 3.449219 36.609375 3.449219 44.757812 C 3.449219 52.902344 6.761719 60.28125 12.113281 65.621094 C 17.464844 70.914062 24.859375 74.21875 33.023438 74.21875 C 41.1875 74.21875 48.535156 70.914062 53.886719 65.621094 C 59.238281 60.28125 62.550781 52.902344 62.550781 44.757812 C 62.550781 36.609375 59.238281 29.234375 53.886719 23.894531 Z M 53.886719 23.894531 " fill-opacity="1" fill-rule="nonzero"/></g><path fill="#000000" d="M 51.710938 3.03125 C 48.582031 3.03125 45.769531 4.300781 43.726562 6.335938 C 41.957031 8.101562 40.734375 10.453125 40.507812 13.125 C 43.910156 13.894531 47.082031 15.25 49.988281 17.015625 C 52.933594 18.824219 55.609375 21.089844 57.832031 23.714844 C 59.238281 22.808594 60.417969 21.585938 61.324219 20.136719 C 62.371094 18.464844 62.960938 16.425781 62.960938 14.253906 C 62.960938 11.179688 61.6875 8.371094 59.648438 6.335938 C 57.605469 4.300781 54.792969 3.03125 51.710938 3.03125 Z M 41.59375 4.207031 C 44.179688 1.628906 47.765625 0 51.710938 0 C 55.65625 0 59.195312 1.628906 61.824219 4.207031 C 64.410156 6.789062 65.996094 10.316406 65.996094 14.253906 C 65.996094 17.015625 65.226562 19.550781 63.867188 21.722656 C 62.503906 23.941406 60.554688 25.75 58.242188 26.925781 C 57.605469 27.332031 56.746094 27.199219 56.292969 26.566406 L 57.46875 25.660156 L 56.292969 26.566406 C 54.113281 23.804688 51.4375 21.449219 48.398438 19.59375 C 45.496094 17.785156 42.183594 16.519531 38.691406 15.792969 C 37.964844 15.703125 37.421875 15.113281 37.421875 14.347656 C 37.421875 14.300781 37.421875 14.300781 37.421875 14.253906 C 37.421875 10.316406 39.011719 6.789062 41.59375 4.207031 Z M 41.59375 4.207031 " fill-opacity="1" fill-rule="nonzero"/><path fill="#000000" d="M 14.335938 3.03125 C 11.207031 3.03125 8.394531 4.300781 6.351562 6.335938 C 4.3125 8.371094 3.039062 11.179688 3.039062 14.253906 C 3.039062 16.425781 3.675781 18.464844 4.71875 20.136719 C 5.582031 21.585938 6.761719 22.808594 8.167969 23.714844 C 10.433594 21.089844 13.066406 18.824219 16.011719 17.015625 C 18.917969 15.25 22.136719 13.894531 25.539062 13.125 C 25.265625 10.453125 24.085938 8.101562 22.273438 6.335938 C 20.230469 4.300781 17.417969 3.03125 14.335938 3.03125 Z M 4.21875 4.207031 C 6.804688 1.628906 10.390625 0 14.335938 0 C 18.28125 0 21.820312 1.628906 24.40625 4.207031 C 27.035156 6.789062 28.621094 10.316406 28.621094 14.253906 L 28.621094 14.300781 C 28.621094 15.023438 28.125 15.65625 27.398438 15.792969 L 27.082031 14.300781 L 27.398438 15.792969 C 23.859375 16.472656 20.550781 17.785156 17.601562 19.59375 C 14.605469 21.40625 11.976562 23.757812 9.800781 26.472656 C 9.390625 27.109375 8.53125 27.332031 7.847656 27.015625 C 5.492188 25.796875 3.496094 23.984375 2.132812 21.722656 C 0.773438 19.550781 0.00390625 17.015625 0.00390625 14.253906 C 0.00390625 10.316406 1.636719 6.789062 4.21875 4.207031 Z M 4.21875 4.207031 " fill-opacity="1" fill-rule="nonzero"/><path fill="#000000" d="M 19.144531 26.292969 C 21.140625 26.292969 22.953125 27.109375 24.269531 28.421875 C 25.582031 29.734375 26.402344 31.542969 26.402344 33.535156 C 26.402344 35.570312 25.582031 37.378906 24.269531 38.691406 C 22.953125 40.003906 21.140625 40.773438 19.144531 40.773438 C 17.148438 40.773438 15.332031 40.003906 14.019531 38.691406 C 12.703125 37.378906 11.886719 35.570312 11.886719 33.535156 C 11.886719 31.542969 12.703125 29.734375 14.019531 28.421875 C 15.332031 27.109375 17.148438 26.292969 19.144531 26.292969 Z M 22.136719 30.546875 C 21.367188 29.777344 20.324219 29.324219 19.144531 29.324219 C 17.964844 29.324219 16.921875 29.777344 16.148438 30.546875 C 15.378906 31.316406 14.878906 32.402344 14.878906 33.535156 C 14.878906 34.710938 15.378906 35.796875 16.148438 36.519531 C 16.921875 37.289062 17.964844 37.789062 19.144531 37.789062 C 20.324219 37.789062 21.367188 37.289062 22.136719 36.519531 C 22.90625 35.796875 23.363281 34.710938 23.363281 33.535156 C 23.363281 32.402344 22.90625 31.316406 22.136719 30.546875 Z M 22.136719 30.546875 " fill-opacity="1" fill-rule="nonzero"/><path fill="#000000" d="M 46.855469 26.292969 C 48.898438 26.292969 50.710938 27.109375 52.027344 28.421875 C 53.34375 29.734375 54.160156 31.542969 54.160156 33.535156 C 54.160156 35.570312 53.34375 37.378906 52.027344 38.691406 C 50.710938 40.003906 48.898438 40.773438 46.855469 40.773438 C 44.859375 40.773438 43.046875 40.003906 41.730469 38.691406 C 40.417969 37.378906 39.597656 35.570312 39.597656 33.535156 C 39.597656 31.542969 40.417969 29.734375 41.730469 28.421875 C 43.046875 27.109375 44.859375 26.292969 46.855469 26.292969 Z M 49.894531 30.546875 C 49.125 29.777344 48.035156 29.324219 46.855469 29.324219 C 45.722656 29.324219 44.632812 29.777344 43.863281 30.546875 C 43.09375 31.316406 42.636719 32.402344 42.636719 33.535156 C 42.636719 34.710938 43.09375 35.796875 43.863281 36.519531 C 44.632812 37.289062 45.722656 37.789062 46.855469 37.789062 C 48.035156 37.789062 49.125 37.289062 49.894531 36.519531 C 50.621094 35.796875 51.121094 34.710938 51.121094 33.535156 C 51.121094 32.402344 50.621094 31.316406 49.894531 30.546875 Z M 49.894531 30.546875 " fill-opacity="1" fill-rule="nonzero"/><path fill="#000000" d="M 32.886719 44.574219 L 31.253906 47.472656 L 29.9375 46.703125 L 31.253906 47.472656 C 31.207031 47.472656 31.207031 47.515625 31.207031 47.5625 L 29.574219 50.277344 L 29.484375 50.503906 L 36.289062 50.503906 C 36.378906 50.503906 36.46875 50.503906 36.5625 50.550781 L 36.515625 50.460938 C 36.515625 50.414062 36.46875 50.414062 36.46875 50.367188 L 34.792969 47.472656 L 36.105469 46.703125 L 34.792969 47.472656 C 34.746094 47.425781 34.746094 47.382812 34.746094 47.335938 L 33.160156 44.621094 C 33.113281 44.574219 33.113281 44.574219 33.113281 44.53125 L 33.023438 44.394531 L 32.976562 44.484375 C 32.933594 44.484375 32.933594 44.53125 32.886719 44.574219 Z M 28.621094 45.933594 L 30.300781 43.082031 C 30.300781 43.039062 30.347656 42.992188 30.347656 42.945312 L 30.753906 43.171875 L 30.347656 42.945312 C 30.617188 42.539062 30.710938 42.3125 30.800781 42.175781 C 30.84375 42.132812 30.84375 42.085938 30.890625 42.042969 C 31.617188 40.730469 31.980469 40.050781 33.113281 40.140625 C 34.15625 40.1875 34.472656 40.773438 35.15625 41.996094 C 35.289062 42.269531 35.472656 42.628906 35.699219 43.039062 C 35.746094 43.082031 35.746094 43.082031 35.789062 43.128906 L 34.472656 43.851562 L 35.746094 43.128906 L 37.332031 45.84375 C 37.378906 45.886719 37.378906 45.933594 37.421875 45.933594 L 39.101562 48.875 C 39.101562 48.875 39.101562 48.921875 39.144531 48.964844 L 37.832031 49.691406 L 39.144531 48.964844 C 39.191406 49.054688 39.464844 49.507812 39.691406 49.871094 C 40.417969 51.09375 40.777344 51.726562 40.324219 52.585938 C 40.28125 52.632812 40.234375 52.722656 40.234375 52.765625 C 39.644531 53.628906 38.964844 53.582031 37.605469 53.582031 C 37.332031 53.535156 37.015625 53.535156 36.289062 53.535156 L 29.53125 53.535156 C 28.804688 53.535156 28.621094 53.535156 28.488281 53.535156 C 27.035156 53.582031 26.308594 53.582031 25.765625 52.722656 C 25.765625 52.675781 25.71875 52.632812 25.71875 52.585938 L 27.035156 51.90625 L 25.71875 52.539062 C 25.222656 51.636719 25.628906 51.046875 26.308594 49.917969 C 26.492188 49.644531 26.71875 49.28125 26.988281 48.785156 L 28.578125 46.023438 C 28.578125 46.023438 28.621094 45.980469 28.621094 45.933594 Z M 28.488281 51.226562 L 28.441406 51.226562 L 28.441406 51.320312 C 28.53125 51.453125 28.53125 51.410156 28.488281 51.226562 Z M 28.441406 51.226562 L 28.394531 51.183594 L 28.394531 51.226562 C 28.441406 51.226562 28.441406 51.273438 28.441406 51.273438 L 28.441406 51.320312 Z M 28.488281 51.183594 L 28.441406 51.183594 L 28.441406 51.226562 Z M 28.441406 51.183594 C 28.351562 51.046875 28.261719 50.957031 28.394531 51.183594 Z M 28.488281 51.226562 L 28.488281 51.183594 Z M 37.648438 51.046875 L 37.738281 51.046875 L 37.738281 51.003906 C 37.832031 50.867188 37.785156 50.910156 37.648438 51.046875 Z M 37.648438 51.046875 L 37.648438 51.136719 L 37.695312 51.09375 L 38.964844 51.953125 L 37.695312 51.09375 C 37.695312 51.09375 37.738281 51.046875 37.738281 51.046875 Z M 37.648438 51.09375 L 37.605469 51.09375 L 37.648438 51.046875 Z M 37.605469 51.09375 C 37.558594 51.273438 37.511719 51.320312 37.648438 51.136719 Z M 37.648438 51.046875 L 37.648438 51.09375 Z M 33.113281 43.171875 L 33.113281 43.128906 C 33.113281 43.128906 33.066406 43.128906 32.976562 43.128906 L 32.933594 43.171875 L 32.886719 43.128906 L 32.839844 43.128906 L 32.933594 43.171875 L 32.976562 43.21875 L 32.976562 43.171875 L 33.023438 43.21875 L 32.976562 43.171875 C 33.023438 43.171875 33.113281 43.171875 33.113281 43.171875 Z M 32.976562 43.171875 L 32.933594 43.171875 L 32.976562 43.128906 L 32.886719 43.128906 L 32.207031 42.765625 L 32.839844 43.128906 L 32.933594 43.171875 Z M 32.976562 43.171875 " fill-opacity="1" fill-rule="nonzero"/><path fill="#000000" d="M 45.359375 57.382812 C 45.90625 56.792969 45.90625 55.84375 45.316406 55.257812 C 44.679688 54.667969 43.726562 54.714844 43.183594 55.300781 C 41.640625 56.886719 39.960938 58.152344 38.195312 58.96875 C 36.5625 59.78125 34.792969 60.1875 33.023438 60.1875 C 31.253906 60.1875 29.484375 59.78125 27.804688 58.96875 C 26.082031 58.152344 24.40625 56.929688 22.863281 55.300781 C 22.273438 54.714844 21.320312 54.667969 20.730469 55.257812 C 20.09375 55.84375 20.09375 56.792969 20.683594 57.382812 C 22.5 59.285156 24.449219 60.730469 26.492188 61.683594 C 28.621094 62.679688 30.800781 63.222656 33.023438 63.222656 C 35.289062 63.222656 37.46875 62.679688 39.507812 61.683594 C 41.59375 60.6875 43.546875 59.238281 45.359375 57.382812 Z M 45.359375 57.382812 " fill-opacity="1" fill-rule="nonzero"/></g></g></g><g mask="url(#446b6f2c04)"><g transform="matrix(1, 0, 0, 1, 0, -0.000000000000002653)"><g clip-path="url(#67a010986d)"><g clip-path="url(#c60dba58c3)"><path fill="#000000" d="M 33.023438 12.265625 C 42.003906 12.265625 50.167969 15.882812 56.019531 21.765625 C 61.914062 27.652344 65.589844 35.796875 65.589844 44.757812 C 65.589844 53.71875 61.914062 61.863281 56.019531 67.746094 C 50.167969 73.628906 42.003906 77.25 33.023438 77.25 C 23.996094 77.25 15.878906 73.628906 9.980469 67.746094 C 4.085938 61.863281 0.457031 53.71875 0.457031 44.757812 C 0.457031 35.796875 4.085938 27.652344 9.980469 21.765625 C 15.878906 15.882812 23.996094 12.265625 33.023438 12.265625 Z M 53.886719 23.894531 C 48.535156 18.554688 41.1875 15.25 33.023438 15.25 C 24.859375 15.25 17.464844 18.554688 12.113281 23.894531 C 6.761719 29.234375 3.449219 36.609375 3.449219 44.757812 C 3.449219 52.902344 6.761719 60.28125 12.113281 65.621094 C 17.464844 70.914062 24.859375 74.21875 33.023438 74.21875 C 41.1875 74.21875 48.535156 70.914062 53.886719 65.621094 C 59.238281 60.28125 62.550781 52.902344 62.550781 44.757812 C 62.550781 36.609375 59.238281 29.234375 53.886719 23.894531 Z M 53.886719 23.894531 " fill-opacity="1" fill-rule="nonzero"/></g><path fill="#000000" d="M 51.710938 3.03125 C 48.582031 3.03125 45.769531 4.300781 43.726562 6.335938 C 41.957031 8.101562 40.734375 10.453125 40.507812 13.125 C 43.910156 13.894531 47.082031 15.25 49.988281 17.015625 C 52.933594 18.824219 55.609375 21.089844 57.832031 23.714844 C 59.238281 22.808594 60.417969 21.585938 61.324219 20.136719 C 62.371094 18.464844 62.960938 16.425781 62.960938 14.253906 C 62.960938 11.179688 61.6875 8.371094 59.648438 6.335938 C 57.605469 4.300781 54.792969 3.03125 51.710938 3.03125 Z M 41.59375 4.207031 C 44.179688 1.628906 47.765625 0 51.710938 0 C 55.65625 0 59.195312 1.628906 61.824219 4.207031 C 64.410156 6.789062 65.996094 10.316406 65.996094 14.253906 C 65.996094 17.015625 65.226562 19.550781 63.867188 21.722656 C 62.503906 23.941406 60.554688 25.75 58.242188 26.925781 C 57.605469 27.332031 56.746094 27.199219 56.292969 26.566406 L 57.46875 25.660156 L 56.292969 26.566406 C 54.113281 23.804688 51.4375 21.449219 48.398438 19.59375 C 45.496094 17.785156 42.183594 16.519531 38.691406 15.792969 C 37.964844 15.703125 37.421875 15.113281 37.421875 14.347656 C 37.421875 14.300781 37.421875 14.300781 37.421875 14.253906 C 37.421875 10.316406 39.011719 6.789062 41.59375 4.207031 Z M 41.59375 4.207031 " fill-opacity="1" fill-rule="nonzero"/><path fill="#000000" d="M 14.335938 3.03125 C 11.207031 3.03125 8.394531 4.300781 6.351562 6.335938 C 4.3125 8.371094 3.039062 11.179688 3.039062 14.253906 C 3.039062 16.425781 3.675781 18.464844 4.71875 20.136719 C 5.582031 21.585938 6.761719 22.808594 8.167969 23.714844 C 10.433594 21.089844 13.066406 18.824219 16.011719 17.015625 C 18.917969 15.25 22.136719 13.894531 25.539062 13.125 C 25.265625 10.453125 24.085938 8.101562 22.273438 6.335938 C 20.230469 4.300781 17.417969 3.03125 14.335938 3.03125 Z M 4.21875 4.207031 C 6.804688 1.628906 10.390625 0 14.335938 0 C 18.28125 0 21.820312 1.628906 24.40625 4.207031 C 27.035156 6.789062 28.621094 10.316406 28.621094 14.253906 L 28.621094 14.300781 C 28.621094 15.023438 28.125 15.65625 27.398438 15.792969 L 27.082031 14.300781 L 27.398438 15.792969 C 23.859375 16.472656 20.550781 17.785156 17.601562 19.59375 C 14.605469 21.40625 11.976562 23.757812 9.800781 26.472656 C 9.390625 27.109375 8.53125 27.332031 7.847656 27.015625 C 5.492188 25.796875 3.496094 23.984375 2.132812 21.722656 C 0.773438 19.550781 0.00390625 17.015625 0.00390625 14.253906 C 0.00390625 10.316406 1.636719 6.789062 4.21875 4.207031 Z M 4.21875 4.207031 " fill-opacity="1" fill-rule="nonzero"/><path fill="#000000" d="M 19.144531 26.292969 C 21.140625 26.292969 22.953125 27.109375 24.269531 28.421875 C 25.582031 29.734375 26.402344 31.542969 26.402344 33.535156 C 26.402344 35.570312 25.582031 37.378906 24.269531 38.691406 C 22.953125 40.003906 21.140625 40.773438 19.144531 40.773438 C 17.148438 40.773438 15.332031 40.003906 14.019531 38.691406 C 12.703125 37.378906 11.886719 35.570312 11.886719 33.535156 C 11.886719 31.542969 12.703125 29.734375 14.019531 28.421875 C 15.332031 27.109375 17.148438 26.292969 19.144531 26.292969 Z M 22.136719 30.546875 C 21.367188 29.777344 20.324219 29.324219 19.144531 29.324219 C 17.964844 29.324219 16.921875 29.777344 16.148438 30.546875 C 15.378906 31.316406 14.878906 32.402344 14.878906 33.535156 C 14.878906 34.710938 15.378906 35.796875 16.148438 36.519531 C 16.921875 37.289062 17.964844 37.789062 19.144531 37.789062 C 20.324219 37.789062 21.367188 37.289062 22.136719 36.519531 C 22.90625 35.796875 23.363281 34.710938 23.363281 33.535156 C 23.363281 32.402344 22.90625 31.316406 22.136719 30.546875 Z M 22.136719 30.546875 " fill-opacity="1" fill-rule="nonzero"/><path fill="#000000" d="M 46.855469 26.292969 C 48.898438 26.292969 50.710938 27.109375 52.027344 28.421875 C 53.34375 29.734375 54.160156 31.542969 54.160156 33.535156 C 54.160156 35.570312 53.34375 37.378906 52.027344 38.691406 C 50.710938 40.003906 48.898438 40.773438 46.855469 40.773438 C 44.859375 40.773438 43.046875 40.003906 41.730469 38.691406 C 40.417969 37.378906 39.597656 35.570312 39.597656 33.535156 C 39.597656 31.542969 40.417969 29.734375 41.730469 28.421875 C 43.046875 27.109375 44.859375 26.292969 46.855469 26.292969 Z M 49.894531 30.546875 C 49.125 29.777344 48.035156 29.324219 46.855469 29.324219 C 45.722656 29.324219 44.632812 29.777344 43.863281 30.546875 C 43.09375 31.316406 42.636719 32.402344 42.636719 33.535156 C 42.636719 34.710938 43.09375 35.796875 43.863281 36.519531 C 44.632812 37.289062 45.722656 37.789062 46.855469 37.789062 C 48.035156 37.789062 49.125 37.289062 49.894531 36.519531 C 50.621094 35.796875 51.121094 34.710938 51.121094 33.535156 C 51.121094 32.402344 50.621094 31.316406 49.894531 30.546875 Z M 49.894531 30.546875 " fill-opacity="1" fill-rule="nonzero"/><path fill="#000000" d="M 32.886719 44.574219 L 31.253906 47.472656 L 29.9375 46.703125 L 31.253906 47.472656 C 31.207031 47.472656 31.207031 47.515625 31.207031 47.5625 L 29.574219 50.277344 L 29.484375 50.503906 L 36.289062 50.503906 C 36.378906 50.503906 36.46875 50.503906 36.5625 50.550781 L 36.515625 50.460938 C 36.515625 50.414062 36.46875 50.414062 36.46875 50.367188 L 34.792969 47.472656 L 36.105469 46.703125 L 34.792969 47.472656 C 34.746094 47.425781 34.746094 47.382812 34.746094 47.335938 L 33.160156 44.621094 C 33.113281 44.574219 33.113281 44.574219 33.113281 44.53125 L 33.023438 44.394531 L 32.976562 44.484375 C 32.933594 44.484375 32.933594 44.53125 32.886719 44.574219 Z M 28.621094 45.933594 L 30.300781 43.082031 C 30.300781 43.039062 30.347656 42.992188 30.347656 42.945312 L 30.753906 43.171875 L 30.347656 42.945312 C 30.617188 42.539062 30.710938 42.3125 30.800781 42.175781 C 30.84375 42.132812 30.84375 42.085938 30.890625 42.042969 C 31.617188 40.730469 31.980469 40.050781 33.113281 40.140625 C 34.15625 40.1875 34.472656 40.773438 35.15625 41.996094 C 35.289062 42.269531 35.472656 42.628906 35.699219 43.039062 C 35.746094 43.082031 35.746094 43.082031 35.789062 43.128906 L 34.472656 43.851562 L 35.746094 43.128906 L 37.332031 45.84375 C 37.378906 45.886719 37.378906 45.933594 37.421875 45.933594 L 39.101562 48.875 C 39.101562 48.875 39.101562 48.921875 39.144531 48.964844 L 37.832031 49.691406 L 39.144531 48.964844 C 39.191406 49.054688 39.464844 49.507812 39.691406 49.871094 C 40.417969 51.09375 40.777344 51.726562 40.324219 52.585938 C 40.28125 52.632812 40.234375 52.722656 40.234375 52.765625 C 39.644531 53.628906 38.964844 53.582031 37.605469 53.582031 C 37.332031 53.535156 37.015625 53.535156 36.289062 53.535156 L 29.53125 53.535156 C 28.804688 53.535156 28.621094 53.535156 28.488281 53.535156 C 27.035156 53.582031 26.308594 53.582031 25.765625 52.722656 C 25.765625 52.675781 25.71875 52.632812 25.71875 52.585938 L 27.035156 51.90625 L 25.71875 52.539062 C 25.222656 51.636719 25.628906 51.046875 26.308594 49.917969 C 26.492188 49.644531 26.71875 49.28125 26.988281 48.785156 L 28.578125 46.023438 C 28.578125 46.023438 28.621094 45.980469 28.621094 45.933594 Z M 28.488281 51.226562 L 28.441406 51.226562 L 28.441406 51.320312 C 28.53125 51.453125 28.53125 51.410156 28.488281 51.226562 Z M 28.441406 51.226562 L 28.394531 51.183594 L 28.394531 51.226562 C 28.441406 51.226562 28.441406 51.273438 28.441406 51.273438 L 28.441406 51.320312 Z M 28.488281 51.183594 L 28.441406 51.183594 L 28.441406 51.226562 Z M 28.441406 51.183594 C 28.351562 51.046875 28.261719 50.957031 28.394531 51.183594 Z M 28.488281 51.226562 L 28.488281 51.183594 Z M 37.648438 51.046875 L 37.738281 51.046875 L 37.738281 51.003906 C 37.832031 50.867188 37.785156 50.910156 37.648438 51.046875 Z M 37.648438 51.046875 L 37.648438 51.136719 L 37.695312 51.09375 L 38.964844 51.953125 L 37.695312 51.09375 C 37.695312 51.09375 37.738281 51.046875 37.738281 51.046875 Z M 37.648438 51.09375 L 37.605469 51.09375 L 37.648438 51.046875 Z M 37.605469 51.09375 C 37.558594 51.273438 37.511719 51.320312 37.648438 51.136719 Z M 37.648438 51.046875 L 37.648438 51.09375 Z M 33.113281 43.171875 L 33.113281 43.128906 C 33.113281 43.128906 33.066406 43.128906 32.976562 43.128906 L 32.933594 43.171875 L 32.886719 43.128906 L 32.839844 43.128906 L 32.933594 43.171875 L 32.976562 43.21875 L 32.976562 43.171875 L 33.023438 43.21875 L 32.976562 43.171875 C 33.023438 43.171875 33.113281 43.171875 33.113281 43.171875 Z M 32.976562 43.171875 L 32.933594 43.171875 L 32.976562 43.128906 L 32.886719 43.128906 L 32.207031 42.765625 L 32.839844 43.128906 L 32.933594 43.171875 Z M 32.976562 43.171875 " fill-opacity="1" fill-rule="nonzero"/><path fill="#000000" d="M 45.359375 57.382812 C 45.90625 56.792969 45.90625 55.84375 45.316406 55.257812 C 44.679688 54.667969 43.726562 54.714844 43.183594 55.300781 C 41.640625 56.886719 39.960938 58.152344 38.195312 58.96875 C 36.5625 59.78125 34.792969 60.1875 33.023438 60.1875 C 31.253906 60.1875 29.484375 59.78125 27.804688 58.96875 C 26.082031 58.152344 24.40625 56.929688 22.863281 55.300781 C 22.273438 54.714844 21.320312 54.667969 20.730469 55.257812 C 20.09375 55.84375 20.09375 56.792969 20.683594 57.382812 C 22.5 59.285156 24.449219 60.730469 26.492188 61.683594 C 28.621094 62.679688 30.800781 63.222656 33.023438 63.222656 C 35.289062 63.222656 37.46875 62.679688 39.507812 61.683594 C 41.59375 60.6875 43.546875 59.238281 45.359375 57.382812 Z M 45.359375 57.382812 " fill-opacity="1" fill-rule="nonzero"/></g></g></g></svg>