<svg xmlns="http://www.w3.org/2000/svg" xmlns:xlink="http://www.w3.org/1999/xlink" width="49" zoomAndPan="magnify" viewBox="0 0 36.75 29.25" height="39" preserveAspectRatio="xMidYMid meet" version="1.0"><defs><filter x="0%" y="0%" width="100%" height="100%" id="acb3844181"><feColorMatrix values="0 0 0 0 1 0 0 0 0 1 0 0 0 0 1 0 0 0 1 0" color-interpolation-filters="sRGB"/></filter><clipPath id="745e6d6fab"><path d="M 0.335938 0 L 36.167969 0 L 36.167969 28.519531 L 0.335938 28.519531 Z M 0.335938 0 " clip-rule="nonzero"/></clipPath><mask id="5c392fa584"><g filter="url(#acb3844181)"><rect x="-3.675" width="44.1" fill="#000000" y="-2.925" height="35.1" fill-opacity="0.31"/></g></mask><clipPath id="29e99ad6ac"><path d="M 0.335938 0 L 36.167969 0 L 36.167969 27.789062 L 0.335938 27.789062 Z M 0.335938 0 " clip-rule="nonzero"/></clipPath><clipPath id="950e805992"><rect x="0" width="37" y="0" height="29"/></clipPath><mask id="c2b61c0f23"><g filter="url(#acb3844181)"><rect x="-3.675" width="44.1" fill="#000000" y="-2.925" height="35.1" fill-opacity="0.31"/></g></mask><clipPath id="40360a09d3"><path d="M 0.335938 0 L 36.167969 0 L 36.167969 27.789062 L 0.335938 27.789062 Z M 0.335938 0 " clip-rule="nonzero"/></clipPath><clipPath id="4cb8f547fd"><rect x="0" width="37" y="0" height="29"/></clipPath></defs><g clip-path="url(#745e6d6fab)"><g mask="url(#5c392fa584)"><g transform="matrix(1, 0, 0, 1, 0.000000000000000056, -0.000000000000002597)"><g clip-path="url(#950e805992)"><g clip-path="url(#29e99ad6ac)"><path fill="#000000" d="M 11.316406 7.480469 C 11.808594 4.125 14.726562 1.542969 18.253906 1.542969 C 21.777344 1.542969 24.699219 4.125 25.191406 7.480469 C 25.222656 7.710938 25.359375 7.914062 25.5625 8.035156 C 25.765625 8.152344 26.007812 8.175781 26.230469 8.097656 C 26.898438 7.851562 27.621094 7.71875 28.378906 7.71875 C 31.820312 7.71875 34.609375 10.484375 34.609375 13.894531 C 34.609375 17.304688 31.820312 20.070312 28.378906 20.070312 L 22.925781 20.070312 C 22.496094 20.070312 22.148438 20.414062 22.148438 20.839844 C 22.148438 21.265625 22.496094 21.613281 22.925781 21.613281 L 28.378906 21.613281 C 32.679688 21.613281 36.167969 18.15625 36.167969 13.894531 C 36.167969 9.632812 32.679688 6.175781 28.378906 6.175781 C 27.753906 6.175781 27.140625 6.25 26.554688 6.386719 C 25.613281 2.714844 22.253906 0 18.253906 0 C 14.253906 0 10.894531 2.714844 9.949219 6.386719 C 9.363281 6.25 8.753906 6.175781 8.125 6.175781 C 3.824219 6.175781 0.335938 9.632812 0.335938 13.894531 C 0.335938 18.15625 3.824219 21.613281 8.125 21.613281 L 13.578125 21.613281 C 14.007812 21.613281 14.359375 21.265625 14.359375 20.839844 C 14.359375 20.414062 14.007812 20.070312 13.578125 20.070312 L 8.125 20.070312 C 4.683594 20.070312 1.894531 17.304688 1.894531 13.894531 C 1.894531 10.484375 4.683594 7.71875 8.125 7.71875 C 8.882812 7.71875 9.605469 7.851562 10.277344 8.097656 C 10.496094 8.175781 10.742188 8.152344 10.945312 8.035156 C 11.144531 7.914062 11.28125 7.710938 11.316406 7.480469 Z M 23.476562 14.121094 L 18.804688 9.488281 C 18.5 9.1875 18.007812 9.1875 17.703125 9.488281 L 13.027344 14.121094 C 12.722656 14.421875 12.722656 14.910156 13.027344 15.210938 C 13.332031 15.511719 13.824219 15.511719 14.128906 15.210938 L 17.472656 11.898438 L 17.472656 27.015625 C 17.472656 27.441406 17.824219 27.785156 18.253906 27.785156 C 18.683594 27.785156 19.03125 27.441406 19.03125 27.015625 L 19.03125 11.898438 L 22.375 15.210938 C 22.679688 15.511719 23.171875 15.511719 23.476562 15.210938 C 23.78125 14.910156 23.78125 14.421875 23.476562 14.121094 Z M 23.476562 14.121094 " fill-opacity="1" fill-rule="evenodd"/></g></g></g></g><g mask="url(#c2b61c0f23)"><g transform="matrix(1, 0, 0, 1, 0.000000000000000056, -0.000000000000002597)"><g clip-path="url(#4cb8f547fd)"><g clip-path="url(#40360a09d3)"><path fill="#000000" d="M 11.316406 7.480469 C 11.808594 4.125 14.726562 1.542969 18.253906 1.542969 C 21.777344 1.542969 24.699219 4.125 25.191406 7.480469 C 25.222656 7.710938 25.359375 7.914062 25.5625 8.035156 C 25.765625 8.152344 26.007812 8.175781 26.230469 8.097656 C 26.898438 7.851562 27.621094 7.71875 28.378906 7.71875 C 31.820312 7.71875 34.609375 10.484375 34.609375 13.894531 C 34.609375 17.304688 31.820312 20.070312 28.378906 20.070312 L 22.925781 20.070312 C 22.496094 20.070312 22.148438 20.414062 22.148438 20.839844 C 22.148438 21.265625 22.496094 21.613281 22.925781 21.613281 L 28.378906 21.613281 C 32.679688 21.613281 36.167969 18.15625 36.167969 13.894531 C 36.167969 9.632812 32.679688 6.175781 28.378906 6.175781 C 27.753906 6.175781 27.140625 6.25 26.554688 6.386719 C 25.613281 2.714844 22.253906 0 18.253906 0 C 14.253906 0 10.894531 2.714844 9.949219 6.386719 C 9.363281 6.25 8.753906 6.175781 8.125 6.175781 C 3.824219 6.175781 0.335938 9.632812 0.335938 13.894531 C 0.335938 18.15625 3.824219 21.613281 8.125 21.613281 L 13.578125 21.613281 C 14.007812 21.613281 14.359375 21.265625 14.359375 20.839844 C 14.359375 20.414062 14.007812 20.070312 13.578125 20.070312 L 8.125 20.070312 C 4.683594 20.070312 1.894531 17.304688 1.894531 13.894531 C 1.894531 10.484375 4.683594 7.71875 8.125 7.71875 C 8.882812 7.71875 9.605469 7.851562 10.277344 8.097656 C 10.496094 8.175781 10.742188 8.152344 10.945312 8.035156 C 11.144531 7.914062 11.28125 7.710938 11.316406 7.480469 Z M 23.476562 14.121094 L 18.804688 9.488281 C 18.5 9.1875 18.007812 9.1875 17.703125 9.488281 L 13.027344 14.121094 C 12.722656 14.421875 12.722656 14.910156 13.027344 15.210938 C 13.332031 15.511719 13.824219 15.511719 14.128906 15.210938 L 17.472656 11.898438 L 17.472656 27.015625 C 17.472656 27.441406 17.824219 27.785156 18.253906 27.785156 C 18.683594 27.785156 19.03125 27.441406 19.03125 27.015625 L 19.03125 11.898438 L 22.375 15.210938 C 22.679688 15.511719 23.171875 15.511719 23.476562 15.210938 C 23.78125 14.910156 23.78125 14.421875 23.476562 14.121094 Z M 23.476562 14.121094 " fill-opacity="1" fill-rule="evenodd"/></g></g></g></g></g></svg>